G04 #@! TF.GenerationSoftware,KiCad,Pcbnew,(6.0.4-0)*
G04 #@! TF.CreationDate,2022-04-22T14:06:04+09:00*
G04 #@! TF.ProjectId,mcupcb,6d637570-6362-42e6-9b69-6361645f7063,rev?*
G04 #@! TF.SameCoordinates,Original*
G04 #@! TF.FileFunction,Soldermask,Bot*
G04 #@! TF.FilePolarity,Negative*
%FSLAX46Y46*%
G04 Gerber Fmt 4.6, Leading zero omitted, Abs format (unit mm)*
G04 Created by KiCad (PCBNEW (6.0.4-0)) date 2022-04-22 14:06:04*
%MOMM*%
%LPD*%
G01*
G04 APERTURE LIST*
G04 Aperture macros list*
%AMRoundRect*
0 Rectangle with rounded corners*
0 $1 Rounding radius*
0 $2 $3 $4 $5 $6 $7 $8 $9 X,Y pos of 4 corners*
0 Add a 4 corners polygon primitive as box body*
4,1,4,$2,$3,$4,$5,$6,$7,$8,$9,$2,$3,0*
0 Add four circle primitives for the rounded corners*
1,1,$1+$1,$2,$3*
1,1,$1+$1,$4,$5*
1,1,$1+$1,$6,$7*
1,1,$1+$1,$8,$9*
0 Add four rect primitives between the rounded corners*
20,1,$1+$1,$2,$3,$4,$5,0*
20,1,$1+$1,$4,$5,$6,$7,0*
20,1,$1+$1,$6,$7,$8,$9,0*
20,1,$1+$1,$8,$9,$2,$3,0*%
G04 Aperture macros list end*
%ADD10C,0.500000*%
%ADD11C,2.200000*%
%ADD12R,0.300000X1.300000*%
%ADD13RoundRect,0.200000X0.700000X0.900000X-0.700000X0.900000X-0.700000X-0.900000X0.700000X-0.900000X0*%
%ADD14R,1.500000X0.550000*%
%ADD15R,0.550000X1.500000*%
%ADD16RoundRect,0.225000X-0.225000X-0.250000X0.225000X-0.250000X0.225000X0.250000X-0.225000X0.250000X0*%
%ADD17RoundRect,0.200000X0.200000X0.275000X-0.200000X0.275000X-0.200000X-0.275000X0.200000X-0.275000X0*%
%ADD18RoundRect,0.225000X0.250000X-0.225000X0.250000X0.225000X-0.250000X0.225000X-0.250000X-0.225000X0*%
%ADD19RoundRect,0.200000X-0.200000X-0.275000X0.200000X-0.275000X0.200000X0.275000X-0.200000X0.275000X0*%
%ADD20RoundRect,0.225000X-0.250000X0.225000X-0.250000X-0.225000X0.250000X-0.225000X0.250000X0.225000X0*%
%ADD21R,1.000000X0.700000*%
%ADD22R,0.600000X0.700000*%
%ADD23RoundRect,0.250000X-0.475000X0.250000X-0.475000X-0.250000X0.475000X-0.250000X0.475000X0.250000X0*%
%ADD24RoundRect,0.225000X0.225000X0.250000X-0.225000X0.250000X-0.225000X-0.250000X0.225000X-0.250000X0*%
%ADD25RoundRect,0.200000X0.500000X0.400000X-0.500000X0.400000X-0.500000X-0.400000X0.500000X-0.400000X0*%
%ADD26RoundRect,0.250000X0.625000X-0.375000X0.625000X0.375000X-0.625000X0.375000X-0.625000X-0.375000X0*%
%ADD27C,0.650000*%
%ADD28R,0.600000X1.450000*%
%ADD29R,0.300000X1.450000*%
%ADD30O,1.000000X2.100000*%
%ADD31O,1.000000X1.600000*%
%ADD32C,4.000000*%
%ADD33RoundRect,0.250000X-0.250000X-0.475000X0.250000X-0.475000X0.250000X0.475000X-0.250000X0.475000X0*%
%ADD34C,0.990600*%
%ADD35C,0.800000*%
G04 APERTURE END LIST*
D10*
X185250000Y-142250000D03*
X185250000Y-144250000D03*
X185250000Y-141250000D03*
X185250000Y-143250000D03*
X185250000Y-145250000D03*
X208500000Y-148500000D03*
X209500000Y-148500000D03*
X207500000Y-148500000D03*
X231750000Y-141250000D03*
X231750000Y-142250000D03*
X231750000Y-143250000D03*
X231750000Y-144250000D03*
X231750000Y-145250000D03*
X231750000Y-164750000D03*
X231750000Y-163750000D03*
X231750000Y-162750000D03*
X185250000Y-163750000D03*
X185250000Y-164750000D03*
X185250000Y-162750000D03*
D11*
X187000000Y-169250000D03*
D12*
X207250000Y-160900000D03*
X206750000Y-160900000D03*
X206250000Y-160900000D03*
X205750000Y-160900000D03*
X205250000Y-160900000D03*
X204750000Y-160900000D03*
X204250000Y-160900000D03*
X203750000Y-160900000D03*
X203250000Y-160900000D03*
X202750000Y-160900000D03*
X202250000Y-160900000D03*
X201750000Y-160900000D03*
X201250000Y-160900000D03*
X200750000Y-160900000D03*
X200250000Y-160900000D03*
X199750000Y-160900000D03*
X199250000Y-160900000D03*
X198750000Y-160900000D03*
X198250000Y-160900000D03*
X197750000Y-160900000D03*
X197250000Y-160900000D03*
X196750000Y-160900000D03*
X196250000Y-160900000D03*
X195750000Y-160900000D03*
X195250000Y-160900000D03*
X194750000Y-160900000D03*
X194250000Y-160900000D03*
X193750000Y-160900000D03*
X193250000Y-160900000D03*
X192750000Y-160900000D03*
D13*
X209150000Y-164150000D03*
X190850000Y-164150000D03*
D14*
X217300000Y-164600000D03*
X217300000Y-163800000D03*
X217300000Y-163000000D03*
X217300000Y-162200000D03*
X217300000Y-161400000D03*
X217300000Y-160600000D03*
X217300000Y-159800000D03*
X217300000Y-159000000D03*
X217300000Y-158200000D03*
X217300000Y-157400000D03*
X217300000Y-156600000D03*
D15*
X219000000Y-154900000D03*
X219800000Y-154900000D03*
X220600000Y-154900000D03*
X221400000Y-154900000D03*
X222200000Y-154900000D03*
X223000000Y-154900000D03*
X223800000Y-154900000D03*
X224600000Y-154900000D03*
X225400000Y-154900000D03*
X226200000Y-154900000D03*
X227000000Y-154900000D03*
D14*
X228700000Y-156600000D03*
X228700000Y-157400000D03*
X228700000Y-158200000D03*
X228700000Y-159000000D03*
X228700000Y-159800000D03*
X228700000Y-160600000D03*
X228700000Y-161400000D03*
X228700000Y-162200000D03*
X228700000Y-163000000D03*
X228700000Y-163800000D03*
X228700000Y-164600000D03*
D15*
X227000000Y-166300000D03*
X226200000Y-166300000D03*
X225400000Y-166300000D03*
X224600000Y-166300000D03*
X223800000Y-166300000D03*
X223000000Y-166300000D03*
X222200000Y-166300000D03*
X221400000Y-166300000D03*
X220600000Y-166300000D03*
X219800000Y-166300000D03*
X219000000Y-166300000D03*
D16*
X219625000Y-153000000D03*
X221175000Y-153000000D03*
D17*
X215025000Y-161800000D03*
X213375000Y-161800000D03*
D18*
X220600000Y-170175000D03*
X220600000Y-168625000D03*
D19*
X216375000Y-153000000D03*
X218025000Y-153000000D03*
D20*
X227000000Y-168625000D03*
X227000000Y-170175000D03*
D18*
X230000000Y-150975000D03*
X230000000Y-149425000D03*
D21*
X203500000Y-158800000D03*
D22*
X201800000Y-158800000D03*
X201800000Y-156800000D03*
X203700000Y-156800000D03*
D20*
X218600000Y-168625000D03*
X218600000Y-170175000D03*
D18*
X224000000Y-150975000D03*
X224000000Y-149425000D03*
D19*
X193975000Y-158800000D03*
X195625000Y-158800000D03*
D11*
X213000000Y-169250000D03*
D23*
X190800000Y-151850000D03*
X190800000Y-153750000D03*
D24*
X212775000Y-157800000D03*
X211225000Y-157800000D03*
D17*
X215025000Y-163400000D03*
X213375000Y-163400000D03*
D25*
X228100000Y-151250000D03*
X225900000Y-151250000D03*
X225900000Y-149550000D03*
X228100000Y-149550000D03*
D11*
X213000000Y-153250000D03*
D26*
X193200000Y-154600000D03*
X193200000Y-151800000D03*
D17*
X195625000Y-157200000D03*
X193975000Y-157200000D03*
D27*
X197110000Y-152849999D03*
X202890000Y-152849999D03*
D28*
X196750000Y-154294999D03*
X197550000Y-154294999D03*
D29*
X198750000Y-154294999D03*
X199750000Y-154294999D03*
X200250000Y-154294999D03*
X201250000Y-154294999D03*
D28*
X202450000Y-154294999D03*
X203250000Y-154294999D03*
X203250000Y-154294999D03*
X202450000Y-154294999D03*
D29*
X201750000Y-154294999D03*
X200750000Y-154294999D03*
X199250000Y-154294999D03*
X198250000Y-154294999D03*
D28*
X197550000Y-154294999D03*
X196750000Y-154294999D03*
D30*
X195680000Y-153379999D03*
X204320000Y-153379999D03*
D31*
X195680000Y-149199999D03*
X204320000Y-149199999D03*
D32*
X187000000Y-153250000D03*
D33*
X211050000Y-159600000D03*
X212950000Y-159600000D03*
D18*
X230000000Y-155025000D03*
X230000000Y-153475000D03*
D34*
X220740000Y-151216000D03*
X220740000Y-149184000D03*
X215660000Y-150200000D03*
D35*
X216930000Y-149565000D03*
D10*
X216930000Y-149565000D03*
X216930000Y-150835000D03*
D35*
X216930000Y-150835000D03*
D10*
X218200000Y-149565000D03*
D35*
X218200000Y-149565000D03*
X218200000Y-150835000D03*
D10*
X218200000Y-150835000D03*
D35*
X219470000Y-149565000D03*
D10*
X219470000Y-149565000D03*
D35*
X219470000Y-150835000D03*
D10*
X219470000Y-150835000D03*
M02*
