G04 #@! TF.GenerationSoftware,KiCad,Pcbnew,(6.0.4-0)*
G04 #@! TF.CreationDate,2022-04-22T14:06:05+09:00*
G04 #@! TF.ProjectId,mcupcb,6d637570-6362-42e6-9b69-6361645f7063,rev?*
G04 #@! TF.SameCoordinates,Original*
G04 #@! TF.FileFunction,Profile,NP*
%FSLAX46Y46*%
G04 Gerber Fmt 4.6, Leading zero omitted, Abs format (unit mm)*
G04 Created by KiCad (PCBNEW (6.0.4-0)) date 2022-04-22 14:06:05*
%MOMM*%
%LPD*%
G01*
G04 APERTURE LIST*
G04 #@! TA.AperFunction,Profile*
%ADD10C,0.050000*%
G04 #@! TD*
G04 APERTURE END LIST*
D10*
X183500000Y-145750000D02*
X206500000Y-145750001D01*
X205000000Y-147750000D02*
X187000000Y-147750000D01*
X182500000Y-161750001D02*
G75*
G03*
X183500000Y-162750000I1000000J1D01*
G01*
X177500000Y-171750000D02*
X182500000Y-171750000D01*
X207500000Y-147250001D02*
X207499999Y-146750001D01*
X232500000Y-160250000D02*
X232500000Y-150250000D01*
X230000000Y-171750000D02*
G75*
G03*
X232500000Y-169250000I0J2500000D01*
G01*
X184000000Y-164750000D02*
X183500000Y-164750000D01*
X184000000Y-162750000D02*
X183500000Y-162750000D01*
X232500000Y-169250000D02*
X232500000Y-167250000D01*
X184500000Y-169250000D02*
G75*
G03*
X187000000Y-171750000I2500000J0D01*
G01*
X230000000Y-171750000D02*
X187000000Y-171750000D01*
X239500000Y-140750000D02*
X239500000Y-147750000D01*
X233000000Y-162750000D02*
X233500000Y-162750000D01*
X233500000Y-162750000D02*
G75*
G03*
X234500000Y-161750000I0J1000000D01*
G01*
X234500000Y-165750000D02*
X234500000Y-171750000D01*
X210500000Y-145750000D02*
G75*
G03*
X209500000Y-146750001I0J-1000000D01*
G01*
X234500000Y-146750000D02*
G75*
G03*
X233500000Y-145750000I-1000000J0D01*
G01*
X177500001Y-147750000D02*
X177500001Y-140750000D01*
X182500000Y-161750001D02*
X182500000Y-147750001D01*
X183500000Y-145750000D02*
G75*
G03*
X182500000Y-146750000I0J-1000000D01*
G01*
X234500000Y-146750000D02*
X234500000Y-161750000D01*
X210500000Y-145750001D02*
X233500000Y-145750000D01*
X239500000Y-171750000D02*
X239500000Y-147750000D01*
X233000000Y-164750000D02*
X233500000Y-164750000D01*
X183500000Y-164750000D02*
G75*
G03*
X182500000Y-165750000I0J-1000000D01*
G01*
X187000000Y-147750000D02*
G75*
G03*
X184500000Y-150250000I0J-2500000D01*
G01*
X207499999Y-146750001D02*
G75*
G03*
X206500000Y-145750001I-999999J1D01*
G01*
X182500000Y-147750001D02*
X182500000Y-146750000D01*
X234500000Y-171750000D02*
X239500000Y-171750000D01*
X212000000Y-147750000D02*
X230000000Y-147750000D01*
X209500000Y-147250000D02*
X209500000Y-146750001D01*
X177500001Y-140750000D02*
X239500000Y-140750000D01*
X184500000Y-150250000D02*
X184500000Y-160250000D01*
X232500000Y-150250000D02*
G75*
G03*
X230000000Y-147750000I-2500000J0D01*
G01*
X177500001Y-147750000D02*
X177500000Y-171750000D01*
X184500000Y-167250000D02*
X184500000Y-169250000D01*
X234500000Y-165750000D02*
G75*
G03*
X233500000Y-164750000I-1000000J0D01*
G01*
X182500000Y-171750000D02*
X182500000Y-165750000D01*
X211914214Y-147750000D02*
X212000000Y-147750000D01*
X207500000Y-147250000D02*
X207500000Y-147335786D01*
X209500000Y-147250000D02*
X209500000Y-147335786D01*
X205000000Y-147750000D02*
X205085786Y-147750000D01*
X211914214Y-147750005D02*
G75*
G03*
X211207107Y-148042893I26J-1000075D01*
G01*
X210500000Y-148335785D02*
G75*
G03*
X211207107Y-148042893I20J999955D01*
G01*
X205792893Y-148042893D02*
G75*
G03*
X205085786Y-147750000I-707104J-707101D01*
G01*
X206500000Y-148335786D02*
G75*
G03*
X207500000Y-147335786I1J999999D01*
G01*
X209499994Y-147335786D02*
G75*
G03*
X210500000Y-148335786I1000016J16D01*
G01*
X205792893Y-148042893D02*
G75*
G03*
X206500000Y-148335786I707104J707101D01*
G01*
X232500000Y-167164214D02*
X232500000Y-167250000D01*
X233000000Y-162750000D02*
X232914214Y-162750000D01*
X233000000Y-164750000D02*
X232914214Y-164750000D01*
X232500000Y-160250000D02*
X232500000Y-160335786D01*
X232914214Y-164749994D02*
G75*
G03*
X231914214Y-165750000I16J-1000016D01*
G01*
X232207107Y-161042893D02*
G75*
G03*
X232500000Y-160335786I-707101J707104D01*
G01*
X232499995Y-167164214D02*
G75*
G03*
X232207107Y-166457107I-1000075J-26D01*
G01*
X232207107Y-161042893D02*
G75*
G03*
X231914214Y-161750000I707101J-707104D01*
G01*
X231914214Y-161750000D02*
G75*
G03*
X232914214Y-162750000I999999J-1D01*
G01*
X231914215Y-165750000D02*
G75*
G03*
X232207107Y-166457107I999955J-20D01*
G01*
X184000000Y-162750000D02*
X184085786Y-162750000D01*
X184000000Y-164750000D02*
X184085786Y-164750000D01*
X184500000Y-167250000D02*
X184500000Y-167164214D01*
X184500000Y-160335786D02*
X184500000Y-160250000D01*
X185085786Y-165750000D02*
G75*
G03*
X184085786Y-164750000I-999999J1D01*
G01*
X184792893Y-166457107D02*
G75*
G03*
X185085786Y-165750000I-707101J707104D01*
G01*
X184500005Y-160335786D02*
G75*
G03*
X184792893Y-161042893I1000075J26D01*
G01*
X184085786Y-162750006D02*
G75*
G03*
X185085786Y-161750000I-16J1000016D01*
G01*
X185085785Y-161750000D02*
G75*
G03*
X184792893Y-161042893I-999955J20D01*
G01*
X184792893Y-166457107D02*
G75*
G03*
X184500000Y-167164214I707101J-707104D01*
G01*
M02*
