%FSLAX45Y45*%
G04 Gerber Fmt 4.5, Leading zero omitted, Abs format (unit mm)*
G04 Created by KiCad (PCBNEW (6.0.4-0)) date 2022-04-22 14:06:36*
%MOMM*%
%LPD*%
G01*
G04 APERTURE LIST*
%TA.AperFunction,Profile*%
%ADD10C,0.050000*%
%TD*%
%ADD11C,0.200000*%
%ADD12C,0.030000*%
%ADD13C,0.040000*%
%ADD14C,0.060000*%
%ADD15C,0.220000*%
G04 APERTURE END LIST*
D10*
X18350000Y-14575000D02*
X20650000Y-14575000D01*
X20500000Y-14775000D02*
X18700000Y-14775000D01*
X18250000Y-16175000D02*
G75*
G03*
X18350000Y-16275000I100000J0D01*
G01*
X17750000Y-17175000D02*
X18250000Y-17175000D01*
X20750000Y-14725000D02*
X20750000Y-14675000D01*
X23250000Y-16025000D02*
X23250000Y-15025000D01*
X23000000Y-17175000D02*
G75*
G03*
X23250000Y-16925000I0J250000D01*
G01*
X18400000Y-16475000D02*
X18350000Y-16475000D01*
X18400000Y-16275000D02*
X18350000Y-16275000D01*
X23250000Y-16925000D02*
X23250000Y-16725000D01*
X18450000Y-16925000D02*
G75*
G03*
X18700000Y-17175000I250000J0D01*
G01*
X23000000Y-17175000D02*
X18700000Y-17175000D01*
X23950000Y-14075000D02*
X23950000Y-14775000D01*
X23300000Y-16275000D02*
X23350000Y-16275000D01*
X23350000Y-16275000D02*
G75*
G03*
X23450000Y-16175000I0J100000D01*
G01*
X23450000Y-16575000D02*
X23450000Y-17175000D01*
X21050000Y-14575000D02*
G75*
G03*
X20950000Y-14675000I0J-100000D01*
G01*
X23450000Y-14675000D02*
G75*
G03*
X23350000Y-14575000I-100000J0D01*
G01*
X17750000Y-14775000D02*
X17750000Y-14075000D01*
X18250000Y-16175000D02*
X18250000Y-14775000D01*
X18350000Y-14575000D02*
G75*
G03*
X18250000Y-14675000I0J-100000D01*
G01*
X23450000Y-14675000D02*
X23450000Y-16175000D01*
X21050000Y-14575000D02*
X23350000Y-14575000D01*
X23950000Y-17175000D02*
X23950000Y-14775000D01*
X23300000Y-16475000D02*
X23350000Y-16475000D01*
X18350000Y-16475000D02*
G75*
G03*
X18250000Y-16575000I0J-100000D01*
G01*
X18700000Y-14775000D02*
G75*
G03*
X18450000Y-15025000I0J-250000D01*
G01*
X20750000Y-14675000D02*
G75*
G03*
X20650000Y-14575000I-100000J0D01*
G01*
X18250000Y-14775000D02*
X18250000Y-14675000D01*
X23450000Y-17175000D02*
X23950000Y-17175000D01*
X21200000Y-14775000D02*
X23000000Y-14775000D01*
X20950000Y-14725000D02*
X20950000Y-14675000D01*
X17750000Y-14075000D02*
X23950000Y-14075000D01*
X18450000Y-15025000D02*
X18450000Y-16025000D01*
X23250000Y-15025000D02*
G75*
G03*
X23000000Y-14775000I-250000J0D01*
G01*
X17750000Y-14775000D02*
X17750000Y-17175000D01*
X18450000Y-16725000D02*
X18450000Y-16925000D01*
X23450000Y-16575000D02*
G75*
G03*
X23350000Y-16475000I-100000J0D01*
G01*
X18250000Y-17175000D02*
X18250000Y-16575000D01*
D11*
D12*
X18565000Y-14985000D02*
X18595000Y-15015000D01*
X18595000Y-14985000D02*
X18565000Y-15015000D01*
X18565000Y-15685000D02*
X18595000Y-15715000D01*
X18595000Y-15685000D02*
X18565000Y-15715000D01*
X18565000Y-16085000D02*
X18595000Y-16115000D01*
X18595000Y-16085000D02*
X18565000Y-16115000D01*
X18665000Y-14885000D02*
X18695000Y-14915000D01*
X18695000Y-14885000D02*
X18665000Y-14915000D01*
X18965000Y-14885000D02*
X18995000Y-14915000D01*
X18995000Y-14885000D02*
X18965000Y-14915000D01*
X18965000Y-17035000D02*
X18995000Y-17065000D01*
X18995000Y-17035000D02*
X18965000Y-17065000D01*
X19085000Y-15685000D02*
X19115000Y-15715000D01*
X19115000Y-15685000D02*
X19085000Y-15715000D01*
X19145000Y-16085000D02*
X19175000Y-16115000D01*
X19175000Y-16085000D02*
X19145000Y-16115000D01*
X19145000Y-16625000D02*
X19175000Y-16655000D01*
X19175000Y-16625000D02*
X19145000Y-16655000D01*
X19205000Y-16865000D02*
X19235000Y-16895000D01*
X19235000Y-16865000D02*
X19205000Y-16895000D01*
X19205000Y-16965000D02*
X19235000Y-16995000D01*
X19235000Y-16965000D02*
X19205000Y-16995000D01*
X19305000Y-16965000D02*
X19335000Y-16995000D01*
X19335000Y-16965000D02*
X19305000Y-16995000D01*
X19365000Y-14885000D02*
X19395000Y-14915000D01*
X19395000Y-14885000D02*
X19365000Y-14915000D01*
X19365000Y-16905000D02*
X19395000Y-16935000D01*
X19395000Y-16905000D02*
X19365000Y-16935000D01*
X19425000Y-16385000D02*
X19455000Y-16415000D01*
X19455000Y-16385000D02*
X19425000Y-16415000D01*
X19425000Y-16525000D02*
X19455000Y-16555000D01*
X19455000Y-16525000D02*
X19425000Y-16555000D01*
X19425000Y-16825000D02*
X19455000Y-16855000D01*
X19455000Y-16825000D02*
X19425000Y-16855000D01*
X19425000Y-17005000D02*
X19455000Y-17035000D01*
X19455000Y-17005000D02*
X19425000Y-17035000D01*
X19505000Y-16965000D02*
X19535000Y-16995000D01*
X19535000Y-16965000D02*
X19505000Y-16995000D01*
X19565000Y-16905000D02*
X19595000Y-16935000D01*
X19595000Y-16905000D02*
X19565000Y-16935000D01*
X19625000Y-16965000D02*
X19655000Y-16995000D01*
X19655000Y-16965000D02*
X19625000Y-16995000D01*
X19645000Y-15705000D02*
X19675000Y-15735000D01*
X19675000Y-15705000D02*
X19645000Y-15735000D01*
X19645000Y-15865000D02*
X19675000Y-15895000D01*
X19675000Y-15865000D02*
X19645000Y-15895000D01*
X19660000Y-15960000D02*
X19690000Y-15990000D01*
X19690000Y-15960000D02*
X19660000Y-15990000D01*
X19685000Y-16905000D02*
X19715000Y-16935000D01*
X19715000Y-16905000D02*
X19685000Y-16935000D01*
X19705000Y-16385000D02*
X19735000Y-16415000D01*
X19735000Y-16385000D02*
X19705000Y-16415000D01*
X19705000Y-16525000D02*
X19735000Y-16555000D01*
X19735000Y-16525000D02*
X19705000Y-16555000D01*
X19745000Y-16965000D02*
X19775000Y-16995000D01*
X19775000Y-16965000D02*
X19745000Y-16995000D01*
X19825000Y-15625000D02*
X19855000Y-15655000D01*
X19855000Y-15625000D02*
X19825000Y-15655000D01*
X19865000Y-14885000D02*
X19895000Y-14915000D01*
X19895000Y-14885000D02*
X19865000Y-14915000D01*
X19865000Y-15235000D02*
X19895000Y-15265000D01*
X19895000Y-15235000D02*
X19865000Y-15265000D01*
X19885000Y-15565000D02*
X19915000Y-15595000D01*
X19915000Y-15565000D02*
X19885000Y-15595000D01*
X19885000Y-15685000D02*
X19915000Y-15715000D01*
X19915000Y-15685000D02*
X19885000Y-15715000D01*
X19885000Y-15785000D02*
X19915000Y-15815000D01*
X19915000Y-15785000D02*
X19885000Y-15815000D01*
X19945000Y-15625000D02*
X19975000Y-15655000D01*
X19975000Y-15625000D02*
X19945000Y-15655000D01*
X19965000Y-15865000D02*
X19995000Y-15895000D01*
X19995000Y-15865000D02*
X19965000Y-15895000D01*
X19965000Y-16965000D02*
X19995000Y-16995000D01*
X19995000Y-16965000D02*
X19965000Y-16995000D01*
X20025000Y-15565000D02*
X20055000Y-15595000D01*
X20055000Y-15565000D02*
X20025000Y-15595000D01*
X20045000Y-16965000D02*
X20075000Y-16995000D01*
X20075000Y-16965000D02*
X20045000Y-16995000D01*
X20065000Y-15865000D02*
X20095000Y-15895000D01*
X20095000Y-15865000D02*
X20065000Y-15895000D01*
X20085000Y-15625000D02*
X20115000Y-15655000D01*
X20115000Y-15625000D02*
X20085000Y-15655000D01*
X20110000Y-15960000D02*
X20140000Y-15990000D01*
X20140000Y-15960000D02*
X20110000Y-15990000D01*
X20115000Y-14885000D02*
X20145000Y-14915000D01*
X20145000Y-14885000D02*
X20115000Y-14915000D01*
X20115000Y-15235000D02*
X20145000Y-15265000D01*
X20145000Y-15235000D02*
X20115000Y-15265000D01*
X20125000Y-16215000D02*
X20155000Y-16245000D01*
X20155000Y-16215000D02*
X20125000Y-16245000D01*
X20125000Y-16435000D02*
X20155000Y-16465000D01*
X20155000Y-16435000D02*
X20125000Y-16465000D01*
X20145000Y-15565000D02*
X20175000Y-15595000D01*
X20175000Y-15565000D02*
X20145000Y-15595000D01*
X20185000Y-16365000D02*
X20215000Y-16395000D01*
X20215000Y-16365000D02*
X20185000Y-16395000D01*
X20185000Y-16505000D02*
X20215000Y-16535000D01*
X20215000Y-16505000D02*
X20185000Y-16535000D01*
X20285000Y-16545000D02*
X20315000Y-16575000D01*
X20315000Y-16545000D02*
X20285000Y-16575000D01*
X20335000Y-15955000D02*
X20365000Y-15985000D01*
X20365000Y-15955000D02*
X20335000Y-15985000D01*
X20345000Y-16485000D02*
X20375000Y-16515000D01*
X20375000Y-16485000D02*
X20345000Y-16515000D01*
X20405000Y-16425000D02*
X20435000Y-16455000D01*
X20435000Y-16425000D02*
X20405000Y-16455000D01*
X20445000Y-15865000D02*
X20475000Y-15895000D01*
X20475000Y-15865000D02*
X20445000Y-15895000D01*
X20465000Y-16365000D02*
X20495000Y-16395000D01*
X20495000Y-16365000D02*
X20465000Y-16395000D01*
X20505000Y-16965000D02*
X20535000Y-16995000D01*
X20535000Y-16965000D02*
X20505000Y-16995000D01*
X20535000Y-14835000D02*
X20565000Y-14865000D01*
X20565000Y-14835000D02*
X20535000Y-14865000D01*
X20535000Y-15765000D02*
X20565000Y-15795000D01*
X20565000Y-15765000D02*
X20535000Y-15795000D01*
X20535000Y-15825000D02*
X20565000Y-15855000D01*
X20565000Y-15825000D02*
X20535000Y-15855000D01*
X20585000Y-16925000D02*
X20615000Y-16955000D01*
X20615000Y-16925000D02*
X20585000Y-16955000D01*
X20645000Y-15285000D02*
X20675000Y-15315000D01*
X20675000Y-15285000D02*
X20645000Y-15315000D01*
X20645000Y-15445000D02*
X20675000Y-15475000D01*
X20675000Y-15445000D02*
X20645000Y-15475000D01*
X20645000Y-16985000D02*
X20675000Y-17015000D01*
X20675000Y-16985000D02*
X20645000Y-17015000D01*
X20685454Y-15644773D02*
X20715454Y-15674773D01*
X20715454Y-15644773D02*
X20685454Y-15674773D01*
X20705000Y-16925000D02*
X20735000Y-16955000D01*
X20735000Y-16925000D02*
X20705000Y-16955000D01*
X20765000Y-16985000D02*
X20795000Y-17015000D01*
X20795000Y-16985000D02*
X20765000Y-17015000D01*
X20785000Y-15645000D02*
X20815000Y-15675000D01*
X20815000Y-15645000D02*
X20785000Y-15675000D01*
X20785000Y-15705000D02*
X20815000Y-15735000D01*
X20815000Y-15705000D02*
X20785000Y-15735000D01*
X20805000Y-15105000D02*
X20835000Y-15135000D01*
X20835000Y-15105000D02*
X20805000Y-15135000D01*
X20805000Y-15285000D02*
X20835000Y-15315000D01*
X20835000Y-15285000D02*
X20805000Y-15315000D01*
X20805000Y-15445000D02*
X20835000Y-15475000D01*
X20835000Y-15445000D02*
X20805000Y-15475000D01*
X20825000Y-16925000D02*
X20855000Y-16955000D01*
X20855000Y-16925000D02*
X20825000Y-16955000D01*
X20885000Y-16985000D02*
X20915000Y-17015000D01*
X20915000Y-16985000D02*
X20885000Y-17015000D01*
X20945000Y-15505000D02*
X20975000Y-15535000D01*
X20975000Y-15505000D02*
X20945000Y-15535000D01*
X20945000Y-16925000D02*
X20975000Y-16955000D01*
X20975000Y-16925000D02*
X20945000Y-16955000D01*
X21005000Y-15105000D02*
X21035000Y-15135000D01*
X21035000Y-15105000D02*
X21005000Y-15135000D01*
X21005000Y-15285000D02*
X21035000Y-15315000D01*
X21035000Y-15285000D02*
X21005000Y-15315000D01*
X21005000Y-17005000D02*
X21035000Y-17035000D01*
X21035000Y-17005000D02*
X21005000Y-17035000D01*
X21035000Y-15645000D02*
X21065000Y-15675000D01*
X21065000Y-15645000D02*
X21035000Y-15675000D01*
X21245000Y-14905000D02*
X21275000Y-14935000D01*
X21275000Y-14905000D02*
X21245000Y-14935000D01*
X21360000Y-15645000D02*
X21390000Y-15675000D01*
X21390000Y-15645000D02*
X21360000Y-15675000D01*
X21445000Y-16665000D02*
X21475000Y-16695000D01*
X21475000Y-16665000D02*
X21445000Y-16695000D01*
X21525000Y-15705000D02*
X21555000Y-15735000D01*
X21555000Y-15705000D02*
X21525000Y-15735000D01*
X21525000Y-15825000D02*
X21555000Y-15855000D01*
X21555000Y-15825000D02*
X21525000Y-15855000D01*
X21545000Y-15555000D02*
X21575000Y-15585000D01*
X21575000Y-15555000D02*
X21545000Y-15585000D01*
X21565000Y-15385000D02*
X21595000Y-15415000D01*
X21595000Y-15385000D02*
X21565000Y-15415000D01*
X21565000Y-15465000D02*
X21595000Y-15495000D01*
X21595000Y-15465000D02*
X21565000Y-15495000D01*
X21582609Y-15767391D02*
X21612609Y-15797391D01*
X21612609Y-15767391D02*
X21582609Y-15797391D01*
X21585000Y-15645000D02*
X21615000Y-15675000D01*
X21615000Y-15645000D02*
X21585000Y-15675000D01*
X21585000Y-17005000D02*
X21615000Y-17035000D01*
X21615000Y-17005000D02*
X21585000Y-17035000D01*
X21645000Y-16685000D02*
X21675000Y-16715000D01*
X21675000Y-16685000D02*
X21645000Y-16715000D01*
X21745000Y-15385000D02*
X21775000Y-15415000D01*
X21775000Y-15385000D02*
X21745000Y-15415000D01*
X21765000Y-16685000D02*
X21795000Y-16715000D01*
X21795000Y-16685000D02*
X21765000Y-16715000D01*
X21785000Y-15545000D02*
X21815000Y-15575000D01*
X21815000Y-15545000D02*
X21785000Y-15575000D01*
X21846250Y-15343750D02*
X21876250Y-15373750D01*
X21876250Y-15343750D02*
X21846250Y-15373750D01*
X21885000Y-15665000D02*
X21915000Y-15695000D01*
X21915000Y-15665000D02*
X21885000Y-15695000D01*
X21905000Y-16075000D02*
X21935000Y-16105000D01*
X21935000Y-16075000D02*
X21905000Y-16105000D01*
X21965000Y-15665000D02*
X21995000Y-15695000D01*
X21995000Y-15665000D02*
X21965000Y-15695000D01*
X21965000Y-16745000D02*
X21995000Y-16775000D01*
X21995000Y-16745000D02*
X21965000Y-16775000D01*
X22085000Y-16075000D02*
X22115000Y-16105000D01*
X22115000Y-16075000D02*
X22085000Y-16105000D01*
X22125000Y-16745000D02*
X22155000Y-16775000D01*
X22155000Y-16745000D02*
X22125000Y-16775000D01*
X22145000Y-15625000D02*
X22175000Y-15655000D01*
X22175000Y-15625000D02*
X22145000Y-15655000D01*
X22205000Y-16745000D02*
X22235000Y-16775000D01*
X22235000Y-16745000D02*
X22205000Y-16775000D01*
X22225000Y-14825000D02*
X22255000Y-14855000D01*
X22255000Y-14825000D02*
X22225000Y-14855000D01*
X22225000Y-14985000D02*
X22255000Y-15015000D01*
X22255000Y-14985000D02*
X22225000Y-15015000D01*
X22225000Y-15125000D02*
X22255000Y-15155000D01*
X22255000Y-15125000D02*
X22225000Y-15155000D01*
X22225000Y-15625000D02*
X22255000Y-15655000D01*
X22255000Y-15625000D02*
X22225000Y-15655000D01*
X22285000Y-16075000D02*
X22315000Y-16105000D01*
X22315000Y-16075000D02*
X22285000Y-16105000D01*
X22285000Y-16745000D02*
X22315000Y-16775000D01*
X22315000Y-16745000D02*
X22285000Y-16775000D01*
X22365000Y-15384950D02*
X22395000Y-15414950D01*
X22395000Y-15384950D02*
X22365000Y-15414950D01*
X22365000Y-16745000D02*
X22395000Y-16775000D01*
X22395000Y-16745000D02*
X22365000Y-16775000D01*
X22365000Y-17005000D02*
X22395000Y-17035000D01*
X22395000Y-17005000D02*
X22365000Y-17035000D01*
X22405000Y-15295000D02*
X22435000Y-15325000D01*
X22435000Y-15295000D02*
X22405000Y-15325000D01*
X22445000Y-15385000D02*
X22475000Y-15415000D01*
X22475000Y-15385000D02*
X22445000Y-15415000D01*
X22445000Y-15875000D02*
X22475000Y-15905000D01*
X22475000Y-15875000D02*
X22445000Y-15905000D01*
X22445000Y-16075000D02*
X22475000Y-16105000D01*
X22475000Y-16075000D02*
X22445000Y-16105000D01*
X22445000Y-16445000D02*
X22475000Y-16475000D01*
X22475000Y-16445000D02*
X22445000Y-16475000D01*
X22445000Y-16745000D02*
X22475000Y-16775000D01*
X22475000Y-16745000D02*
X22445000Y-16775000D01*
X22465000Y-14825000D02*
X22495000Y-14855000D01*
X22495000Y-14825000D02*
X22465000Y-14855000D01*
X22525000Y-15385000D02*
X22555000Y-15415000D01*
X22555000Y-15385000D02*
X22525000Y-15415000D01*
X22525000Y-16445000D02*
X22555000Y-16475000D01*
X22555000Y-16445000D02*
X22525000Y-16475000D01*
X22525000Y-16745000D02*
X22555000Y-16775000D01*
X22555000Y-16745000D02*
X22525000Y-16775000D01*
X22525000Y-17005000D02*
X22555000Y-17035000D01*
X22555000Y-17005000D02*
X22525000Y-17035000D01*
X22565000Y-15295000D02*
X22595000Y-15325000D01*
X22595000Y-15295000D02*
X22565000Y-15325000D01*
X22605000Y-15385000D02*
X22635000Y-15415000D01*
X22635000Y-15385000D02*
X22605000Y-15415000D01*
X22605000Y-15875000D02*
X22635000Y-15905000D01*
X22635000Y-15875000D02*
X22605000Y-15905000D01*
X22605000Y-16075000D02*
X22635000Y-16105000D01*
X22635000Y-16075000D02*
X22605000Y-16105000D01*
X22605000Y-16445000D02*
X22635000Y-16475000D01*
X22635000Y-16445000D02*
X22605000Y-16475000D01*
X22605000Y-16745000D02*
X22635000Y-16775000D01*
X22635000Y-16745000D02*
X22605000Y-16775000D01*
X22625000Y-15695000D02*
X22655000Y-15725000D01*
X22655000Y-15695000D02*
X22625000Y-15725000D01*
X22685000Y-14825000D02*
X22715000Y-14855000D01*
X22715000Y-14825000D02*
X22685000Y-14855000D01*
X22685000Y-15385000D02*
X22715000Y-15415000D01*
X22715000Y-15385000D02*
X22685000Y-15415000D01*
X22685000Y-15635000D02*
X22715000Y-15665000D01*
X22715000Y-15635000D02*
X22685000Y-15665000D01*
X22725000Y-15295000D02*
X22755000Y-15325000D01*
X22755000Y-15295000D02*
X22725000Y-15325000D01*
X22805000Y-16565000D02*
X22835000Y-16595000D01*
X22835000Y-16565000D02*
X22805000Y-16595000D01*
X22805000Y-16685000D02*
X22835000Y-16715000D01*
X22835000Y-16685000D02*
X22805000Y-16715000D01*
X22905000Y-14825000D02*
X22935000Y-14855000D01*
X22935000Y-14825000D02*
X22905000Y-14855000D01*
X22925000Y-15185000D02*
X22955000Y-15215000D01*
X22955000Y-15185000D02*
X22925000Y-15215000D01*
X22985000Y-15805000D02*
X23015000Y-15835000D01*
X23015000Y-15805000D02*
X22985000Y-15835000D01*
X22985000Y-15885000D02*
X23015000Y-15915000D01*
X23015000Y-15885000D02*
X22985000Y-15915000D01*
X22985000Y-15965000D02*
X23015000Y-15995000D01*
X23015000Y-15965000D02*
X22985000Y-15995000D01*
X22985000Y-16045000D02*
X23015000Y-16075000D01*
X23015000Y-16045000D02*
X22985000Y-16075000D01*
X22985000Y-16125000D02*
X23015000Y-16155000D01*
X23015000Y-16125000D02*
X22985000Y-16155000D01*
X22985000Y-16205000D02*
X23015000Y-16235000D01*
X23015000Y-16205000D02*
X22985000Y-16235000D01*
X22985000Y-16285000D02*
X23015000Y-16315000D01*
X23015000Y-16285000D02*
X22985000Y-16315000D01*
X22985000Y-16365000D02*
X23015000Y-16395000D01*
X23015000Y-16365000D02*
X22985000Y-16395000D01*
X22985000Y-16445000D02*
X23015000Y-16475000D01*
X23015000Y-16445000D02*
X22985000Y-16475000D01*
X23105000Y-17005000D02*
X23135000Y-17035000D01*
X23135000Y-17005000D02*
X23105000Y-17035000D01*
X23115000Y-14985000D02*
X23145000Y-15015000D01*
X23145000Y-14985000D02*
X23115000Y-15015000D01*
X23115000Y-15125000D02*
X23145000Y-15155000D01*
X23145000Y-15125000D02*
X23115000Y-15155000D01*
X23165000Y-15645000D02*
X23195000Y-15675000D01*
X23195000Y-15645000D02*
X23165000Y-15675000D01*
X23165000Y-15805000D02*
X23195000Y-15835000D01*
X23195000Y-15805000D02*
X23165000Y-15835000D01*
X23165000Y-15965000D02*
X23195000Y-15995000D01*
X23195000Y-15965000D02*
X23165000Y-15995000D01*
X23165000Y-16125000D02*
X23195000Y-16155000D01*
X23195000Y-16125000D02*
X23165000Y-16155000D01*
X21708000Y-14956500D02*
G75*
G03*
X21708000Y-14956500I-15000J0D01*
G01*
X21708000Y-15083500D02*
G75*
G03*
X21708000Y-15083500I-15000J0D01*
G01*
X21835000Y-14956500D02*
G75*
G03*
X21835000Y-14956500I-15000J0D01*
G01*
X21835000Y-15083500D02*
G75*
G03*
X21835000Y-15083500I-15000J0D01*
G01*
X21962000Y-14956500D02*
G75*
G03*
X21962000Y-14956500I-15000J0D01*
G01*
X21962000Y-15083500D02*
G75*
G03*
X21962000Y-15083500I-15000J0D01*
G01*
D13*
X19320000Y-15040000D02*
X19320000Y-15080000D01*
X19300000Y-15060000D02*
X19340000Y-15060000D01*
X19320000Y-15600000D02*
X19320000Y-15640000D01*
X19300000Y-15620000D02*
X19340000Y-15620000D01*
X19620000Y-15480000D02*
X19620000Y-15520000D01*
X19600000Y-15500000D02*
X19640000Y-15500000D01*
X19700000Y-15560000D02*
X19700000Y-15600000D01*
X19680000Y-15580000D02*
X19720000Y-15580000D01*
X20260000Y-15560000D02*
X20260000Y-15600000D01*
X20240000Y-15580000D02*
X20280000Y-15580000D01*
X20360000Y-15505000D02*
X20360000Y-15545000D01*
X20340000Y-15525000D02*
X20380000Y-15525000D01*
X20620000Y-15680000D02*
X20620000Y-15720000D01*
X20600000Y-15700000D02*
X20640000Y-15700000D01*
X21260000Y-15000000D02*
X21260000Y-15040000D01*
X21240000Y-15020000D02*
X21280000Y-15020000D01*
X21760000Y-16840000D02*
X21760000Y-16880000D01*
X21740000Y-16860000D02*
X21780000Y-16860000D01*
X22180000Y-16840000D02*
X22180000Y-16880000D01*
X22160000Y-16860000D02*
X22200000Y-16860000D01*
D14*
X19589213Y-14941213D02*
X19589213Y-14898786D01*
X19546787Y-14898786D01*
X19546787Y-14941213D01*
X19589213Y-14941213D01*
D11*
X19548000Y-14890000D02*
X19548000Y-14950000D01*
X19588000Y-14890000D02*
X19588000Y-14950000D01*
X19548000Y-14950000D02*
G75*
G03*
X19588000Y-14950000I20000J0D01*
G01*
X19588000Y-14890000D02*
G75*
G03*
X19548000Y-14890000I-20000J0D01*
G01*
D14*
X19589213Y-15359213D02*
X19589213Y-15316786D01*
X19546787Y-15316786D01*
X19546787Y-15359213D01*
X19589213Y-15359213D01*
D11*
X19548000Y-15283000D02*
X19548000Y-15393000D01*
X19588000Y-15283000D02*
X19588000Y-15393000D01*
X19548000Y-15393000D02*
G75*
G03*
X19588000Y-15393000I20000J0D01*
G01*
X19588000Y-15283000D02*
G75*
G03*
X19548000Y-15283000I-20000J0D01*
G01*
D14*
X20453213Y-14941213D02*
X20453213Y-14898786D01*
X20410787Y-14898786D01*
X20410787Y-14941213D01*
X20453213Y-14941213D01*
D11*
X20412000Y-14890000D02*
X20412000Y-14950000D01*
X20452000Y-14890000D02*
X20452000Y-14950000D01*
X20412000Y-14950000D02*
G75*
G03*
X20452000Y-14950000I20000J0D01*
G01*
X20452000Y-14890000D02*
G75*
G03*
X20412000Y-14890000I-20000J0D01*
G01*
D14*
X20453213Y-15359213D02*
X20453213Y-15316786D01*
X20410787Y-15316786D01*
X20410787Y-15359213D01*
X20453213Y-15359213D01*
D11*
X20412000Y-15283000D02*
X20412000Y-15393000D01*
X20452000Y-15283000D02*
X20452000Y-15393000D01*
X20412000Y-15393000D02*
G75*
G03*
X20452000Y-15393000I20000J0D01*
G01*
X20452000Y-15283000D02*
G75*
G03*
X20412000Y-15283000I-20000J0D01*
G01*
D15*
X18700000Y-15435000D02*
X18810000Y-15325000D01*
X18700000Y-15215000D01*
X18590000Y-15325000D01*
X18700000Y-15435000D01*
D11*
X18005119Y-17487976D02*
X18005119Y-17287976D01*
X18052738Y-17287976D01*
X18081310Y-17297500D01*
X18100357Y-17316548D01*
X18109881Y-17335595D01*
X18119405Y-17373690D01*
X18119405Y-17402262D01*
X18109881Y-17440357D01*
X18100357Y-17459405D01*
X18081310Y-17478452D01*
X18052738Y-17487976D01*
X18005119Y-17487976D01*
X18205119Y-17487976D02*
X18205119Y-17354643D01*
X18205119Y-17392738D02*
X18214643Y-17373690D01*
X18224167Y-17364167D01*
X18243214Y-17354643D01*
X18262262Y-17354643D01*
X18328929Y-17487976D02*
X18328929Y-17354643D01*
X18328929Y-17287976D02*
X18319405Y-17297500D01*
X18328929Y-17307024D01*
X18338452Y-17297500D01*
X18328929Y-17287976D01*
X18328929Y-17307024D01*
X18452738Y-17487976D02*
X18433690Y-17478452D01*
X18424167Y-17459405D01*
X18424167Y-17287976D01*
X18557500Y-17487976D02*
X18538452Y-17478452D01*
X18528929Y-17459405D01*
X18528929Y-17287976D01*
X18786071Y-17487976D02*
X18786071Y-17287976D01*
X18852738Y-17430833D01*
X18919405Y-17287976D01*
X18919405Y-17487976D01*
X19100357Y-17487976D02*
X19100357Y-17383214D01*
X19090833Y-17364167D01*
X19071786Y-17354643D01*
X19033690Y-17354643D01*
X19014643Y-17364167D01*
X19100357Y-17478452D02*
X19081310Y-17487976D01*
X19033690Y-17487976D01*
X19014643Y-17478452D01*
X19005119Y-17459405D01*
X19005119Y-17440357D01*
X19014643Y-17421310D01*
X19033690Y-17411786D01*
X19081310Y-17411786D01*
X19100357Y-17402262D01*
X19195595Y-17354643D02*
X19195595Y-17554643D01*
X19195595Y-17364167D02*
X19214643Y-17354643D01*
X19252738Y-17354643D01*
X19271786Y-17364167D01*
X19281310Y-17373690D01*
X19290833Y-17392738D01*
X19290833Y-17449881D01*
X19281310Y-17468929D01*
X19271786Y-17478452D01*
X19252738Y-17487976D01*
X19214643Y-17487976D01*
X19195595Y-17478452D01*
X19376548Y-17468929D02*
X19386071Y-17478452D01*
X19376548Y-17487976D01*
X19367024Y-17478452D01*
X19376548Y-17468929D01*
X19376548Y-17487976D01*
X19376548Y-17364167D02*
X19386071Y-17373690D01*
X19376548Y-17383214D01*
X19367024Y-17373690D01*
X19376548Y-17364167D01*
X19376548Y-17383214D01*
D12*
X17717500Y-17802500D02*
X17747500Y-17832500D01*
X17747500Y-17802500D02*
X17717500Y-17832500D01*
D11*
X18043214Y-17707976D02*
X18062262Y-17707976D01*
X18081310Y-17717500D01*
X18090833Y-17727024D01*
X18100357Y-17746071D01*
X18109881Y-17784167D01*
X18109881Y-17831786D01*
X18100357Y-17869881D01*
X18090833Y-17888929D01*
X18081310Y-17898452D01*
X18062262Y-17907976D01*
X18043214Y-17907976D01*
X18024167Y-17898452D01*
X18014643Y-17888929D01*
X18005119Y-17869881D01*
X17995595Y-17831786D01*
X17995595Y-17784167D01*
X18005119Y-17746071D01*
X18014643Y-17727024D01*
X18024167Y-17717500D01*
X18043214Y-17707976D01*
X18195595Y-17888929D02*
X18205119Y-17898452D01*
X18195595Y-17907976D01*
X18186071Y-17898452D01*
X18195595Y-17888929D01*
X18195595Y-17907976D01*
X18271786Y-17707976D02*
X18395595Y-17707976D01*
X18328929Y-17784167D01*
X18357500Y-17784167D01*
X18376548Y-17793690D01*
X18386071Y-17803214D01*
X18395595Y-17822262D01*
X18395595Y-17869881D01*
X18386071Y-17888929D01*
X18376548Y-17898452D01*
X18357500Y-17907976D01*
X18300357Y-17907976D01*
X18281310Y-17898452D01*
X18271786Y-17888929D01*
X18519405Y-17707976D02*
X18538452Y-17707976D01*
X18557500Y-17717500D01*
X18567024Y-17727024D01*
X18576548Y-17746071D01*
X18586071Y-17784167D01*
X18586071Y-17831786D01*
X18576548Y-17869881D01*
X18567024Y-17888929D01*
X18557500Y-17898452D01*
X18538452Y-17907976D01*
X18519405Y-17907976D01*
X18500357Y-17898452D01*
X18490833Y-17888929D01*
X18481310Y-17869881D01*
X18471786Y-17831786D01*
X18471786Y-17784167D01*
X18481310Y-17746071D01*
X18490833Y-17727024D01*
X18500357Y-17717500D01*
X18519405Y-17707976D01*
X18709881Y-17707976D02*
X18728929Y-17707976D01*
X18747976Y-17717500D01*
X18757500Y-17727024D01*
X18767024Y-17746071D01*
X18776548Y-17784167D01*
X18776548Y-17831786D01*
X18767024Y-17869881D01*
X18757500Y-17888929D01*
X18747976Y-17898452D01*
X18728929Y-17907976D01*
X18709881Y-17907976D01*
X18690833Y-17898452D01*
X18681310Y-17888929D01*
X18671786Y-17869881D01*
X18662262Y-17831786D01*
X18662262Y-17784167D01*
X18671786Y-17746071D01*
X18681310Y-17727024D01*
X18690833Y-17717500D01*
X18709881Y-17707976D01*
X18862262Y-17907976D02*
X18862262Y-17774643D01*
X18862262Y-17793690D02*
X18871786Y-17784167D01*
X18890833Y-17774643D01*
X18919405Y-17774643D01*
X18938452Y-17784167D01*
X18947976Y-17803214D01*
X18947976Y-17907976D01*
X18947976Y-17803214D02*
X18957500Y-17784167D01*
X18976548Y-17774643D01*
X19005119Y-17774643D01*
X19024167Y-17784167D01*
X19033690Y-17803214D01*
X19033690Y-17907976D01*
X19128929Y-17907976D02*
X19128929Y-17774643D01*
X19128929Y-17793690D02*
X19138452Y-17784167D01*
X19157500Y-17774643D01*
X19186071Y-17774643D01*
X19205119Y-17784167D01*
X19214643Y-17803214D01*
X19214643Y-17907976D01*
X19214643Y-17803214D02*
X19224167Y-17784167D01*
X19243214Y-17774643D01*
X19271786Y-17774643D01*
X19290833Y-17784167D01*
X19300357Y-17803214D01*
X19300357Y-17907976D01*
X19690833Y-17698452D02*
X19519405Y-17955595D01*
X19947976Y-17707976D02*
X19967024Y-17707976D01*
X19986071Y-17717500D01*
X19995595Y-17727024D01*
X20005119Y-17746071D01*
X20014643Y-17784167D01*
X20014643Y-17831786D01*
X20005119Y-17869881D01*
X19995595Y-17888929D01*
X19986071Y-17898452D01*
X19967024Y-17907976D01*
X19947976Y-17907976D01*
X19928929Y-17898452D01*
X19919405Y-17888929D01*
X19909881Y-17869881D01*
X19900357Y-17831786D01*
X19900357Y-17784167D01*
X19909881Y-17746071D01*
X19919405Y-17727024D01*
X19928929Y-17717500D01*
X19947976Y-17707976D01*
X20100357Y-17888929D02*
X20109881Y-17898452D01*
X20100357Y-17907976D01*
X20090833Y-17898452D01*
X20100357Y-17888929D01*
X20100357Y-17907976D01*
X20233690Y-17707976D02*
X20252738Y-17707976D01*
X20271786Y-17717500D01*
X20281310Y-17727024D01*
X20290833Y-17746071D01*
X20300357Y-17784167D01*
X20300357Y-17831786D01*
X20290833Y-17869881D01*
X20281310Y-17888929D01*
X20271786Y-17898452D01*
X20252738Y-17907976D01*
X20233690Y-17907976D01*
X20214643Y-17898452D01*
X20205119Y-17888929D01*
X20195595Y-17869881D01*
X20186071Y-17831786D01*
X20186071Y-17784167D01*
X20195595Y-17746071D01*
X20205119Y-17727024D01*
X20214643Y-17717500D01*
X20233690Y-17707976D01*
X20490833Y-17907976D02*
X20376548Y-17907976D01*
X20433690Y-17907976D02*
X20433690Y-17707976D01*
X20414643Y-17736548D01*
X20395595Y-17755595D01*
X20376548Y-17765119D01*
X20681310Y-17907976D02*
X20567024Y-17907976D01*
X20624167Y-17907976D02*
X20624167Y-17707976D01*
X20605119Y-17736548D01*
X20586071Y-17755595D01*
X20567024Y-17765119D01*
X20795595Y-17793690D02*
X20776548Y-17784167D01*
X20767024Y-17774643D01*
X20757500Y-17755595D01*
X20757500Y-17746071D01*
X20767024Y-17727024D01*
X20776548Y-17717500D01*
X20795595Y-17707976D01*
X20833690Y-17707976D01*
X20852738Y-17717500D01*
X20862262Y-17727024D01*
X20871786Y-17746071D01*
X20871786Y-17755595D01*
X20862262Y-17774643D01*
X20852738Y-17784167D01*
X20833690Y-17793690D01*
X20795595Y-17793690D01*
X20776548Y-17803214D01*
X20767024Y-17812738D01*
X20757500Y-17831786D01*
X20757500Y-17869881D01*
X20767024Y-17888929D01*
X20776548Y-17898452D01*
X20795595Y-17907976D01*
X20833690Y-17907976D01*
X20852738Y-17898452D01*
X20862262Y-17888929D01*
X20871786Y-17869881D01*
X20871786Y-17831786D01*
X20862262Y-17812738D01*
X20852738Y-17803214D01*
X20833690Y-17793690D01*
X20947976Y-17707976D02*
X20947976Y-17746071D01*
X21024167Y-17707976D02*
X21024167Y-17746071D01*
X21319405Y-17984167D02*
X21309881Y-17974643D01*
X21290833Y-17946071D01*
X21281310Y-17927024D01*
X21271786Y-17898452D01*
X21262262Y-17850833D01*
X21262262Y-17812738D01*
X21271786Y-17765119D01*
X21281310Y-17736548D01*
X21290833Y-17717500D01*
X21309881Y-17688929D01*
X21319405Y-17679405D01*
X21500357Y-17907976D02*
X21386071Y-17907976D01*
X21443214Y-17907976D02*
X21443214Y-17707976D01*
X21424167Y-17736548D01*
X21405119Y-17755595D01*
X21386071Y-17765119D01*
X21681310Y-17707976D02*
X21586071Y-17707976D01*
X21576548Y-17803214D01*
X21586071Y-17793690D01*
X21605119Y-17784167D01*
X21652738Y-17784167D01*
X21671786Y-17793690D01*
X21681310Y-17803214D01*
X21690833Y-17822262D01*
X21690833Y-17869881D01*
X21681310Y-17888929D01*
X21671786Y-17898452D01*
X21652738Y-17907976D01*
X21605119Y-17907976D01*
X21586071Y-17898452D01*
X21576548Y-17888929D01*
X21862262Y-17774643D02*
X21862262Y-17907976D01*
X21814643Y-17698452D02*
X21767024Y-17841310D01*
X21890833Y-17841310D01*
X22119405Y-17907976D02*
X22119405Y-17707976D01*
X22205119Y-17907976D02*
X22205119Y-17803214D01*
X22195595Y-17784167D01*
X22176548Y-17774643D01*
X22147976Y-17774643D01*
X22128929Y-17784167D01*
X22119405Y-17793690D01*
X22328929Y-17907976D02*
X22309881Y-17898452D01*
X22300357Y-17888929D01*
X22290833Y-17869881D01*
X22290833Y-17812738D01*
X22300357Y-17793690D01*
X22309881Y-17784167D01*
X22328929Y-17774643D01*
X22357500Y-17774643D01*
X22376548Y-17784167D01*
X22386071Y-17793690D01*
X22395595Y-17812738D01*
X22395595Y-17869881D01*
X22386071Y-17888929D01*
X22376548Y-17898452D01*
X22357500Y-17907976D01*
X22328929Y-17907976D01*
X22509881Y-17907976D02*
X22490833Y-17898452D01*
X22481309Y-17879405D01*
X22481309Y-17707976D01*
X22662262Y-17898452D02*
X22643214Y-17907976D01*
X22605119Y-17907976D01*
X22586071Y-17898452D01*
X22576548Y-17879405D01*
X22576548Y-17803214D01*
X22586071Y-17784167D01*
X22605119Y-17774643D01*
X22643214Y-17774643D01*
X22662262Y-17784167D01*
X22671786Y-17803214D01*
X22671786Y-17822262D01*
X22576548Y-17841310D01*
X22747976Y-17898452D02*
X22767024Y-17907976D01*
X22805119Y-17907976D01*
X22824167Y-17898452D01*
X22833690Y-17879405D01*
X22833690Y-17869881D01*
X22824167Y-17850833D01*
X22805119Y-17841310D01*
X22776548Y-17841310D01*
X22757500Y-17831786D01*
X22747976Y-17812738D01*
X22747976Y-17803214D01*
X22757500Y-17784167D01*
X22776548Y-17774643D01*
X22805119Y-17774643D01*
X22824167Y-17784167D01*
X22900357Y-17984167D02*
X22909881Y-17974643D01*
X22928928Y-17946071D01*
X22938452Y-17927024D01*
X22947976Y-17898452D01*
X22957500Y-17850833D01*
X22957500Y-17812738D01*
X22947976Y-17765119D01*
X22938452Y-17736548D01*
X22928928Y-17717500D01*
X22909881Y-17688929D01*
X22900357Y-17679405D01*
D12*
X17747500Y-18081500D02*
G75*
G03*
X17747500Y-18081500I-15000J0D01*
G01*
D11*
X18043214Y-17971976D02*
X18062262Y-17971976D01*
X18081310Y-17981500D01*
X18090833Y-17991024D01*
X18100357Y-18010071D01*
X18109881Y-18048167D01*
X18109881Y-18095786D01*
X18100357Y-18133881D01*
X18090833Y-18152929D01*
X18081310Y-18162452D01*
X18062262Y-18171976D01*
X18043214Y-18171976D01*
X18024167Y-18162452D01*
X18014643Y-18152929D01*
X18005119Y-18133881D01*
X17995595Y-18095786D01*
X17995595Y-18048167D01*
X18005119Y-18010071D01*
X18014643Y-17991024D01*
X18024167Y-17981500D01*
X18043214Y-17971976D01*
X18195595Y-18152929D02*
X18205119Y-18162452D01*
X18195595Y-18171976D01*
X18186071Y-18162452D01*
X18195595Y-18152929D01*
X18195595Y-18171976D01*
X18271786Y-17971976D02*
X18395595Y-17971976D01*
X18328929Y-18048167D01*
X18357500Y-18048167D01*
X18376548Y-18057690D01*
X18386071Y-18067214D01*
X18395595Y-18086262D01*
X18395595Y-18133881D01*
X18386071Y-18152929D01*
X18376548Y-18162452D01*
X18357500Y-18171976D01*
X18300357Y-18171976D01*
X18281310Y-18162452D01*
X18271786Y-18152929D01*
X18519405Y-17971976D02*
X18538452Y-17971976D01*
X18557500Y-17981500D01*
X18567024Y-17991024D01*
X18576548Y-18010071D01*
X18586071Y-18048167D01*
X18586071Y-18095786D01*
X18576548Y-18133881D01*
X18567024Y-18152929D01*
X18557500Y-18162452D01*
X18538452Y-18171976D01*
X18519405Y-18171976D01*
X18500357Y-18162452D01*
X18490833Y-18152929D01*
X18481310Y-18133881D01*
X18471786Y-18095786D01*
X18471786Y-18048167D01*
X18481310Y-18010071D01*
X18490833Y-17991024D01*
X18500357Y-17981500D01*
X18519405Y-17971976D01*
X18709881Y-17971976D02*
X18728929Y-17971976D01*
X18747976Y-17981500D01*
X18757500Y-17991024D01*
X18767024Y-18010071D01*
X18776548Y-18048167D01*
X18776548Y-18095786D01*
X18767024Y-18133881D01*
X18757500Y-18152929D01*
X18747976Y-18162452D01*
X18728929Y-18171976D01*
X18709881Y-18171976D01*
X18690833Y-18162452D01*
X18681310Y-18152929D01*
X18671786Y-18133881D01*
X18662262Y-18095786D01*
X18662262Y-18048167D01*
X18671786Y-18010071D01*
X18681310Y-17991024D01*
X18690833Y-17981500D01*
X18709881Y-17971976D01*
X18862262Y-18171976D02*
X18862262Y-18038643D01*
X18862262Y-18057690D02*
X18871786Y-18048167D01*
X18890833Y-18038643D01*
X18919405Y-18038643D01*
X18938452Y-18048167D01*
X18947976Y-18067214D01*
X18947976Y-18171976D01*
X18947976Y-18067214D02*
X18957500Y-18048167D01*
X18976548Y-18038643D01*
X19005119Y-18038643D01*
X19024167Y-18048167D01*
X19033690Y-18067214D01*
X19033690Y-18171976D01*
X19128929Y-18171976D02*
X19128929Y-18038643D01*
X19128929Y-18057690D02*
X19138452Y-18048167D01*
X19157500Y-18038643D01*
X19186071Y-18038643D01*
X19205119Y-18048167D01*
X19214643Y-18067214D01*
X19214643Y-18171976D01*
X19214643Y-18067214D02*
X19224167Y-18048167D01*
X19243214Y-18038643D01*
X19271786Y-18038643D01*
X19290833Y-18048167D01*
X19300357Y-18067214D01*
X19300357Y-18171976D01*
X19690833Y-17962452D02*
X19519405Y-18219595D01*
X19947976Y-17971976D02*
X19967024Y-17971976D01*
X19986071Y-17981500D01*
X19995595Y-17991024D01*
X20005119Y-18010071D01*
X20014643Y-18048167D01*
X20014643Y-18095786D01*
X20005119Y-18133881D01*
X19995595Y-18152929D01*
X19986071Y-18162452D01*
X19967024Y-18171976D01*
X19947976Y-18171976D01*
X19928929Y-18162452D01*
X19919405Y-18152929D01*
X19909881Y-18133881D01*
X19900357Y-18095786D01*
X19900357Y-18048167D01*
X19909881Y-18010071D01*
X19919405Y-17991024D01*
X19928929Y-17981500D01*
X19947976Y-17971976D01*
X20100357Y-18152929D02*
X20109881Y-18162452D01*
X20100357Y-18171976D01*
X20090833Y-18162452D01*
X20100357Y-18152929D01*
X20100357Y-18171976D01*
X20233690Y-17971976D02*
X20252738Y-17971976D01*
X20271786Y-17981500D01*
X20281310Y-17991024D01*
X20290833Y-18010071D01*
X20300357Y-18048167D01*
X20300357Y-18095786D01*
X20290833Y-18133881D01*
X20281310Y-18152929D01*
X20271786Y-18162452D01*
X20252738Y-18171976D01*
X20233690Y-18171976D01*
X20214643Y-18162452D01*
X20205119Y-18152929D01*
X20195595Y-18133881D01*
X20186071Y-18095786D01*
X20186071Y-18048167D01*
X20195595Y-18010071D01*
X20205119Y-17991024D01*
X20214643Y-17981500D01*
X20233690Y-17971976D01*
X20490833Y-18171976D02*
X20376548Y-18171976D01*
X20433690Y-18171976D02*
X20433690Y-17971976D01*
X20414643Y-18000548D01*
X20395595Y-18019595D01*
X20376548Y-18029119D01*
X20681310Y-18171976D02*
X20567024Y-18171976D01*
X20624167Y-18171976D02*
X20624167Y-17971976D01*
X20605119Y-18000548D01*
X20586071Y-18019595D01*
X20567024Y-18029119D01*
X20795595Y-18057690D02*
X20776548Y-18048167D01*
X20767024Y-18038643D01*
X20757500Y-18019595D01*
X20757500Y-18010071D01*
X20767024Y-17991024D01*
X20776548Y-17981500D01*
X20795595Y-17971976D01*
X20833690Y-17971976D01*
X20852738Y-17981500D01*
X20862262Y-17991024D01*
X20871786Y-18010071D01*
X20871786Y-18019595D01*
X20862262Y-18038643D01*
X20852738Y-18048167D01*
X20833690Y-18057690D01*
X20795595Y-18057690D01*
X20776548Y-18067214D01*
X20767024Y-18076738D01*
X20757500Y-18095786D01*
X20757500Y-18133881D01*
X20767024Y-18152929D01*
X20776548Y-18162452D01*
X20795595Y-18171976D01*
X20833690Y-18171976D01*
X20852738Y-18162452D01*
X20862262Y-18152929D01*
X20871786Y-18133881D01*
X20871786Y-18095786D01*
X20862262Y-18076738D01*
X20852738Y-18067214D01*
X20833690Y-18057690D01*
X20947976Y-17971976D02*
X20947976Y-18010071D01*
X21024167Y-17971976D02*
X21024167Y-18010071D01*
X21319405Y-18248167D02*
X21309881Y-18238643D01*
X21290833Y-18210071D01*
X21281310Y-18191024D01*
X21271786Y-18162452D01*
X21262262Y-18114833D01*
X21262262Y-18076738D01*
X21271786Y-18029119D01*
X21281310Y-18000548D01*
X21290833Y-17981500D01*
X21309881Y-17952929D01*
X21319405Y-17943405D01*
X21481310Y-17971976D02*
X21443214Y-17971976D01*
X21424167Y-17981500D01*
X21414643Y-17991024D01*
X21395595Y-18019595D01*
X21386071Y-18057690D01*
X21386071Y-18133881D01*
X21395595Y-18152929D01*
X21405119Y-18162452D01*
X21424167Y-18171976D01*
X21462262Y-18171976D01*
X21481310Y-18162452D01*
X21490833Y-18152929D01*
X21500357Y-18133881D01*
X21500357Y-18086262D01*
X21490833Y-18067214D01*
X21481310Y-18057690D01*
X21462262Y-18048167D01*
X21424167Y-18048167D01*
X21405119Y-18057690D01*
X21395595Y-18067214D01*
X21386071Y-18086262D01*
X21738452Y-18171976D02*
X21738452Y-17971976D01*
X21824167Y-18171976D02*
X21824167Y-18067214D01*
X21814643Y-18048167D01*
X21795595Y-18038643D01*
X21767024Y-18038643D01*
X21747976Y-18048167D01*
X21738452Y-18057690D01*
X21947976Y-18171976D02*
X21928929Y-18162452D01*
X21919405Y-18152929D01*
X21909881Y-18133881D01*
X21909881Y-18076738D01*
X21919405Y-18057690D01*
X21928929Y-18048167D01*
X21947976Y-18038643D01*
X21976548Y-18038643D01*
X21995595Y-18048167D01*
X22005119Y-18057690D01*
X22014643Y-18076738D01*
X22014643Y-18133881D01*
X22005119Y-18152929D01*
X21995595Y-18162452D01*
X21976548Y-18171976D01*
X21947976Y-18171976D01*
X22128929Y-18171976D02*
X22109881Y-18162452D01*
X22100357Y-18143405D01*
X22100357Y-17971976D01*
X22281310Y-18162452D02*
X22262262Y-18171976D01*
X22224167Y-18171976D01*
X22205119Y-18162452D01*
X22195595Y-18143405D01*
X22195595Y-18067214D01*
X22205119Y-18048167D01*
X22224167Y-18038643D01*
X22262262Y-18038643D01*
X22281310Y-18048167D01*
X22290833Y-18067214D01*
X22290833Y-18086262D01*
X22195595Y-18105310D01*
X22367024Y-18162452D02*
X22386071Y-18171976D01*
X22424167Y-18171976D01*
X22443214Y-18162452D01*
X22452738Y-18143405D01*
X22452738Y-18133881D01*
X22443214Y-18114833D01*
X22424167Y-18105310D01*
X22395595Y-18105310D01*
X22376548Y-18095786D01*
X22367024Y-18076738D01*
X22367024Y-18067214D01*
X22376548Y-18048167D01*
X22395595Y-18038643D01*
X22424167Y-18038643D01*
X22443214Y-18048167D01*
X22519405Y-18248167D02*
X22528928Y-18238643D01*
X22547976Y-18210071D01*
X22557500Y-18191024D01*
X22567024Y-18162452D01*
X22576548Y-18114833D01*
X22576548Y-18076738D01*
X22567024Y-18029119D01*
X22557500Y-18000548D01*
X22547976Y-17981500D01*
X22528928Y-17952929D01*
X22519405Y-17943405D01*
D13*
X17727500Y-18325500D02*
X17727500Y-18365500D01*
X17707500Y-18345500D02*
X17747500Y-18345500D01*
D11*
X18043214Y-18235976D02*
X18062262Y-18235976D01*
X18081310Y-18245500D01*
X18090833Y-18255024D01*
X18100357Y-18274071D01*
X18109881Y-18312167D01*
X18109881Y-18359786D01*
X18100357Y-18397881D01*
X18090833Y-18416929D01*
X18081310Y-18426452D01*
X18062262Y-18435976D01*
X18043214Y-18435976D01*
X18024167Y-18426452D01*
X18014643Y-18416929D01*
X18005119Y-18397881D01*
X17995595Y-18359786D01*
X17995595Y-18312167D01*
X18005119Y-18274071D01*
X18014643Y-18255024D01*
X18024167Y-18245500D01*
X18043214Y-18235976D01*
X18195595Y-18416929D02*
X18205119Y-18426452D01*
X18195595Y-18435976D01*
X18186071Y-18426452D01*
X18195595Y-18416929D01*
X18195595Y-18435976D01*
X18376548Y-18302643D02*
X18376548Y-18435976D01*
X18328929Y-18226452D02*
X18281310Y-18369310D01*
X18405119Y-18369310D01*
X18519405Y-18235976D02*
X18538452Y-18235976D01*
X18557500Y-18245500D01*
X18567024Y-18255024D01*
X18576548Y-18274071D01*
X18586071Y-18312167D01*
X18586071Y-18359786D01*
X18576548Y-18397881D01*
X18567024Y-18416929D01*
X18557500Y-18426452D01*
X18538452Y-18435976D01*
X18519405Y-18435976D01*
X18500357Y-18426452D01*
X18490833Y-18416929D01*
X18481310Y-18397881D01*
X18471786Y-18359786D01*
X18471786Y-18312167D01*
X18481310Y-18274071D01*
X18490833Y-18255024D01*
X18500357Y-18245500D01*
X18519405Y-18235976D01*
X18709881Y-18235976D02*
X18728929Y-18235976D01*
X18747976Y-18245500D01*
X18757500Y-18255024D01*
X18767024Y-18274071D01*
X18776548Y-18312167D01*
X18776548Y-18359786D01*
X18767024Y-18397881D01*
X18757500Y-18416929D01*
X18747976Y-18426452D01*
X18728929Y-18435976D01*
X18709881Y-18435976D01*
X18690833Y-18426452D01*
X18681310Y-18416929D01*
X18671786Y-18397881D01*
X18662262Y-18359786D01*
X18662262Y-18312167D01*
X18671786Y-18274071D01*
X18681310Y-18255024D01*
X18690833Y-18245500D01*
X18709881Y-18235976D01*
X18862262Y-18435976D02*
X18862262Y-18302643D01*
X18862262Y-18321690D02*
X18871786Y-18312167D01*
X18890833Y-18302643D01*
X18919405Y-18302643D01*
X18938452Y-18312167D01*
X18947976Y-18331214D01*
X18947976Y-18435976D01*
X18947976Y-18331214D02*
X18957500Y-18312167D01*
X18976548Y-18302643D01*
X19005119Y-18302643D01*
X19024167Y-18312167D01*
X19033690Y-18331214D01*
X19033690Y-18435976D01*
X19128929Y-18435976D02*
X19128929Y-18302643D01*
X19128929Y-18321690D02*
X19138452Y-18312167D01*
X19157500Y-18302643D01*
X19186071Y-18302643D01*
X19205119Y-18312167D01*
X19214643Y-18331214D01*
X19214643Y-18435976D01*
X19214643Y-18331214D02*
X19224167Y-18312167D01*
X19243214Y-18302643D01*
X19271786Y-18302643D01*
X19290833Y-18312167D01*
X19300357Y-18331214D01*
X19300357Y-18435976D01*
X19690833Y-18226452D02*
X19519405Y-18483595D01*
X19947976Y-18235976D02*
X19967024Y-18235976D01*
X19986071Y-18245500D01*
X19995595Y-18255024D01*
X20005119Y-18274071D01*
X20014643Y-18312167D01*
X20014643Y-18359786D01*
X20005119Y-18397881D01*
X19995595Y-18416929D01*
X19986071Y-18426452D01*
X19967024Y-18435976D01*
X19947976Y-18435976D01*
X19928929Y-18426452D01*
X19919405Y-18416929D01*
X19909881Y-18397881D01*
X19900357Y-18359786D01*
X19900357Y-18312167D01*
X19909881Y-18274071D01*
X19919405Y-18255024D01*
X19928929Y-18245500D01*
X19947976Y-18235976D01*
X20100357Y-18416929D02*
X20109881Y-18426452D01*
X20100357Y-18435976D01*
X20090833Y-18426452D01*
X20100357Y-18416929D01*
X20100357Y-18435976D01*
X20233690Y-18235976D02*
X20252738Y-18235976D01*
X20271786Y-18245500D01*
X20281310Y-18255024D01*
X20290833Y-18274071D01*
X20300357Y-18312167D01*
X20300357Y-18359786D01*
X20290833Y-18397881D01*
X20281310Y-18416929D01*
X20271786Y-18426452D01*
X20252738Y-18435976D01*
X20233690Y-18435976D01*
X20214643Y-18426452D01*
X20205119Y-18416929D01*
X20195595Y-18397881D01*
X20186071Y-18359786D01*
X20186071Y-18312167D01*
X20195595Y-18274071D01*
X20205119Y-18255024D01*
X20214643Y-18245500D01*
X20233690Y-18235976D01*
X20490833Y-18435976D02*
X20376548Y-18435976D01*
X20433690Y-18435976D02*
X20433690Y-18235976D01*
X20414643Y-18264548D01*
X20395595Y-18283595D01*
X20376548Y-18293119D01*
X20671786Y-18235976D02*
X20576548Y-18235976D01*
X20567024Y-18331214D01*
X20576548Y-18321690D01*
X20595595Y-18312167D01*
X20643214Y-18312167D01*
X20662262Y-18321690D01*
X20671786Y-18331214D01*
X20681310Y-18350262D01*
X20681310Y-18397881D01*
X20671786Y-18416929D01*
X20662262Y-18426452D01*
X20643214Y-18435976D01*
X20595595Y-18435976D01*
X20576548Y-18426452D01*
X20567024Y-18416929D01*
X20747976Y-18235976D02*
X20881310Y-18235976D01*
X20795595Y-18435976D01*
X20947976Y-18235976D02*
X20947976Y-18274071D01*
X21024167Y-18235976D02*
X21024167Y-18274071D01*
X21319405Y-18512167D02*
X21309881Y-18502643D01*
X21290833Y-18474071D01*
X21281310Y-18455024D01*
X21271786Y-18426452D01*
X21262262Y-18378833D01*
X21262262Y-18340738D01*
X21271786Y-18293119D01*
X21281310Y-18264548D01*
X21290833Y-18245500D01*
X21309881Y-18216929D01*
X21319405Y-18207405D01*
X21500357Y-18435976D02*
X21386071Y-18435976D01*
X21443214Y-18435976D02*
X21443214Y-18235976D01*
X21424167Y-18264548D01*
X21405119Y-18283595D01*
X21386071Y-18293119D01*
X21624167Y-18235976D02*
X21643214Y-18235976D01*
X21662262Y-18245500D01*
X21671786Y-18255024D01*
X21681310Y-18274071D01*
X21690833Y-18312167D01*
X21690833Y-18359786D01*
X21681310Y-18397881D01*
X21671786Y-18416929D01*
X21662262Y-18426452D01*
X21643214Y-18435976D01*
X21624167Y-18435976D01*
X21605119Y-18426452D01*
X21595595Y-18416929D01*
X21586071Y-18397881D01*
X21576548Y-18359786D01*
X21576548Y-18312167D01*
X21586071Y-18274071D01*
X21595595Y-18255024D01*
X21605119Y-18245500D01*
X21624167Y-18235976D01*
X21928929Y-18435976D02*
X21928929Y-18235976D01*
X22014643Y-18435976D02*
X22014643Y-18331214D01*
X22005119Y-18312167D01*
X21986071Y-18302643D01*
X21957500Y-18302643D01*
X21938452Y-18312167D01*
X21928929Y-18321690D01*
X22138452Y-18435976D02*
X22119405Y-18426452D01*
X22109881Y-18416929D01*
X22100357Y-18397881D01*
X22100357Y-18340738D01*
X22109881Y-18321690D01*
X22119405Y-18312167D01*
X22138452Y-18302643D01*
X22167024Y-18302643D01*
X22186071Y-18312167D01*
X22195595Y-18321690D01*
X22205119Y-18340738D01*
X22205119Y-18397881D01*
X22195595Y-18416929D01*
X22186071Y-18426452D01*
X22167024Y-18435976D01*
X22138452Y-18435976D01*
X22319405Y-18435976D02*
X22300357Y-18426452D01*
X22290833Y-18407405D01*
X22290833Y-18235976D01*
X22471786Y-18426452D02*
X22452738Y-18435976D01*
X22414643Y-18435976D01*
X22395595Y-18426452D01*
X22386071Y-18407405D01*
X22386071Y-18331214D01*
X22395595Y-18312167D01*
X22414643Y-18302643D01*
X22452738Y-18302643D01*
X22471786Y-18312167D01*
X22481309Y-18331214D01*
X22481309Y-18350262D01*
X22386071Y-18369310D01*
X22557500Y-18426452D02*
X22576548Y-18435976D01*
X22614643Y-18435976D01*
X22633690Y-18426452D01*
X22643214Y-18407405D01*
X22643214Y-18397881D01*
X22633690Y-18378833D01*
X22614643Y-18369310D01*
X22586071Y-18369310D01*
X22567024Y-18359786D01*
X22557500Y-18340738D01*
X22557500Y-18331214D01*
X22567024Y-18312167D01*
X22586071Y-18302643D01*
X22614643Y-18302643D01*
X22633690Y-18312167D01*
X22709881Y-18512167D02*
X22719405Y-18502643D01*
X22738452Y-18474071D01*
X22747976Y-18455024D01*
X22757500Y-18426452D01*
X22767024Y-18378833D01*
X22767024Y-18340738D01*
X22757500Y-18293119D01*
X22747976Y-18264548D01*
X22738452Y-18245500D01*
X22719405Y-18216929D01*
X22709881Y-18207405D01*
D14*
X17738713Y-18630713D02*
X17738713Y-18588287D01*
X17696287Y-18588287D01*
X17696287Y-18630713D01*
X17738713Y-18630713D01*
D11*
X18043214Y-18499976D02*
X18062262Y-18499976D01*
X18081310Y-18509500D01*
X18090833Y-18519024D01*
X18100357Y-18538071D01*
X18109881Y-18576167D01*
X18109881Y-18623786D01*
X18100357Y-18661881D01*
X18090833Y-18680929D01*
X18081310Y-18690452D01*
X18062262Y-18699976D01*
X18043214Y-18699976D01*
X18024167Y-18690452D01*
X18014643Y-18680929D01*
X18005119Y-18661881D01*
X17995595Y-18623786D01*
X17995595Y-18576167D01*
X18005119Y-18538071D01*
X18014643Y-18519024D01*
X18024167Y-18509500D01*
X18043214Y-18499976D01*
X18195595Y-18680929D02*
X18205119Y-18690452D01*
X18195595Y-18699976D01*
X18186071Y-18690452D01*
X18195595Y-18680929D01*
X18195595Y-18699976D01*
X18376548Y-18499976D02*
X18338452Y-18499976D01*
X18319405Y-18509500D01*
X18309881Y-18519024D01*
X18290833Y-18547595D01*
X18281310Y-18585690D01*
X18281310Y-18661881D01*
X18290833Y-18680929D01*
X18300357Y-18690452D01*
X18319405Y-18699976D01*
X18357500Y-18699976D01*
X18376548Y-18690452D01*
X18386071Y-18680929D01*
X18395595Y-18661881D01*
X18395595Y-18614262D01*
X18386071Y-18595214D01*
X18376548Y-18585690D01*
X18357500Y-18576167D01*
X18319405Y-18576167D01*
X18300357Y-18585690D01*
X18290833Y-18595214D01*
X18281310Y-18614262D01*
X18519405Y-18499976D02*
X18538452Y-18499976D01*
X18557500Y-18509500D01*
X18567024Y-18519024D01*
X18576548Y-18538071D01*
X18586071Y-18576167D01*
X18586071Y-18623786D01*
X18576548Y-18661881D01*
X18567024Y-18680929D01*
X18557500Y-18690452D01*
X18538452Y-18699976D01*
X18519405Y-18699976D01*
X18500357Y-18690452D01*
X18490833Y-18680929D01*
X18481310Y-18661881D01*
X18471786Y-18623786D01*
X18471786Y-18576167D01*
X18481310Y-18538071D01*
X18490833Y-18519024D01*
X18500357Y-18509500D01*
X18519405Y-18499976D01*
X18709881Y-18499976D02*
X18728929Y-18499976D01*
X18747976Y-18509500D01*
X18757500Y-18519024D01*
X18767024Y-18538071D01*
X18776548Y-18576167D01*
X18776548Y-18623786D01*
X18767024Y-18661881D01*
X18757500Y-18680929D01*
X18747976Y-18690452D01*
X18728929Y-18699976D01*
X18709881Y-18699976D01*
X18690833Y-18690452D01*
X18681310Y-18680929D01*
X18671786Y-18661881D01*
X18662262Y-18623786D01*
X18662262Y-18576167D01*
X18671786Y-18538071D01*
X18681310Y-18519024D01*
X18690833Y-18509500D01*
X18709881Y-18499976D01*
X18862262Y-18699976D02*
X18862262Y-18566643D01*
X18862262Y-18585690D02*
X18871786Y-18576167D01*
X18890833Y-18566643D01*
X18919405Y-18566643D01*
X18938452Y-18576167D01*
X18947976Y-18595214D01*
X18947976Y-18699976D01*
X18947976Y-18595214D02*
X18957500Y-18576167D01*
X18976548Y-18566643D01*
X19005119Y-18566643D01*
X19024167Y-18576167D01*
X19033690Y-18595214D01*
X19033690Y-18699976D01*
X19128929Y-18699976D02*
X19128929Y-18566643D01*
X19128929Y-18585690D02*
X19138452Y-18576167D01*
X19157500Y-18566643D01*
X19186071Y-18566643D01*
X19205119Y-18576167D01*
X19214643Y-18595214D01*
X19214643Y-18699976D01*
X19214643Y-18595214D02*
X19224167Y-18576167D01*
X19243214Y-18566643D01*
X19271786Y-18566643D01*
X19290833Y-18576167D01*
X19300357Y-18595214D01*
X19300357Y-18699976D01*
X19690833Y-18490452D02*
X19519405Y-18747595D01*
X19947976Y-18499976D02*
X19967024Y-18499976D01*
X19986071Y-18509500D01*
X19995595Y-18519024D01*
X20005119Y-18538071D01*
X20014643Y-18576167D01*
X20014643Y-18623786D01*
X20005119Y-18661881D01*
X19995595Y-18680929D01*
X19986071Y-18690452D01*
X19967024Y-18699976D01*
X19947976Y-18699976D01*
X19928929Y-18690452D01*
X19919405Y-18680929D01*
X19909881Y-18661881D01*
X19900357Y-18623786D01*
X19900357Y-18576167D01*
X19909881Y-18538071D01*
X19919405Y-18519024D01*
X19928929Y-18509500D01*
X19947976Y-18499976D01*
X20100357Y-18680929D02*
X20109881Y-18690452D01*
X20100357Y-18699976D01*
X20090833Y-18690452D01*
X20100357Y-18680929D01*
X20100357Y-18699976D01*
X20233690Y-18499976D02*
X20252738Y-18499976D01*
X20271786Y-18509500D01*
X20281310Y-18519024D01*
X20290833Y-18538071D01*
X20300357Y-18576167D01*
X20300357Y-18623786D01*
X20290833Y-18661881D01*
X20281310Y-18680929D01*
X20271786Y-18690452D01*
X20252738Y-18699976D01*
X20233690Y-18699976D01*
X20214643Y-18690452D01*
X20205119Y-18680929D01*
X20195595Y-18661881D01*
X20186071Y-18623786D01*
X20186071Y-18576167D01*
X20195595Y-18538071D01*
X20205119Y-18519024D01*
X20214643Y-18509500D01*
X20233690Y-18499976D01*
X20376548Y-18519024D02*
X20386071Y-18509500D01*
X20405119Y-18499976D01*
X20452738Y-18499976D01*
X20471786Y-18509500D01*
X20481310Y-18519024D01*
X20490833Y-18538071D01*
X20490833Y-18557119D01*
X20481310Y-18585690D01*
X20367024Y-18699976D01*
X20490833Y-18699976D01*
X20557500Y-18499976D02*
X20681310Y-18499976D01*
X20614643Y-18576167D01*
X20643214Y-18576167D01*
X20662262Y-18585690D01*
X20671786Y-18595214D01*
X20681310Y-18614262D01*
X20681310Y-18661881D01*
X20671786Y-18680929D01*
X20662262Y-18690452D01*
X20643214Y-18699976D01*
X20586071Y-18699976D01*
X20567024Y-18690452D01*
X20557500Y-18680929D01*
X20852738Y-18499976D02*
X20814643Y-18499976D01*
X20795595Y-18509500D01*
X20786071Y-18519024D01*
X20767024Y-18547595D01*
X20757500Y-18585690D01*
X20757500Y-18661881D01*
X20767024Y-18680929D01*
X20776548Y-18690452D01*
X20795595Y-18699976D01*
X20833690Y-18699976D01*
X20852738Y-18690452D01*
X20862262Y-18680929D01*
X20871786Y-18661881D01*
X20871786Y-18614262D01*
X20862262Y-18595214D01*
X20852738Y-18585690D01*
X20833690Y-18576167D01*
X20795595Y-18576167D01*
X20776548Y-18585690D01*
X20767024Y-18595214D01*
X20757500Y-18614262D01*
X20947976Y-18499976D02*
X20947976Y-18538071D01*
X21024167Y-18499976D02*
X21024167Y-18538071D01*
X21319405Y-18776167D02*
X21309881Y-18766643D01*
X21290833Y-18738071D01*
X21281310Y-18719024D01*
X21271786Y-18690452D01*
X21262262Y-18642833D01*
X21262262Y-18604738D01*
X21271786Y-18557119D01*
X21281310Y-18528548D01*
X21290833Y-18509500D01*
X21309881Y-18480929D01*
X21319405Y-18471405D01*
X21433690Y-18499976D02*
X21452738Y-18499976D01*
X21471786Y-18509500D01*
X21481310Y-18519024D01*
X21490833Y-18538071D01*
X21500357Y-18576167D01*
X21500357Y-18623786D01*
X21490833Y-18661881D01*
X21481310Y-18680929D01*
X21471786Y-18690452D01*
X21452738Y-18699976D01*
X21433690Y-18699976D01*
X21414643Y-18690452D01*
X21405119Y-18680929D01*
X21395595Y-18661881D01*
X21386071Y-18623786D01*
X21386071Y-18576167D01*
X21395595Y-18538071D01*
X21405119Y-18519024D01*
X21414643Y-18509500D01*
X21433690Y-18499976D01*
X21738452Y-18699976D02*
X21738452Y-18499976D01*
X21824167Y-18699976D02*
X21824167Y-18595214D01*
X21814643Y-18576167D01*
X21795595Y-18566643D01*
X21767024Y-18566643D01*
X21747976Y-18576167D01*
X21738452Y-18585690D01*
X21947976Y-18699976D02*
X21928929Y-18690452D01*
X21919405Y-18680929D01*
X21909881Y-18661881D01*
X21909881Y-18604738D01*
X21919405Y-18585690D01*
X21928929Y-18576167D01*
X21947976Y-18566643D01*
X21976548Y-18566643D01*
X21995595Y-18576167D01*
X22005119Y-18585690D01*
X22014643Y-18604738D01*
X22014643Y-18661881D01*
X22005119Y-18680929D01*
X21995595Y-18690452D01*
X21976548Y-18699976D01*
X21947976Y-18699976D01*
X22128929Y-18699976D02*
X22109881Y-18690452D01*
X22100357Y-18671405D01*
X22100357Y-18499976D01*
X22281310Y-18690452D02*
X22262262Y-18699976D01*
X22224167Y-18699976D01*
X22205119Y-18690452D01*
X22195595Y-18671405D01*
X22195595Y-18595214D01*
X22205119Y-18576167D01*
X22224167Y-18566643D01*
X22262262Y-18566643D01*
X22281310Y-18576167D01*
X22290833Y-18595214D01*
X22290833Y-18614262D01*
X22195595Y-18633310D01*
X22367024Y-18690452D02*
X22386071Y-18699976D01*
X22424167Y-18699976D01*
X22443214Y-18690452D01*
X22452738Y-18671405D01*
X22452738Y-18661881D01*
X22443214Y-18642833D01*
X22424167Y-18633310D01*
X22395595Y-18633310D01*
X22376548Y-18623786D01*
X22367024Y-18604738D01*
X22367024Y-18595214D01*
X22376548Y-18576167D01*
X22395595Y-18566643D01*
X22424167Y-18566643D01*
X22443214Y-18576167D01*
X22690833Y-18623786D02*
X22843214Y-18623786D01*
X22767024Y-18699976D02*
X22767024Y-18547595D01*
X23176548Y-18566643D02*
X23176548Y-18699976D01*
X23128928Y-18490452D02*
X23081309Y-18633310D01*
X23205119Y-18633310D01*
X23424167Y-18690452D02*
X23443214Y-18699976D01*
X23481309Y-18699976D01*
X23500357Y-18690452D01*
X23509881Y-18671405D01*
X23509881Y-18661881D01*
X23500357Y-18642833D01*
X23481309Y-18633310D01*
X23452738Y-18633310D01*
X23433690Y-18623786D01*
X23424167Y-18604738D01*
X23424167Y-18595214D01*
X23433690Y-18576167D01*
X23452738Y-18566643D01*
X23481309Y-18566643D01*
X23500357Y-18576167D01*
X23624167Y-18699976D02*
X23605119Y-18690452D01*
X23595595Y-18671405D01*
X23595595Y-18499976D01*
X23728928Y-18699976D02*
X23709881Y-18690452D01*
X23700357Y-18680929D01*
X23690833Y-18661881D01*
X23690833Y-18604738D01*
X23700357Y-18585690D01*
X23709881Y-18576167D01*
X23728928Y-18566643D01*
X23757500Y-18566643D01*
X23776548Y-18576167D01*
X23786071Y-18585690D01*
X23795595Y-18604738D01*
X23795595Y-18661881D01*
X23786071Y-18680929D01*
X23776548Y-18690452D01*
X23757500Y-18699976D01*
X23728928Y-18699976D01*
X23852738Y-18566643D02*
X23928928Y-18566643D01*
X23881309Y-18499976D02*
X23881309Y-18671405D01*
X23890833Y-18690452D01*
X23909881Y-18699976D01*
X23928928Y-18699976D01*
X23986071Y-18690452D02*
X24005119Y-18699976D01*
X24043214Y-18699976D01*
X24062262Y-18690452D01*
X24071786Y-18671405D01*
X24071786Y-18661881D01*
X24062262Y-18642833D01*
X24043214Y-18633310D01*
X24014643Y-18633310D01*
X23995595Y-18623786D01*
X23986071Y-18604738D01*
X23986071Y-18595214D01*
X23995595Y-18576167D01*
X24014643Y-18566643D01*
X24043214Y-18566643D01*
X24062262Y-18576167D01*
X24138452Y-18776167D02*
X24147976Y-18766643D01*
X24167024Y-18738071D01*
X24176548Y-18719024D01*
X24186071Y-18690452D01*
X24195595Y-18642833D01*
X24195595Y-18604738D01*
X24186071Y-18557119D01*
X24176548Y-18528548D01*
X24167024Y-18509500D01*
X24147976Y-18480929D01*
X24138452Y-18471405D01*
X17647500Y-18973500D02*
X17747500Y-18873500D01*
X17647500Y-18773500D01*
X17547500Y-18873500D01*
X17647500Y-18973500D01*
X17995595Y-18783024D02*
X18005119Y-18773500D01*
X18024167Y-18763976D01*
X18071786Y-18763976D01*
X18090833Y-18773500D01*
X18100357Y-18783024D01*
X18109881Y-18802071D01*
X18109881Y-18821119D01*
X18100357Y-18849690D01*
X17986071Y-18963976D01*
X18109881Y-18963976D01*
X18195595Y-18944929D02*
X18205119Y-18954452D01*
X18195595Y-18963976D01*
X18186071Y-18954452D01*
X18195595Y-18944929D01*
X18195595Y-18963976D01*
X18281310Y-18783024D02*
X18290833Y-18773500D01*
X18309881Y-18763976D01*
X18357500Y-18763976D01*
X18376548Y-18773500D01*
X18386071Y-18783024D01*
X18395595Y-18802071D01*
X18395595Y-18821119D01*
X18386071Y-18849690D01*
X18271786Y-18963976D01*
X18395595Y-18963976D01*
X18519405Y-18763976D02*
X18538452Y-18763976D01*
X18557500Y-18773500D01*
X18567024Y-18783024D01*
X18576548Y-18802071D01*
X18586071Y-18840167D01*
X18586071Y-18887786D01*
X18576548Y-18925881D01*
X18567024Y-18944929D01*
X18557500Y-18954452D01*
X18538452Y-18963976D01*
X18519405Y-18963976D01*
X18500357Y-18954452D01*
X18490833Y-18944929D01*
X18481310Y-18925881D01*
X18471786Y-18887786D01*
X18471786Y-18840167D01*
X18481310Y-18802071D01*
X18490833Y-18783024D01*
X18500357Y-18773500D01*
X18519405Y-18763976D01*
X18709881Y-18763976D02*
X18728929Y-18763976D01*
X18747976Y-18773500D01*
X18757500Y-18783024D01*
X18767024Y-18802071D01*
X18776548Y-18840167D01*
X18776548Y-18887786D01*
X18767024Y-18925881D01*
X18757500Y-18944929D01*
X18747976Y-18954452D01*
X18728929Y-18963976D01*
X18709881Y-18963976D01*
X18690833Y-18954452D01*
X18681310Y-18944929D01*
X18671786Y-18925881D01*
X18662262Y-18887786D01*
X18662262Y-18840167D01*
X18671786Y-18802071D01*
X18681310Y-18783024D01*
X18690833Y-18773500D01*
X18709881Y-18763976D01*
X18862262Y-18963976D02*
X18862262Y-18830643D01*
X18862262Y-18849690D02*
X18871786Y-18840167D01*
X18890833Y-18830643D01*
X18919405Y-18830643D01*
X18938452Y-18840167D01*
X18947976Y-18859214D01*
X18947976Y-18963976D01*
X18947976Y-18859214D02*
X18957500Y-18840167D01*
X18976548Y-18830643D01*
X19005119Y-18830643D01*
X19024167Y-18840167D01*
X19033690Y-18859214D01*
X19033690Y-18963976D01*
X19128929Y-18963976D02*
X19128929Y-18830643D01*
X19128929Y-18849690D02*
X19138452Y-18840167D01*
X19157500Y-18830643D01*
X19186071Y-18830643D01*
X19205119Y-18840167D01*
X19214643Y-18859214D01*
X19214643Y-18963976D01*
X19214643Y-18859214D02*
X19224167Y-18840167D01*
X19243214Y-18830643D01*
X19271786Y-18830643D01*
X19290833Y-18840167D01*
X19300357Y-18859214D01*
X19300357Y-18963976D01*
X19690833Y-18754452D02*
X19519405Y-19011595D01*
X19947976Y-18763976D02*
X19967024Y-18763976D01*
X19986071Y-18773500D01*
X19995595Y-18783024D01*
X20005119Y-18802071D01*
X20014643Y-18840167D01*
X20014643Y-18887786D01*
X20005119Y-18925881D01*
X19995595Y-18944929D01*
X19986071Y-18954452D01*
X19967024Y-18963976D01*
X19947976Y-18963976D01*
X19928929Y-18954452D01*
X19919405Y-18944929D01*
X19909881Y-18925881D01*
X19900357Y-18887786D01*
X19900357Y-18840167D01*
X19909881Y-18802071D01*
X19919405Y-18783024D01*
X19928929Y-18773500D01*
X19947976Y-18763976D01*
X20100357Y-18944929D02*
X20109881Y-18954452D01*
X20100357Y-18963976D01*
X20090833Y-18954452D01*
X20100357Y-18944929D01*
X20100357Y-18963976D01*
X20233690Y-18763976D02*
X20252738Y-18763976D01*
X20271786Y-18773500D01*
X20281310Y-18783024D01*
X20290833Y-18802071D01*
X20300357Y-18840167D01*
X20300357Y-18887786D01*
X20290833Y-18925881D01*
X20281310Y-18944929D01*
X20271786Y-18954452D01*
X20252738Y-18963976D01*
X20233690Y-18963976D01*
X20214643Y-18954452D01*
X20205119Y-18944929D01*
X20195595Y-18925881D01*
X20186071Y-18887786D01*
X20186071Y-18840167D01*
X20195595Y-18802071D01*
X20205119Y-18783024D01*
X20214643Y-18773500D01*
X20233690Y-18763976D01*
X20414643Y-18849690D02*
X20395595Y-18840167D01*
X20386071Y-18830643D01*
X20376548Y-18811595D01*
X20376548Y-18802071D01*
X20386071Y-18783024D01*
X20395595Y-18773500D01*
X20414643Y-18763976D01*
X20452738Y-18763976D01*
X20471786Y-18773500D01*
X20481310Y-18783024D01*
X20490833Y-18802071D01*
X20490833Y-18811595D01*
X20481310Y-18830643D01*
X20471786Y-18840167D01*
X20452738Y-18849690D01*
X20414643Y-18849690D01*
X20395595Y-18859214D01*
X20386071Y-18868738D01*
X20376548Y-18887786D01*
X20376548Y-18925881D01*
X20386071Y-18944929D01*
X20395595Y-18954452D01*
X20414643Y-18963976D01*
X20452738Y-18963976D01*
X20471786Y-18954452D01*
X20481310Y-18944929D01*
X20490833Y-18925881D01*
X20490833Y-18887786D01*
X20481310Y-18868738D01*
X20471786Y-18859214D01*
X20452738Y-18849690D01*
X20662262Y-18763976D02*
X20624167Y-18763976D01*
X20605119Y-18773500D01*
X20595595Y-18783024D01*
X20576548Y-18811595D01*
X20567024Y-18849690D01*
X20567024Y-18925881D01*
X20576548Y-18944929D01*
X20586071Y-18954452D01*
X20605119Y-18963976D01*
X20643214Y-18963976D01*
X20662262Y-18954452D01*
X20671786Y-18944929D01*
X20681310Y-18925881D01*
X20681310Y-18878262D01*
X20671786Y-18859214D01*
X20662262Y-18849690D01*
X20643214Y-18840167D01*
X20605119Y-18840167D01*
X20586071Y-18849690D01*
X20576548Y-18859214D01*
X20567024Y-18878262D01*
X20852738Y-18763976D02*
X20814643Y-18763976D01*
X20795595Y-18773500D01*
X20786071Y-18783024D01*
X20767024Y-18811595D01*
X20757500Y-18849690D01*
X20757500Y-18925881D01*
X20767024Y-18944929D01*
X20776548Y-18954452D01*
X20795595Y-18963976D01*
X20833690Y-18963976D01*
X20852738Y-18954452D01*
X20862262Y-18944929D01*
X20871786Y-18925881D01*
X20871786Y-18878262D01*
X20862262Y-18859214D01*
X20852738Y-18849690D01*
X20833690Y-18840167D01*
X20795595Y-18840167D01*
X20776548Y-18849690D01*
X20767024Y-18859214D01*
X20757500Y-18878262D01*
X20947976Y-18763976D02*
X20947976Y-18802071D01*
X21024167Y-18763976D02*
X21024167Y-18802071D01*
X21319405Y-19040167D02*
X21309881Y-19030643D01*
X21290833Y-19002071D01*
X21281310Y-18983024D01*
X21271786Y-18954452D01*
X21262262Y-18906833D01*
X21262262Y-18868738D01*
X21271786Y-18821119D01*
X21281310Y-18792548D01*
X21290833Y-18773500D01*
X21309881Y-18744929D01*
X21319405Y-18735405D01*
X21500357Y-18963976D02*
X21386071Y-18963976D01*
X21443214Y-18963976D02*
X21443214Y-18763976D01*
X21424167Y-18792548D01*
X21405119Y-18811595D01*
X21386071Y-18821119D01*
X21738452Y-18963976D02*
X21738452Y-18763976D01*
X21824167Y-18963976D02*
X21824167Y-18859214D01*
X21814643Y-18840167D01*
X21795595Y-18830643D01*
X21767024Y-18830643D01*
X21747976Y-18840167D01*
X21738452Y-18849690D01*
X21947976Y-18963976D02*
X21928929Y-18954452D01*
X21919405Y-18944929D01*
X21909881Y-18925881D01*
X21909881Y-18868738D01*
X21919405Y-18849690D01*
X21928929Y-18840167D01*
X21947976Y-18830643D01*
X21976548Y-18830643D01*
X21995595Y-18840167D01*
X22005119Y-18849690D01*
X22014643Y-18868738D01*
X22014643Y-18925881D01*
X22005119Y-18944929D01*
X21995595Y-18954452D01*
X21976548Y-18963976D01*
X21947976Y-18963976D01*
X22128929Y-18963976D02*
X22109881Y-18954452D01*
X22100357Y-18935405D01*
X22100357Y-18763976D01*
X22281310Y-18954452D02*
X22262262Y-18963976D01*
X22224167Y-18963976D01*
X22205119Y-18954452D01*
X22195595Y-18935405D01*
X22195595Y-18859214D01*
X22205119Y-18840167D01*
X22224167Y-18830643D01*
X22262262Y-18830643D01*
X22281310Y-18840167D01*
X22290833Y-18859214D01*
X22290833Y-18878262D01*
X22195595Y-18897310D01*
X22357500Y-19040167D02*
X22367024Y-19030643D01*
X22386071Y-19002071D01*
X22395595Y-18983024D01*
X22405119Y-18954452D01*
X22414643Y-18906833D01*
X22414643Y-18868738D01*
X22405119Y-18821119D01*
X22395595Y-18792548D01*
X22386071Y-18773500D01*
X22367024Y-18744929D01*
X22357500Y-18735405D01*
M02*
