M48
; DRILL file {KiCad (6.0.4-0)} date 2022 April 22, Friday 14:06:35
; FORMAT={-:-/ absolute / metric / decimal}
; #@! TF.CreationDate,2022-04-22T14:06:35+09:00
; #@! TF.GenerationSoftware,Kicad,Pcbnew,(6.0.4-0)
; #@! TF.FileFunction,Plated,1,2,PTH
FMAT,2
METRIC
; #@! TA.AperFunction,Plated,PTH,ViaDrill
T1C0.300
; #@! TA.AperFunction,Plated,PTH,ComponentDrill
T2C0.300
; #@! TA.AperFunction,Plated,PTH,ViaDrill
T3C0.400
; #@! TA.AperFunction,Plated,PTH,ComponentDrill
T4C0.600
; #@! TA.AperFunction,Plated,PTH,ComponentDrill
T5C2.200
%
G90
G05
T1
X185.8Y-150.0
X185.8Y-157.0
X185.8Y-161.0
X186.8Y-149.0
X189.8Y-149.0
X189.8Y-170.5
X191.0Y-157.0
X191.6Y-161.0
X191.6Y-166.4
X192.2Y-168.8
X192.2Y-169.8
X193.2Y-169.8
X193.8Y-149.0
X193.8Y-169.2
X194.4Y-164.0
X194.4Y-165.4
X194.4Y-168.4
X194.4Y-170.2
X195.2Y-169.8
X195.8Y-169.2
X196.4Y-169.8
X196.6Y-157.2
X196.6Y-158.8
X196.75Y-159.75
X197.0Y-169.2
X197.2Y-164.0
X197.2Y-165.4
X197.6Y-169.8
X198.4Y-156.4
X198.8Y-149.0
X198.8Y-152.5
X199.0Y-155.8
X199.0Y-157.0
X199.0Y-158.0
X199.6Y-156.4
X199.8Y-158.8
X199.8Y-169.8
X200.4Y-155.8
X200.6Y-169.8
X200.8Y-158.8
X201.0Y-156.4
X201.25Y-159.75
X201.3Y-149.0
X201.3Y-152.5
X201.4Y-162.3
X201.4Y-164.5
X201.6Y-155.8
X202.0Y-163.8
X202.0Y-165.2
X203.0Y-165.6
X203.5Y-159.7
X203.6Y-165.0
X204.2Y-164.4
X204.6Y-158.8
X204.8Y-163.8
X205.2Y-169.8
X205.5Y-148.5
X205.5Y-157.8
X205.5Y-158.4
X206.0Y-169.4
X206.6Y-153.0
X206.6Y-154.6
X206.6Y-170.0
X207.005Y-156.598
X207.2Y-169.4
X207.8Y-170.0
X208.0Y-156.6
X208.0Y-157.2
X208.2Y-151.2
X208.2Y-153.0
X208.2Y-154.6
X208.4Y-169.4
X209.0Y-170.0
X209.6Y-155.2
X209.6Y-169.4
X210.2Y-151.2
X210.2Y-153.0
X210.2Y-170.2
X210.5Y-156.6
X212.6Y-149.2
X213.75Y-156.6
X214.6Y-166.8
X215.4Y-157.2
X215.4Y-158.4
X215.6Y-155.7
X215.8Y-154.0
X215.8Y-154.8
X215.976Y-157.824
X216.0Y-156.6
X216.0Y-170.2
X216.6Y-167.0
X217.6Y-154.0
X217.8Y-167.0
X218.0Y-155.6
X218.612Y-153.588
X219.0Y-156.8
X219.2Y-160.9
X219.8Y-156.8
X219.8Y-167.6
X221.0Y-160.9
X221.4Y-167.6
X221.6Y-156.4
X222.2Y-167.6
X222.4Y-148.4
X222.4Y-150.0
X222.4Y-151.4
X222.4Y-156.4
X223.0Y-160.9
X223.0Y-167.6
X223.8Y-154.0
X223.8Y-167.6
X223.8Y-170.2
X224.2Y-153.1
X224.6Y-154.0
X224.6Y-158.9
X224.6Y-160.9
X224.6Y-164.6
X224.6Y-167.6
X224.8Y-148.4
X225.4Y-154.0
X225.4Y-164.6
X225.4Y-167.6
X225.4Y-170.2
X225.8Y-153.1
X226.2Y-154.0
X226.2Y-158.9
X226.2Y-160.9
X226.2Y-164.6
X226.2Y-167.6
X226.4Y-157.1
X227.0Y-148.4
X227.0Y-154.0
X227.0Y-156.5
X227.4Y-153.1
X228.2Y-165.8
X228.2Y-167.0
X229.2Y-148.4
X229.4Y-152.0
X230.0Y-158.2
X230.0Y-159.0
X230.0Y-159.8
X230.0Y-160.6
X230.0Y-161.4
X230.0Y-162.2
X230.0Y-163.0
X230.0Y-163.8
X230.0Y-164.6
X231.2Y-170.2
X231.3Y-150.0
X231.3Y-151.4
X231.8Y-156.6
X231.8Y-158.2
X231.8Y-159.8
X231.8Y-161.4
T2
X216.93Y-149.565
X216.93Y-150.835
X218.2Y-149.565
X218.2Y-150.835
X219.47Y-149.565
X219.47Y-150.835
T3
X193.2Y-150.6
X193.2Y-156.2
X196.2Y-155.0
X197.0Y-155.8
X202.6Y-155.8
X203.6Y-155.25
X206.2Y-157.0
X212.6Y-150.2
X217.6Y-168.6
X221.8Y-168.6
T5
X187.0Y-153.25
T4
X195.68Y-148.9G85X195.68Y-149.5
G05
X195.68Y-152.83G85X195.68Y-153.93
G05
X204.32Y-148.9G85X204.32Y-149.5
G05
X204.32Y-152.83G85X204.32Y-153.93
G05
T0
M30
