G04 #@! TF.GenerationSoftware,KiCad,Pcbnew,(6.0.4-0)*
G04 #@! TF.CreationDate,2022-04-22T14:06:04+09:00*
G04 #@! TF.ProjectId,mcupcb,6d637570-6362-42e6-9b69-6361645f7063,rev?*
G04 #@! TF.SameCoordinates,Original*
G04 #@! TF.FileFunction,Soldermask,Top*
G04 #@! TF.FilePolarity,Negative*
%FSLAX46Y46*%
G04 Gerber Fmt 4.6, Leading zero omitted, Abs format (unit mm)*
G04 Created by KiCad (PCBNEW (6.0.4-0)) date 2022-04-22 14:06:04*
%MOMM*%
%LPD*%
G01*
G04 APERTURE LIST*
%ADD10C,0.500000*%
%ADD11C,1.500000*%
%ADD12C,2.200000*%
%ADD13C,0.650000*%
%ADD14O,1.000000X2.100000*%
%ADD15O,1.000000X1.600000*%
%ADD16C,4.000000*%
%ADD17C,0.990600*%
G04 APERTURE END LIST*
D10*
X185250000Y-142250000D03*
X185250000Y-144250000D03*
X185250000Y-141250000D03*
X185250000Y-143250000D03*
X185250000Y-145250000D03*
X208500000Y-148500000D03*
X209500000Y-148500000D03*
X207500000Y-148500000D03*
D11*
X219450000Y-155200000D03*
D10*
X231750000Y-141250000D03*
X231750000Y-142250000D03*
X231750000Y-143250000D03*
X231750000Y-144250000D03*
X231750000Y-145250000D03*
X231750000Y-164750000D03*
X231750000Y-163750000D03*
X231750000Y-162750000D03*
D11*
X219400000Y-152600000D03*
D10*
X185250000Y-163750000D03*
X185250000Y-164750000D03*
X185250000Y-162750000D03*
D12*
X187000000Y-169250000D03*
X213000000Y-169250000D03*
X213000000Y-153250000D03*
D13*
X197110000Y-152849999D03*
X202890000Y-152849999D03*
D14*
X195680000Y-153379999D03*
X204320000Y-153379999D03*
D15*
X195680000Y-149199999D03*
X204320000Y-149199999D03*
D16*
X187000000Y-153250000D03*
D17*
X220740000Y-151216000D03*
X220740000Y-149184000D03*
X215660000Y-150200000D03*
D10*
X216930000Y-149565000D03*
X216930000Y-150835000D03*
X218200000Y-149565000D03*
X218200000Y-150835000D03*
X219470000Y-149565000D03*
X219470000Y-150835000D03*
M02*
