G04 #@! TF.GenerationSoftware,KiCad,Pcbnew,(6.0.4-0)*
G04 #@! TF.CreationDate,2022-04-22T14:06:04+09:00*
G04 #@! TF.ProjectId,mcupcb,6d637570-6362-42e6-9b69-6361645f7063,rev?*
G04 #@! TF.SameCoordinates,Original*
G04 #@! TF.FileFunction,Legend,Top*
G04 #@! TF.FilePolarity,Positive*
%FSLAX46Y46*%
G04 Gerber Fmt 4.6, Leading zero omitted, Abs format (unit mm)*
G04 Created by KiCad (PCBNEW (6.0.4-0)) date 2022-04-22 14:06:04*
%MOMM*%
%LPD*%
G01*
G04 APERTURE LIST*
%ADD10C,0.120000*%
%ADD11C,0.150000*%
%ADD12C,0.010000*%
%ADD13C,0.500000*%
%ADD14C,1.500000*%
%ADD15C,2.200000*%
%ADD16C,0.650000*%
%ADD17O,1.000000X2.100000*%
%ADD18O,1.000000X1.600000*%
%ADD19C,4.000000*%
%ADD20C,0.990600*%
G04 APERTURE END LIST*
D10*
G36*
X187000000Y-156750000D02*
G01*
X186600000Y-156350000D01*
X187400000Y-156350000D01*
X187000000Y-156750000D01*
G37*
X187000000Y-156750000D02*
X186600000Y-156350000D01*
X187400000Y-156350000D01*
X187000000Y-156750000D01*
X192300000Y-170500000D02*
X192300000Y-162750000D01*
X207800000Y-162750000D02*
X192300000Y-162750000D01*
X207800000Y-170500000D02*
X207800000Y-162750000D01*
X187000000Y-155750000D02*
X187000000Y-156750000D01*
D11*
X192640357Y-163252380D02*
X193259404Y-163252380D01*
X192926071Y-163633333D01*
X193068928Y-163633333D01*
X193164166Y-163680952D01*
X193211785Y-163728571D01*
X193259404Y-163823809D01*
X193259404Y-164061904D01*
X193211785Y-164157142D01*
X193164166Y-164204761D01*
X193068928Y-164252380D01*
X192783214Y-164252380D01*
X192687976Y-164204761D01*
X192640357Y-164157142D01*
X193878452Y-163252380D02*
X193973690Y-163252380D01*
X194068928Y-163300000D01*
X194116547Y-163347619D01*
X194164166Y-163442857D01*
X194211785Y-163633333D01*
X194211785Y-163871428D01*
X194164166Y-164061904D01*
X194116547Y-164157142D01*
X194068928Y-164204761D01*
X193973690Y-164252380D01*
X193878452Y-164252380D01*
X193783214Y-164204761D01*
X193735595Y-164157142D01*
X193687976Y-164061904D01*
X193640357Y-163871428D01*
X193640357Y-163633333D01*
X193687976Y-163442857D01*
X193735595Y-163347619D01*
X193783214Y-163300000D01*
X193878452Y-163252380D01*
X211283452Y-160452380D02*
X211283452Y-159452380D01*
X211854880Y-160452380D02*
X211426309Y-159880952D01*
X211854880Y-159452380D02*
X211283452Y-160023809D01*
X212283452Y-159928571D02*
X212616785Y-159928571D01*
X212759642Y-160452380D02*
X212283452Y-160452380D01*
X212283452Y-159452380D01*
X212759642Y-159452380D01*
X213378690Y-159976190D02*
X213378690Y-160452380D01*
X213045357Y-159452380D02*
X213378690Y-159976190D01*
X213712023Y-159452380D01*
X214378690Y-159928571D02*
X214521547Y-159976190D01*
X214569166Y-160023809D01*
X214616785Y-160119047D01*
X214616785Y-160261904D01*
X214569166Y-160357142D01*
X214521547Y-160404761D01*
X214426309Y-160452380D01*
X214045357Y-160452380D01*
X214045357Y-159452380D01*
X214378690Y-159452380D01*
X214473928Y-159500000D01*
X214521547Y-159547619D01*
X214569166Y-159642857D01*
X214569166Y-159738095D01*
X214521547Y-159833333D01*
X214473928Y-159880952D01*
X214378690Y-159928571D01*
X214045357Y-159928571D01*
X215235833Y-159452380D02*
X215426309Y-159452380D01*
X215521547Y-159500000D01*
X215616785Y-159595238D01*
X215664404Y-159785714D01*
X215664404Y-160119047D01*
X215616785Y-160309523D01*
X215521547Y-160404761D01*
X215426309Y-160452380D01*
X215235833Y-160452380D01*
X215140595Y-160404761D01*
X215045357Y-160309523D01*
X214997738Y-160119047D01*
X214997738Y-159785714D01*
X215045357Y-159595238D01*
X215140595Y-159500000D01*
X215235833Y-159452380D01*
X216045357Y-160166666D02*
X216521547Y-160166666D01*
X215950119Y-160452380D02*
X216283452Y-159452380D01*
X216616785Y-160452380D01*
X217521547Y-160452380D02*
X217188214Y-159976190D01*
X216950119Y-160452380D02*
X216950119Y-159452380D01*
X217331071Y-159452380D01*
X217426309Y-159500000D01*
X217473928Y-159547619D01*
X217521547Y-159642857D01*
X217521547Y-159785714D01*
X217473928Y-159880952D01*
X217426309Y-159928571D01*
X217331071Y-159976190D01*
X216950119Y-159976190D01*
X217950119Y-160452380D02*
X217950119Y-159452380D01*
X218188214Y-159452380D01*
X218331071Y-159500000D01*
X218426309Y-159595238D01*
X218473928Y-159690476D01*
X218521547Y-159880952D01*
X218521547Y-160023809D01*
X218473928Y-160214285D01*
X218426309Y-160309523D01*
X218331071Y-160404761D01*
X218188214Y-160452380D01*
X217950119Y-160452380D01*
X220283452Y-160357142D02*
X220235833Y-160404761D01*
X220092976Y-160452380D01*
X219997738Y-160452380D01*
X219854880Y-160404761D01*
X219759642Y-160309523D01*
X219712023Y-160214285D01*
X219664404Y-160023809D01*
X219664404Y-159880952D01*
X219712023Y-159690476D01*
X219759642Y-159595238D01*
X219854880Y-159500000D01*
X219997738Y-159452380D01*
X220092976Y-159452380D01*
X220235833Y-159500000D01*
X220283452Y-159547619D01*
X220902500Y-159452380D02*
X221092976Y-159452380D01*
X221188214Y-159500000D01*
X221283452Y-159595238D01*
X221331071Y-159785714D01*
X221331071Y-160119047D01*
X221283452Y-160309523D01*
X221188214Y-160404761D01*
X221092976Y-160452380D01*
X220902500Y-160452380D01*
X220807261Y-160404761D01*
X220712023Y-160309523D01*
X220664404Y-160119047D01*
X220664404Y-159785714D01*
X220712023Y-159595238D01*
X220807261Y-159500000D01*
X220902500Y-159452380D01*
X221759642Y-160452380D02*
X221759642Y-159452380D01*
X222331071Y-160452380D01*
X222331071Y-159452380D01*
X222664404Y-159452380D02*
X223235833Y-159452380D01*
X222950119Y-160452380D02*
X222950119Y-159452380D01*
X224140595Y-160452380D02*
X223807261Y-159976190D01*
X223569166Y-160452380D02*
X223569166Y-159452380D01*
X223950119Y-159452380D01*
X224045357Y-159500000D01*
X224092976Y-159547619D01*
X224140595Y-159642857D01*
X224140595Y-159785714D01*
X224092976Y-159880952D01*
X224045357Y-159928571D01*
X223950119Y-159976190D01*
X223569166Y-159976190D01*
X224759642Y-159452380D02*
X224950119Y-159452380D01*
X225045357Y-159500000D01*
X225140595Y-159595238D01*
X225188214Y-159785714D01*
X225188214Y-160119047D01*
X225140595Y-160309523D01*
X225045357Y-160404761D01*
X224950119Y-160452380D01*
X224759642Y-160452380D01*
X224664404Y-160404761D01*
X224569166Y-160309523D01*
X224521547Y-160119047D01*
X224521547Y-159785714D01*
X224569166Y-159595238D01*
X224664404Y-159500000D01*
X224759642Y-159452380D01*
X226092976Y-160452380D02*
X225616785Y-160452380D01*
X225616785Y-159452380D01*
X226902500Y-160452380D02*
X226426309Y-160452380D01*
X226426309Y-159452380D01*
X227235833Y-159928571D02*
X227569166Y-159928571D01*
X227712023Y-160452380D02*
X227235833Y-160452380D01*
X227235833Y-159452380D01*
X227712023Y-159452380D01*
X228712023Y-160452380D02*
X228378690Y-159976190D01*
X228140595Y-160452380D02*
X228140595Y-159452380D01*
X228521547Y-159452380D01*
X228616785Y-159500000D01*
X228664404Y-159547619D01*
X228712023Y-159642857D01*
X228712023Y-159785714D01*
X228664404Y-159880952D01*
X228616785Y-159928571D01*
X228521547Y-159976190D01*
X228140595Y-159976190D01*
X207312023Y-164252380D02*
X206740595Y-164252380D01*
X207026309Y-164252380D02*
X207026309Y-163252380D01*
X206931071Y-163395238D01*
X206835833Y-163490476D01*
X206740595Y-163538095D01*
X220642857Y-151970000D02*
X221642857Y-151970000D01*
X221452380Y-153252380D02*
X221119047Y-152776190D01*
X220880952Y-153252380D02*
X220880952Y-152252380D01*
X221261904Y-152252380D01*
X221357142Y-152300000D01*
X221404761Y-152347619D01*
X221452380Y-152442857D01*
X221452380Y-152585714D01*
X221404761Y-152680952D01*
X221357142Y-152728571D01*
X221261904Y-152776190D01*
X220880952Y-152776190D01*
X221642857Y-151970000D02*
X222595238Y-151970000D01*
X221833333Y-153204761D02*
X221976190Y-153252380D01*
X222214285Y-153252380D01*
X222309523Y-153204761D01*
X222357142Y-153157142D01*
X222404761Y-153061904D01*
X222404761Y-152966666D01*
X222357142Y-152871428D01*
X222309523Y-152823809D01*
X222214285Y-152776190D01*
X222023809Y-152728571D01*
X221928571Y-152680952D01*
X221880952Y-152633333D01*
X221833333Y-152538095D01*
X221833333Y-152442857D01*
X221880952Y-152347619D01*
X221928571Y-152300000D01*
X222023809Y-152252380D01*
X222261904Y-152252380D01*
X222404761Y-152300000D01*
X222595238Y-151970000D02*
X223357142Y-151970000D01*
X222690476Y-152252380D02*
X223261904Y-152252380D01*
X222976190Y-153252380D02*
X222976190Y-152252380D01*
X221238095Y-154700000D02*
X221142857Y-154652380D01*
X221000000Y-154652380D01*
X220857142Y-154700000D01*
X220761904Y-154795238D01*
X220714285Y-154890476D01*
X220666666Y-155080952D01*
X220666666Y-155223809D01*
X220714285Y-155414285D01*
X220761904Y-155509523D01*
X220857142Y-155604761D01*
X221000000Y-155652380D01*
X221095238Y-155652380D01*
X221238095Y-155604761D01*
X221285714Y-155557142D01*
X221285714Y-155223809D01*
X221095238Y-155223809D01*
X221714285Y-155652380D02*
X221714285Y-154652380D01*
X222285714Y-155652380D01*
X222285714Y-154652380D01*
X222761904Y-155652380D02*
X222761904Y-154652380D01*
X223000000Y-154652380D01*
X223142857Y-154700000D01*
X223238095Y-154795238D01*
X223285714Y-154890476D01*
X223333333Y-155080952D01*
X223333333Y-155223809D01*
X223285714Y-155414285D01*
X223238095Y-155509523D01*
X223142857Y-155604761D01*
X223000000Y-155652380D01*
X222761904Y-155652380D01*
X215331071Y-162252380D02*
X214997738Y-161776190D01*
X214759642Y-162252380D02*
X214759642Y-161252380D01*
X215140595Y-161252380D01*
X215235833Y-161300000D01*
X215283452Y-161347619D01*
X215331071Y-161442857D01*
X215331071Y-161585714D01*
X215283452Y-161680952D01*
X215235833Y-161728571D01*
X215140595Y-161776190D01*
X214759642Y-161776190D01*
X215759642Y-161728571D02*
X216092976Y-161728571D01*
X216235833Y-162252380D02*
X215759642Y-162252380D01*
X215759642Y-161252380D01*
X216235833Y-161252380D01*
X216521547Y-161252380D02*
X216854880Y-162252380D01*
X217188214Y-161252380D01*
X217521547Y-162157142D02*
X217569166Y-162204761D01*
X217521547Y-162252380D01*
X217473928Y-162204761D01*
X217521547Y-162157142D01*
X217521547Y-162252380D01*
X218188214Y-161252380D02*
X218283452Y-161252380D01*
X218378690Y-161300000D01*
X218426309Y-161347619D01*
X218473928Y-161442857D01*
X218521547Y-161633333D01*
X218521547Y-161871428D01*
X218473928Y-162061904D01*
X218426309Y-162157142D01*
X218378690Y-162204761D01*
X218283452Y-162252380D01*
X218188214Y-162252380D01*
X218092976Y-162204761D01*
X218045357Y-162157142D01*
X217997738Y-162061904D01*
X217950119Y-161871428D01*
X217950119Y-161633333D01*
X217997738Y-161442857D01*
X218045357Y-161347619D01*
X218092976Y-161300000D01*
X218188214Y-161252380D01*
X219664404Y-161966666D02*
X220140595Y-161966666D01*
X219569166Y-162252380D02*
X219902500Y-161252380D01*
X220235833Y-162252380D01*
X220426309Y-161252380D02*
X220997738Y-161252380D01*
X220712023Y-162252380D02*
X220712023Y-161252380D01*
X221331071Y-162252380D02*
X221331071Y-161252380D01*
X221664404Y-161966666D01*
X221997738Y-161252380D01*
X221997738Y-162252380D01*
X222473928Y-161728571D02*
X222807261Y-161728571D01*
X222950119Y-162252380D02*
X222473928Y-162252380D01*
X222473928Y-161252380D01*
X222950119Y-161252380D01*
X223902500Y-161300000D02*
X223807261Y-161252380D01*
X223664404Y-161252380D01*
X223521547Y-161300000D01*
X223426309Y-161395238D01*
X223378690Y-161490476D01*
X223331071Y-161680952D01*
X223331071Y-161823809D01*
X223378690Y-162014285D01*
X223426309Y-162109523D01*
X223521547Y-162204761D01*
X223664404Y-162252380D01*
X223759642Y-162252380D01*
X223902500Y-162204761D01*
X223950119Y-162157142D01*
X223950119Y-161823809D01*
X223759642Y-161823809D01*
X224331071Y-161966666D02*
X224807261Y-161966666D01*
X224235833Y-162252380D02*
X224569166Y-161252380D01*
X224902500Y-162252380D01*
X225140595Y-161252380D02*
X225759642Y-161252380D01*
X225426309Y-161633333D01*
X225569166Y-161633333D01*
X225664404Y-161680952D01*
X225712023Y-161728571D01*
X225759642Y-161823809D01*
X225759642Y-162061904D01*
X225712023Y-162157142D01*
X225664404Y-162204761D01*
X225569166Y-162252380D01*
X225283452Y-162252380D01*
X225188214Y-162204761D01*
X225140595Y-162157142D01*
X226140595Y-161347619D02*
X226188214Y-161300000D01*
X226283452Y-161252380D01*
X226521547Y-161252380D01*
X226616785Y-161300000D01*
X226664404Y-161347619D01*
X226712023Y-161442857D01*
X226712023Y-161538095D01*
X226664404Y-161680952D01*
X226092976Y-162252380D01*
X226712023Y-162252380D01*
X227140595Y-161252380D02*
X227140595Y-162061904D01*
X227188214Y-162157142D01*
X227235833Y-162204761D01*
X227331071Y-162252380D01*
X227521547Y-162252380D01*
X227616785Y-162204761D01*
X227664404Y-162157142D01*
X227712023Y-162061904D01*
X227712023Y-161252380D01*
X228616785Y-161585714D02*
X228616785Y-162252380D01*
X228378690Y-161204761D02*
X228140595Y-161919047D01*
X228759642Y-161919047D01*
D10*
X220400000Y-155200000D02*
G75*
G03*
X220400000Y-155200000I-950000J0D01*
G01*
X220350000Y-152600000D02*
G75*
G03*
X220350000Y-152600000I-950000J0D01*
G01*
G36*
X226743367Y-167904342D02*
G01*
X226744555Y-167996563D01*
X226748897Y-168066610D01*
X226757558Y-168117381D01*
X226771704Y-168151772D01*
X226792500Y-168172679D01*
X226821110Y-168183000D01*
X226856535Y-168185636D01*
X226893636Y-168182682D01*
X226921818Y-168171889D01*
X226942243Y-168150360D01*
X226956079Y-168115199D01*
X226964491Y-168063510D01*
X226968643Y-167992394D01*
X226969703Y-167904342D01*
X226969703Y-167708614D01*
X227108020Y-167708614D01*
X227108020Y-168312179D01*
X227038862Y-168312179D01*
X226997170Y-168310489D01*
X226975701Y-168304556D01*
X226969703Y-168293293D01*
X226966091Y-168283261D01*
X226951714Y-168285383D01*
X226922736Y-168299580D01*
X226856319Y-168321480D01*
X226785875Y-168319928D01*
X226718377Y-168296147D01*
X226686233Y-168277362D01*
X226661715Y-168257022D01*
X226643804Y-168231573D01*
X226631479Y-168197458D01*
X226623723Y-168151121D01*
X226619516Y-168089007D01*
X226617840Y-168007561D01*
X226617624Y-167944578D01*
X226617624Y-167708614D01*
X226743367Y-167708614D01*
X226743367Y-167904342D01*
G37*
D12*
X226743367Y-167904342D02*
X226744555Y-167996563D01*
X226748897Y-168066610D01*
X226757558Y-168117381D01*
X226771704Y-168151772D01*
X226792500Y-168172679D01*
X226821110Y-168183000D01*
X226856535Y-168185636D01*
X226893636Y-168182682D01*
X226921818Y-168171889D01*
X226942243Y-168150360D01*
X226956079Y-168115199D01*
X226964491Y-168063510D01*
X226968643Y-167992394D01*
X226969703Y-167904342D01*
X226969703Y-167708614D01*
X227108020Y-167708614D01*
X227108020Y-168312179D01*
X227038862Y-168312179D01*
X226997170Y-168310489D01*
X226975701Y-168304556D01*
X226969703Y-168293293D01*
X226966091Y-168283261D01*
X226951714Y-168285383D01*
X226922736Y-168299580D01*
X226856319Y-168321480D01*
X226785875Y-168319928D01*
X226718377Y-168296147D01*
X226686233Y-168277362D01*
X226661715Y-168257022D01*
X226643804Y-168231573D01*
X226631479Y-168197458D01*
X226623723Y-168151121D01*
X226619516Y-168089007D01*
X226617840Y-168007561D01*
X226617624Y-167944578D01*
X226617624Y-167708614D01*
X226743367Y-167708614D01*
X226743367Y-167904342D01*
G36*
X224995988Y-167719002D02*
G01*
X225027283Y-167733950D01*
X225057591Y-167755541D01*
X225080682Y-167780391D01*
X225097500Y-167812087D01*
X225108994Y-167854214D01*
X225116109Y-167910358D01*
X225119793Y-167984106D01*
X225120992Y-168079044D01*
X225121011Y-168088985D01*
X225121287Y-168312179D01*
X224982970Y-168312179D01*
X224982970Y-168106418D01*
X224982872Y-168030189D01*
X224982191Y-167974939D01*
X224980349Y-167936501D01*
X224976767Y-167910706D01*
X224970868Y-167893384D01*
X224962073Y-167880368D01*
X224949820Y-167867507D01*
X224906953Y-167839873D01*
X224860157Y-167834745D01*
X224815576Y-167852217D01*
X224800072Y-167865221D01*
X224788690Y-167877447D01*
X224780519Y-167890540D01*
X224775026Y-167908615D01*
X224771680Y-167935787D01*
X224769949Y-167976170D01*
X224769303Y-168033879D01*
X224769208Y-168104132D01*
X224769208Y-168312179D01*
X224630891Y-168312179D01*
X224630891Y-167708614D01*
X224700050Y-167708614D01*
X224741572Y-167710256D01*
X224762994Y-167716087D01*
X224769205Y-167727461D01*
X224769208Y-167727798D01*
X224772090Y-167738938D01*
X224784801Y-167737674D01*
X224810074Y-167725434D01*
X224867395Y-167707424D01*
X224932963Y-167705421D01*
X224995988Y-167719002D01*
G37*
X224995988Y-167719002D02*
X225027283Y-167733950D01*
X225057591Y-167755541D01*
X225080682Y-167780391D01*
X225097500Y-167812087D01*
X225108994Y-167854214D01*
X225116109Y-167910358D01*
X225119793Y-167984106D01*
X225120992Y-168079044D01*
X225121011Y-168088985D01*
X225121287Y-168312179D01*
X224982970Y-168312179D01*
X224982970Y-168106418D01*
X224982872Y-168030189D01*
X224982191Y-167974939D01*
X224980349Y-167936501D01*
X224976767Y-167910706D01*
X224970868Y-167893384D01*
X224962073Y-167880368D01*
X224949820Y-167867507D01*
X224906953Y-167839873D01*
X224860157Y-167834745D01*
X224815576Y-167852217D01*
X224800072Y-167865221D01*
X224788690Y-167877447D01*
X224780519Y-167890540D01*
X224775026Y-167908615D01*
X224771680Y-167935787D01*
X224769949Y-167976170D01*
X224769303Y-168033879D01*
X224769208Y-168104132D01*
X224769208Y-168312179D01*
X224630891Y-168312179D01*
X224630891Y-167708614D01*
X224700050Y-167708614D01*
X224741572Y-167710256D01*
X224762994Y-167716087D01*
X224769205Y-167727461D01*
X224769208Y-167727798D01*
X224772090Y-167738938D01*
X224784801Y-167737674D01*
X224810074Y-167725434D01*
X224867395Y-167707424D01*
X224932963Y-167705421D01*
X224995988Y-167719002D01*
G36*
X222886052Y-167908056D02*
G01*
X222893638Y-167864007D01*
X222907319Y-167829248D01*
X222928135Y-167798551D01*
X222935853Y-167789436D01*
X222984111Y-167744021D01*
X223035872Y-167717493D01*
X223099172Y-167706379D01*
X223130039Y-167705471D01*
X223211739Y-167715148D01*
X223277521Y-167744231D01*
X223327460Y-167792793D01*
X223361626Y-167860908D01*
X223380093Y-167948651D01*
X223381417Y-167962351D01*
X223382454Y-168058939D01*
X223369007Y-168143602D01*
X223341892Y-168212221D01*
X223327373Y-168234294D01*
X223276799Y-168281011D01*
X223212391Y-168311268D01*
X223140334Y-168323824D01*
X223066815Y-168317439D01*
X223010928Y-168297772D01*
X222962868Y-168264629D01*
X222923588Y-168221175D01*
X222922908Y-168220158D01*
X222906956Y-168193338D01*
X222896590Y-168166368D01*
X222890312Y-168132332D01*
X222886627Y-168084310D01*
X222885003Y-168044931D01*
X222884328Y-168009219D01*
X223010045Y-168009219D01*
X223011274Y-168044770D01*
X223015734Y-168092094D01*
X223023603Y-168122465D01*
X223037793Y-168144072D01*
X223051083Y-168156694D01*
X223098198Y-168183122D01*
X223147495Y-168186653D01*
X223193407Y-168167639D01*
X223216362Y-168146331D01*
X223232904Y-168124859D01*
X223242579Y-168104313D01*
X223246826Y-168077574D01*
X223247080Y-168037523D01*
X223245772Y-168000638D01*
X223242957Y-167947947D01*
X223238495Y-167913772D01*
X223230452Y-167891480D01*
X223216897Y-167874442D01*
X223206155Y-167864703D01*
X223161223Y-167839123D01*
X223112751Y-167837847D01*
X223072106Y-167852999D01*
X223037433Y-167884642D01*
X223016776Y-167936620D01*
X223010045Y-168009219D01*
X222884328Y-168009219D01*
X222883521Y-167966621D01*
X222886052Y-167908056D01*
G37*
X222886052Y-167908056D02*
X222893638Y-167864007D01*
X222907319Y-167829248D01*
X222928135Y-167798551D01*
X222935853Y-167789436D01*
X222984111Y-167744021D01*
X223035872Y-167717493D01*
X223099172Y-167706379D01*
X223130039Y-167705471D01*
X223211739Y-167715148D01*
X223277521Y-167744231D01*
X223327460Y-167792793D01*
X223361626Y-167860908D01*
X223380093Y-167948651D01*
X223381417Y-167962351D01*
X223382454Y-168058939D01*
X223369007Y-168143602D01*
X223341892Y-168212221D01*
X223327373Y-168234294D01*
X223276799Y-168281011D01*
X223212391Y-168311268D01*
X223140334Y-168323824D01*
X223066815Y-168317439D01*
X223010928Y-168297772D01*
X222962868Y-168264629D01*
X222923588Y-168221175D01*
X222922908Y-168220158D01*
X222906956Y-168193338D01*
X222896590Y-168166368D01*
X222890312Y-168132332D01*
X222886627Y-168084310D01*
X222885003Y-168044931D01*
X222884328Y-168009219D01*
X223010045Y-168009219D01*
X223011274Y-168044770D01*
X223015734Y-168092094D01*
X223023603Y-168122465D01*
X223037793Y-168144072D01*
X223051083Y-168156694D01*
X223098198Y-168183122D01*
X223147495Y-168186653D01*
X223193407Y-168167639D01*
X223216362Y-168146331D01*
X223232904Y-168124859D01*
X223242579Y-168104313D01*
X223246826Y-168077574D01*
X223247080Y-168037523D01*
X223245772Y-168000638D01*
X223242957Y-167947947D01*
X223238495Y-167913772D01*
X223230452Y-167891480D01*
X223216897Y-167874442D01*
X223206155Y-167864703D01*
X223161223Y-167839123D01*
X223112751Y-167837847D01*
X223072106Y-167852999D01*
X223037433Y-167884642D01*
X223016776Y-167936620D01*
X223010045Y-168009219D01*
X222884328Y-168009219D01*
X222883521Y-167966621D01*
X222886052Y-167908056D01*
G36*
X227385255Y-168651486D02*
G01*
X227433595Y-168661015D01*
X227461114Y-168675125D01*
X227490064Y-168698568D01*
X227448876Y-168750571D01*
X227423482Y-168782064D01*
X227406238Y-168797428D01*
X227389102Y-168799776D01*
X227364027Y-168792217D01*
X227352257Y-168787941D01*
X227304270Y-168781631D01*
X227260324Y-168795156D01*
X227228060Y-168825710D01*
X227222819Y-168835452D01*
X227217112Y-168861258D01*
X227212706Y-168908817D01*
X227209811Y-168974758D01*
X227208631Y-169055710D01*
X227208614Y-169067226D01*
X227208614Y-169267822D01*
X227070297Y-169267822D01*
X227070297Y-168651683D01*
X227139456Y-168651683D01*
X227179333Y-168652725D01*
X227200107Y-168657358D01*
X227207789Y-168667849D01*
X227208614Y-168677745D01*
X227208614Y-168703806D01*
X227241745Y-168677745D01*
X227279735Y-168659965D01*
X227330770Y-168651174D01*
X227385255Y-168651486D01*
G37*
X227385255Y-168651486D02*
X227433595Y-168661015D01*
X227461114Y-168675125D01*
X227490064Y-168698568D01*
X227448876Y-168750571D01*
X227423482Y-168782064D01*
X227406238Y-168797428D01*
X227389102Y-168799776D01*
X227364027Y-168792217D01*
X227352257Y-168787941D01*
X227304270Y-168781631D01*
X227260324Y-168795156D01*
X227228060Y-168825710D01*
X227222819Y-168835452D01*
X227217112Y-168861258D01*
X227212706Y-168908817D01*
X227209811Y-168974758D01*
X227208631Y-169055710D01*
X227208614Y-169067226D01*
X227208614Y-169267822D01*
X227070297Y-169267822D01*
X227070297Y-168651683D01*
X227139456Y-168651683D01*
X227179333Y-168652725D01*
X227200107Y-168657358D01*
X227207789Y-168667849D01*
X227208614Y-168677745D01*
X227208614Y-168703806D01*
X227241745Y-168677745D01*
X227279735Y-168659965D01*
X227330770Y-168651174D01*
X227385255Y-168651486D01*
G36*
X226126964Y-163540018D02*
G01*
X226183812Y-163841570D01*
X226603338Y-164014512D01*
X226854984Y-163843395D01*
X226925458Y-163795750D01*
X226989163Y-163753210D01*
X227043126Y-163717715D01*
X227084373Y-163691210D01*
X227109934Y-163675636D01*
X227116895Y-163672278D01*
X227129435Y-163680914D01*
X227156231Y-163704792D01*
X227194280Y-163740859D01*
X227240579Y-163786067D01*
X227292123Y-163837364D01*
X227345909Y-163891701D01*
X227398935Y-163946028D01*
X227448195Y-163997295D01*
X227490687Y-164042451D01*
X227523407Y-164078446D01*
X227543351Y-164102230D01*
X227548119Y-164110190D01*
X227541257Y-164124865D01*
X227522020Y-164157014D01*
X227492430Y-164203492D01*
X227454510Y-164261156D01*
X227410282Y-164326860D01*
X227384654Y-164364336D01*
X227337941Y-164432768D01*
X227296432Y-164494520D01*
X227262140Y-164546519D01*
X227237080Y-164585692D01*
X227223264Y-164608965D01*
X227221188Y-164613855D01*
X227225895Y-164627755D01*
X227238723Y-164660150D01*
X227257738Y-164706485D01*
X227281003Y-164762206D01*
X227306584Y-164822758D01*
X227332545Y-164883586D01*
X227356950Y-164940136D01*
X227377863Y-164987852D01*
X227393349Y-165022181D01*
X227401472Y-165038568D01*
X227401952Y-165039212D01*
X227414707Y-165042341D01*
X227448677Y-165049321D01*
X227500340Y-165059467D01*
X227566176Y-165072092D01*
X227642664Y-165086509D01*
X227687290Y-165094823D01*
X227769021Y-165110384D01*
X227842843Y-165125192D01*
X227905021Y-165138436D01*
X227951822Y-165149305D01*
X227979509Y-165156989D01*
X227985074Y-165159427D01*
X227990526Y-165175930D01*
X227994924Y-165213200D01*
X227998272Y-165266880D01*
X228000574Y-165332612D01*
X228001832Y-165406037D01*
X228002048Y-165482796D01*
X228001227Y-165558532D01*
X227999371Y-165628886D01*
X227996482Y-165689500D01*
X227992565Y-165736016D01*
X227987622Y-165764075D01*
X227984657Y-165769916D01*
X227966934Y-165776917D01*
X227929381Y-165786927D01*
X227876964Y-165798769D01*
X227814652Y-165811267D01*
X227792900Y-165815310D01*
X227688024Y-165834520D01*
X227605180Y-165849991D01*
X227541630Y-165862337D01*
X227494637Y-165872173D01*
X227461463Y-165880114D01*
X227439371Y-165886776D01*
X227425624Y-165892773D01*
X227417484Y-165898719D01*
X227416345Y-165899894D01*
X227404977Y-165918826D01*
X227387635Y-165955669D01*
X227366050Y-166005913D01*
X227341954Y-166065046D01*
X227317079Y-166128556D01*
X227293157Y-166191932D01*
X227271919Y-166250662D01*
X227255097Y-166300235D01*
X227244422Y-166336139D01*
X227241627Y-166353862D01*
X227241860Y-166354483D01*
X227251331Y-166368970D01*
X227272818Y-166400844D01*
X227304063Y-166446789D01*
X227342807Y-166503485D01*
X227386793Y-166567617D01*
X227399319Y-166585842D01*
X227443984Y-166651914D01*
X227483288Y-166712200D01*
X227515088Y-166763235D01*
X227537245Y-166801560D01*
X227547617Y-166823711D01*
X227548119Y-166826432D01*
X227539405Y-166840736D01*
X227515325Y-166869072D01*
X227478976Y-166908396D01*
X227433453Y-166955661D01*
X227381852Y-167007823D01*
X227327267Y-167061835D01*
X227272794Y-167114653D01*
X227221529Y-167163231D01*
X227176567Y-167204523D01*
X227141004Y-167235485D01*
X227117935Y-167253070D01*
X227111554Y-167255941D01*
X227096699Y-167249178D01*
X227066286Y-167230939D01*
X227025268Y-167204297D01*
X226993709Y-167182852D01*
X226936525Y-167143503D01*
X226868806Y-167097171D01*
X226800880Y-167050913D01*
X226764361Y-167026155D01*
X226640752Y-166942547D01*
X226536991Y-166998650D01*
X226489720Y-167023228D01*
X226449523Y-167042331D01*
X226422326Y-167053227D01*
X226415402Y-167054743D01*
X226407077Y-167043549D01*
X226390654Y-167011917D01*
X226367357Y-166962765D01*
X226338414Y-166899010D01*
X226305050Y-166823571D01*
X226268491Y-166739364D01*
X226229964Y-166649308D01*
X226190694Y-166556321D01*
X226151908Y-166463320D01*
X226114830Y-166373223D01*
X226080689Y-166288948D01*
X226050708Y-166213413D01*
X226026116Y-166149534D01*
X226008136Y-166100231D01*
X225997997Y-166068421D01*
X225996366Y-166057496D01*
X226009291Y-166043561D01*
X226037589Y-166020940D01*
X226075346Y-165994333D01*
X226078515Y-165992228D01*
X226176100Y-165914114D01*
X226254786Y-165822982D01*
X226313891Y-165721745D01*
X226352732Y-165613318D01*
X226370628Y-165500614D01*
X226366897Y-165386548D01*
X226340857Y-165274034D01*
X226291825Y-165165985D01*
X226277400Y-165142345D01*
X226202369Y-165046887D01*
X226113730Y-164970232D01*
X226014549Y-164912780D01*
X225907895Y-164874929D01*
X225796836Y-164857078D01*
X225684439Y-164859625D01*
X225573773Y-164882970D01*
X225467906Y-164927510D01*
X225369905Y-164993645D01*
X225339590Y-165020487D01*
X225262438Y-165104512D01*
X225206218Y-165192966D01*
X225167653Y-165292115D01*
X225146174Y-165390303D01*
X225140872Y-165500697D01*
X225158552Y-165611640D01*
X225197419Y-165719381D01*
X225255677Y-165820169D01*
X225331531Y-165910256D01*
X225423183Y-165985892D01*
X225435228Y-165993864D01*
X225473389Y-166019974D01*
X225502399Y-166042595D01*
X225516268Y-166057039D01*
X225516469Y-166057496D01*
X225513492Y-166073121D01*
X225501689Y-166108582D01*
X225482286Y-166160962D01*
X225456512Y-166227345D01*
X225425591Y-166304814D01*
X225390751Y-166390450D01*
X225353217Y-166481337D01*
X225314217Y-166574559D01*
X225274977Y-166667197D01*
X225236724Y-166756335D01*
X225200683Y-166839055D01*
X225168083Y-166912441D01*
X225140148Y-166973575D01*
X225118105Y-167019541D01*
X225103182Y-167047421D01*
X225097172Y-167054743D01*
X225078809Y-167049041D01*
X225044448Y-167033749D01*
X225000016Y-167011599D01*
X224975583Y-166998650D01*
X224871822Y-166942547D01*
X224748213Y-167026155D01*
X224685114Y-167068987D01*
X224616030Y-167116122D01*
X224551293Y-167160503D01*
X224518866Y-167182852D01*
X224473259Y-167213477D01*
X224434640Y-167237747D01*
X224408048Y-167252587D01*
X224399410Y-167255724D01*
X224386839Y-167247261D01*
X224359016Y-167223636D01*
X224318639Y-167187302D01*
X224268405Y-167140711D01*
X224211012Y-167086317D01*
X224174714Y-167051392D01*
X224111210Y-166988996D01*
X224056327Y-166933188D01*
X224012286Y-166886354D01*
X223981305Y-166850882D01*
X223965602Y-166829161D01*
X223964095Y-166824752D01*
X223971086Y-166807985D01*
X223990406Y-166774082D01*
X224019909Y-166726476D01*
X224057455Y-166668599D01*
X224100900Y-166603884D01*
X224113255Y-166585842D01*
X224158273Y-166520267D01*
X224198660Y-166461228D01*
X224232160Y-166412042D01*
X224256514Y-166376028D01*
X224269464Y-166356502D01*
X224270715Y-166354483D01*
X224268844Y-166338922D01*
X224258913Y-166304709D01*
X224242653Y-166256355D01*
X224221795Y-166198371D01*
X224198073Y-166135270D01*
X224173216Y-166071563D01*
X224148958Y-166011761D01*
X224127029Y-165960376D01*
X224109162Y-165921919D01*
X224097087Y-165900902D01*
X224096229Y-165899894D01*
X224088846Y-165893888D01*
X224076375Y-165887948D01*
X224056080Y-165881460D01*
X224025222Y-165873809D01*
X223981066Y-165864380D01*
X223920874Y-165852559D01*
X223841907Y-165837729D01*
X223741430Y-165819277D01*
X223719675Y-165815310D01*
X223655198Y-165802853D01*
X223598989Y-165790666D01*
X223556013Y-165779926D01*
X223531240Y-165771809D01*
X223527918Y-165769916D01*
X223522444Y-165753138D01*
X223517994Y-165715645D01*
X223514572Y-165661794D01*
X223512181Y-165595944D01*
X223510823Y-165522453D01*
X223510501Y-165445680D01*
X223511219Y-165369983D01*
X223512979Y-165299720D01*
X223515784Y-165239250D01*
X223519638Y-165192930D01*
X223524543Y-165165119D01*
X223527500Y-165159427D01*
X223543963Y-165153686D01*
X223581449Y-165144345D01*
X223636225Y-165132215D01*
X223704555Y-165118107D01*
X223782706Y-165102830D01*
X223825284Y-165094823D01*
X223906071Y-165079721D01*
X223978113Y-165066040D01*
X224037889Y-165054467D01*
X224081879Y-165045687D01*
X224106561Y-165040387D01*
X224110623Y-165039212D01*
X224117489Y-165025965D01*
X224132002Y-164994057D01*
X224152229Y-164948047D01*
X224176234Y-164892492D01*
X224202082Y-164831953D01*
X224227840Y-164770986D01*
X224251573Y-164714151D01*
X224271346Y-164666006D01*
X224285224Y-164631110D01*
X224291274Y-164614021D01*
X224291386Y-164613274D01*
X224284528Y-164599793D01*
X224265302Y-164568770D01*
X224235728Y-164523289D01*
X224197827Y-164466432D01*
X224153620Y-164401283D01*
X224127921Y-164363862D01*
X224081093Y-164295247D01*
X224039501Y-164232952D01*
X224005175Y-164180129D01*
X223980143Y-164139927D01*
X223966435Y-164115500D01*
X223964456Y-164110024D01*
X223972966Y-164097278D01*
X223996493Y-164070063D01*
X224032032Y-164031428D01*
X224076577Y-163984423D01*
X224127123Y-163932095D01*
X224180664Y-163877495D01*
X224234195Y-163823670D01*
X224284711Y-163773670D01*
X224329206Y-163730543D01*
X224364675Y-163697339D01*
X224388113Y-163677106D01*
X224395954Y-163672278D01*
X224408720Y-163679067D01*
X224439256Y-163698142D01*
X224484590Y-163727561D01*
X224541756Y-163765381D01*
X224607784Y-163809661D01*
X224657590Y-163843395D01*
X224909236Y-164014512D01*
X225118999Y-163928041D01*
X225328763Y-163841570D01*
X225385611Y-163540018D01*
X225442460Y-163238466D01*
X226070115Y-163238466D01*
X226126964Y-163540018D01*
G37*
X226126964Y-163540018D02*
X226183812Y-163841570D01*
X226603338Y-164014512D01*
X226854984Y-163843395D01*
X226925458Y-163795750D01*
X226989163Y-163753210D01*
X227043126Y-163717715D01*
X227084373Y-163691210D01*
X227109934Y-163675636D01*
X227116895Y-163672278D01*
X227129435Y-163680914D01*
X227156231Y-163704792D01*
X227194280Y-163740859D01*
X227240579Y-163786067D01*
X227292123Y-163837364D01*
X227345909Y-163891701D01*
X227398935Y-163946028D01*
X227448195Y-163997295D01*
X227490687Y-164042451D01*
X227523407Y-164078446D01*
X227543351Y-164102230D01*
X227548119Y-164110190D01*
X227541257Y-164124865D01*
X227522020Y-164157014D01*
X227492430Y-164203492D01*
X227454510Y-164261156D01*
X227410282Y-164326860D01*
X227384654Y-164364336D01*
X227337941Y-164432768D01*
X227296432Y-164494520D01*
X227262140Y-164546519D01*
X227237080Y-164585692D01*
X227223264Y-164608965D01*
X227221188Y-164613855D01*
X227225895Y-164627755D01*
X227238723Y-164660150D01*
X227257738Y-164706485D01*
X227281003Y-164762206D01*
X227306584Y-164822758D01*
X227332545Y-164883586D01*
X227356950Y-164940136D01*
X227377863Y-164987852D01*
X227393349Y-165022181D01*
X227401472Y-165038568D01*
X227401952Y-165039212D01*
X227414707Y-165042341D01*
X227448677Y-165049321D01*
X227500340Y-165059467D01*
X227566176Y-165072092D01*
X227642664Y-165086509D01*
X227687290Y-165094823D01*
X227769021Y-165110384D01*
X227842843Y-165125192D01*
X227905021Y-165138436D01*
X227951822Y-165149305D01*
X227979509Y-165156989D01*
X227985074Y-165159427D01*
X227990526Y-165175930D01*
X227994924Y-165213200D01*
X227998272Y-165266880D01*
X228000574Y-165332612D01*
X228001832Y-165406037D01*
X228002048Y-165482796D01*
X228001227Y-165558532D01*
X227999371Y-165628886D01*
X227996482Y-165689500D01*
X227992565Y-165736016D01*
X227987622Y-165764075D01*
X227984657Y-165769916D01*
X227966934Y-165776917D01*
X227929381Y-165786927D01*
X227876964Y-165798769D01*
X227814652Y-165811267D01*
X227792900Y-165815310D01*
X227688024Y-165834520D01*
X227605180Y-165849991D01*
X227541630Y-165862337D01*
X227494637Y-165872173D01*
X227461463Y-165880114D01*
X227439371Y-165886776D01*
X227425624Y-165892773D01*
X227417484Y-165898719D01*
X227416345Y-165899894D01*
X227404977Y-165918826D01*
X227387635Y-165955669D01*
X227366050Y-166005913D01*
X227341954Y-166065046D01*
X227317079Y-166128556D01*
X227293157Y-166191932D01*
X227271919Y-166250662D01*
X227255097Y-166300235D01*
X227244422Y-166336139D01*
X227241627Y-166353862D01*
X227241860Y-166354483D01*
X227251331Y-166368970D01*
X227272818Y-166400844D01*
X227304063Y-166446789D01*
X227342807Y-166503485D01*
X227386793Y-166567617D01*
X227399319Y-166585842D01*
X227443984Y-166651914D01*
X227483288Y-166712200D01*
X227515088Y-166763235D01*
X227537245Y-166801560D01*
X227547617Y-166823711D01*
X227548119Y-166826432D01*
X227539405Y-166840736D01*
X227515325Y-166869072D01*
X227478976Y-166908396D01*
X227433453Y-166955661D01*
X227381852Y-167007823D01*
X227327267Y-167061835D01*
X227272794Y-167114653D01*
X227221529Y-167163231D01*
X227176567Y-167204523D01*
X227141004Y-167235485D01*
X227117935Y-167253070D01*
X227111554Y-167255941D01*
X227096699Y-167249178D01*
X227066286Y-167230939D01*
X227025268Y-167204297D01*
X226993709Y-167182852D01*
X226936525Y-167143503D01*
X226868806Y-167097171D01*
X226800880Y-167050913D01*
X226764361Y-167026155D01*
X226640752Y-166942547D01*
X226536991Y-166998650D01*
X226489720Y-167023228D01*
X226449523Y-167042331D01*
X226422326Y-167053227D01*
X226415402Y-167054743D01*
X226407077Y-167043549D01*
X226390654Y-167011917D01*
X226367357Y-166962765D01*
X226338414Y-166899010D01*
X226305050Y-166823571D01*
X226268491Y-166739364D01*
X226229964Y-166649308D01*
X226190694Y-166556321D01*
X226151908Y-166463320D01*
X226114830Y-166373223D01*
X226080689Y-166288948D01*
X226050708Y-166213413D01*
X226026116Y-166149534D01*
X226008136Y-166100231D01*
X225997997Y-166068421D01*
X225996366Y-166057496D01*
X226009291Y-166043561D01*
X226037589Y-166020940D01*
X226075346Y-165994333D01*
X226078515Y-165992228D01*
X226176100Y-165914114D01*
X226254786Y-165822982D01*
X226313891Y-165721745D01*
X226352732Y-165613318D01*
X226370628Y-165500614D01*
X226366897Y-165386548D01*
X226340857Y-165274034D01*
X226291825Y-165165985D01*
X226277400Y-165142345D01*
X226202369Y-165046887D01*
X226113730Y-164970232D01*
X226014549Y-164912780D01*
X225907895Y-164874929D01*
X225796836Y-164857078D01*
X225684439Y-164859625D01*
X225573773Y-164882970D01*
X225467906Y-164927510D01*
X225369905Y-164993645D01*
X225339590Y-165020487D01*
X225262438Y-165104512D01*
X225206218Y-165192966D01*
X225167653Y-165292115D01*
X225146174Y-165390303D01*
X225140872Y-165500697D01*
X225158552Y-165611640D01*
X225197419Y-165719381D01*
X225255677Y-165820169D01*
X225331531Y-165910256D01*
X225423183Y-165985892D01*
X225435228Y-165993864D01*
X225473389Y-166019974D01*
X225502399Y-166042595D01*
X225516268Y-166057039D01*
X225516469Y-166057496D01*
X225513492Y-166073121D01*
X225501689Y-166108582D01*
X225482286Y-166160962D01*
X225456512Y-166227345D01*
X225425591Y-166304814D01*
X225390751Y-166390450D01*
X225353217Y-166481337D01*
X225314217Y-166574559D01*
X225274977Y-166667197D01*
X225236724Y-166756335D01*
X225200683Y-166839055D01*
X225168083Y-166912441D01*
X225140148Y-166973575D01*
X225118105Y-167019541D01*
X225103182Y-167047421D01*
X225097172Y-167054743D01*
X225078809Y-167049041D01*
X225044448Y-167033749D01*
X225000016Y-167011599D01*
X224975583Y-166998650D01*
X224871822Y-166942547D01*
X224748213Y-167026155D01*
X224685114Y-167068987D01*
X224616030Y-167116122D01*
X224551293Y-167160503D01*
X224518866Y-167182852D01*
X224473259Y-167213477D01*
X224434640Y-167237747D01*
X224408048Y-167252587D01*
X224399410Y-167255724D01*
X224386839Y-167247261D01*
X224359016Y-167223636D01*
X224318639Y-167187302D01*
X224268405Y-167140711D01*
X224211012Y-167086317D01*
X224174714Y-167051392D01*
X224111210Y-166988996D01*
X224056327Y-166933188D01*
X224012286Y-166886354D01*
X223981305Y-166850882D01*
X223965602Y-166829161D01*
X223964095Y-166824752D01*
X223971086Y-166807985D01*
X223990406Y-166774082D01*
X224019909Y-166726476D01*
X224057455Y-166668599D01*
X224100900Y-166603884D01*
X224113255Y-166585842D01*
X224158273Y-166520267D01*
X224198660Y-166461228D01*
X224232160Y-166412042D01*
X224256514Y-166376028D01*
X224269464Y-166356502D01*
X224270715Y-166354483D01*
X224268844Y-166338922D01*
X224258913Y-166304709D01*
X224242653Y-166256355D01*
X224221795Y-166198371D01*
X224198073Y-166135270D01*
X224173216Y-166071563D01*
X224148958Y-166011761D01*
X224127029Y-165960376D01*
X224109162Y-165921919D01*
X224097087Y-165900902D01*
X224096229Y-165899894D01*
X224088846Y-165893888D01*
X224076375Y-165887948D01*
X224056080Y-165881460D01*
X224025222Y-165873809D01*
X223981066Y-165864380D01*
X223920874Y-165852559D01*
X223841907Y-165837729D01*
X223741430Y-165819277D01*
X223719675Y-165815310D01*
X223655198Y-165802853D01*
X223598989Y-165790666D01*
X223556013Y-165779926D01*
X223531240Y-165771809D01*
X223527918Y-165769916D01*
X223522444Y-165753138D01*
X223517994Y-165715645D01*
X223514572Y-165661794D01*
X223512181Y-165595944D01*
X223510823Y-165522453D01*
X223510501Y-165445680D01*
X223511219Y-165369983D01*
X223512979Y-165299720D01*
X223515784Y-165239250D01*
X223519638Y-165192930D01*
X223524543Y-165165119D01*
X223527500Y-165159427D01*
X223543963Y-165153686D01*
X223581449Y-165144345D01*
X223636225Y-165132215D01*
X223704555Y-165118107D01*
X223782706Y-165102830D01*
X223825284Y-165094823D01*
X223906071Y-165079721D01*
X223978113Y-165066040D01*
X224037889Y-165054467D01*
X224081879Y-165045687D01*
X224106561Y-165040387D01*
X224110623Y-165039212D01*
X224117489Y-165025965D01*
X224132002Y-164994057D01*
X224152229Y-164948047D01*
X224176234Y-164892492D01*
X224202082Y-164831953D01*
X224227840Y-164770986D01*
X224251573Y-164714151D01*
X224271346Y-164666006D01*
X224285224Y-164631110D01*
X224291274Y-164614021D01*
X224291386Y-164613274D01*
X224284528Y-164599793D01*
X224265302Y-164568770D01*
X224235728Y-164523289D01*
X224197827Y-164466432D01*
X224153620Y-164401283D01*
X224127921Y-164363862D01*
X224081093Y-164295247D01*
X224039501Y-164232952D01*
X224005175Y-164180129D01*
X223980143Y-164139927D01*
X223966435Y-164115500D01*
X223964456Y-164110024D01*
X223972966Y-164097278D01*
X223996493Y-164070063D01*
X224032032Y-164031428D01*
X224076577Y-163984423D01*
X224127123Y-163932095D01*
X224180664Y-163877495D01*
X224234195Y-163823670D01*
X224284711Y-163773670D01*
X224329206Y-163730543D01*
X224364675Y-163697339D01*
X224388113Y-163677106D01*
X224395954Y-163672278D01*
X224408720Y-163679067D01*
X224439256Y-163698142D01*
X224484590Y-163727561D01*
X224541756Y-163765381D01*
X224607784Y-163809661D01*
X224657590Y-163843395D01*
X224909236Y-164014512D01*
X225118999Y-163928041D01*
X225328763Y-163841570D01*
X225385611Y-163540018D01*
X225442460Y-163238466D01*
X226070115Y-163238466D01*
X226126964Y-163540018D01*
G36*
X224069290Y-168973845D02*
G01*
X224113052Y-168931647D01*
X224119101Y-168927808D01*
X224145093Y-168915309D01*
X224177265Y-168907740D01*
X224222240Y-168904061D01*
X224275669Y-168903216D01*
X224391980Y-168903169D01*
X224391980Y-168854411D01*
X224387047Y-168816581D01*
X224374457Y-168791236D01*
X224372983Y-168789887D01*
X224344966Y-168778800D01*
X224302674Y-168774503D01*
X224255936Y-168776615D01*
X224214582Y-168784756D01*
X224190043Y-168796965D01*
X224176747Y-168806746D01*
X224162706Y-168808613D01*
X224143329Y-168800600D01*
X224114024Y-168780739D01*
X224070197Y-168747063D01*
X224066175Y-168743909D01*
X224068236Y-168732236D01*
X224085432Y-168712822D01*
X224111567Y-168691248D01*
X224140448Y-168673096D01*
X224149522Y-168668809D01*
X224182620Y-168660256D01*
X224231120Y-168654155D01*
X224285305Y-168651708D01*
X224287839Y-168651703D01*
X224365790Y-168656555D01*
X224424945Y-168672339D01*
X224469977Y-168700948D01*
X224501754Y-168738419D01*
X224511634Y-168754411D01*
X224518927Y-168771163D01*
X224524026Y-168792592D01*
X224527321Y-168822616D01*
X224529203Y-168865154D01*
X224530063Y-168924122D01*
X224530293Y-169003440D01*
X224530297Y-169024484D01*
X224530297Y-169267822D01*
X224469941Y-169267822D01*
X224431443Y-169265126D01*
X224402977Y-169258295D01*
X224395845Y-169254083D01*
X224376348Y-169246813D01*
X224356434Y-169254083D01*
X224323647Y-169263160D01*
X224276022Y-169266813D01*
X224223236Y-169265228D01*
X224174964Y-169258589D01*
X224146782Y-169250072D01*
X224092247Y-169215063D01*
X224058165Y-169166479D01*
X224042843Y-169101882D01*
X224042701Y-169100223D01*
X224044045Y-169071566D01*
X224165644Y-169071566D01*
X224176274Y-169104161D01*
X224193590Y-169122505D01*
X224228348Y-169136379D01*
X224274227Y-169141917D01*
X224321012Y-169139191D01*
X224358486Y-169128274D01*
X224368985Y-169121269D01*
X224387332Y-169088904D01*
X224391980Y-169052111D01*
X224391980Y-169003763D01*
X224322418Y-169003763D01*
X224256333Y-169008850D01*
X224206236Y-169023263D01*
X224175071Y-169045729D01*
X224165644Y-169071566D01*
X224044045Y-169071566D01*
X224046013Y-169029647D01*
X224069290Y-168973845D01*
G37*
X224069290Y-168973845D02*
X224113052Y-168931647D01*
X224119101Y-168927808D01*
X224145093Y-168915309D01*
X224177265Y-168907740D01*
X224222240Y-168904061D01*
X224275669Y-168903216D01*
X224391980Y-168903169D01*
X224391980Y-168854411D01*
X224387047Y-168816581D01*
X224374457Y-168791236D01*
X224372983Y-168789887D01*
X224344966Y-168778800D01*
X224302674Y-168774503D01*
X224255936Y-168776615D01*
X224214582Y-168784756D01*
X224190043Y-168796965D01*
X224176747Y-168806746D01*
X224162706Y-168808613D01*
X224143329Y-168800600D01*
X224114024Y-168780739D01*
X224070197Y-168747063D01*
X224066175Y-168743909D01*
X224068236Y-168732236D01*
X224085432Y-168712822D01*
X224111567Y-168691248D01*
X224140448Y-168673096D01*
X224149522Y-168668809D01*
X224182620Y-168660256D01*
X224231120Y-168654155D01*
X224285305Y-168651708D01*
X224287839Y-168651703D01*
X224365790Y-168656555D01*
X224424945Y-168672339D01*
X224469977Y-168700948D01*
X224501754Y-168738419D01*
X224511634Y-168754411D01*
X224518927Y-168771163D01*
X224524026Y-168792592D01*
X224527321Y-168822616D01*
X224529203Y-168865154D01*
X224530063Y-168924122D01*
X224530293Y-169003440D01*
X224530297Y-169024484D01*
X224530297Y-169267822D01*
X224469941Y-169267822D01*
X224431443Y-169265126D01*
X224402977Y-169258295D01*
X224395845Y-169254083D01*
X224376348Y-169246813D01*
X224356434Y-169254083D01*
X224323647Y-169263160D01*
X224276022Y-169266813D01*
X224223236Y-169265228D01*
X224174964Y-169258589D01*
X224146782Y-169250072D01*
X224092247Y-169215063D01*
X224058165Y-169166479D01*
X224042843Y-169101882D01*
X224042701Y-169100223D01*
X224044045Y-169071566D01*
X224165644Y-169071566D01*
X224176274Y-169104161D01*
X224193590Y-169122505D01*
X224228348Y-169136379D01*
X224274227Y-169141917D01*
X224321012Y-169139191D01*
X224358486Y-169128274D01*
X224368985Y-169121269D01*
X224387332Y-169088904D01*
X224391980Y-169052111D01*
X224391980Y-169003763D01*
X224322418Y-169003763D01*
X224256333Y-169008850D01*
X224206236Y-169023263D01*
X224175071Y-169045729D01*
X224165644Y-169071566D01*
X224044045Y-169071566D01*
X224046013Y-169029647D01*
X224069290Y-168973845D01*
G36*
X224756644Y-168653020D02*
G01*
X224775461Y-168658660D01*
X224781527Y-168671053D01*
X224781782Y-168676647D01*
X224782871Y-168692230D01*
X224790368Y-168694676D01*
X224810619Y-168683993D01*
X224822649Y-168676694D01*
X224860600Y-168661063D01*
X224905928Y-168653334D01*
X224953456Y-168652740D01*
X224998005Y-168658513D01*
X225034398Y-168669884D01*
X225057457Y-168686088D01*
X225062004Y-168706355D01*
X225059709Y-168711843D01*
X225042980Y-168734626D01*
X225017037Y-168762647D01*
X225012345Y-168767177D01*
X224987617Y-168788005D01*
X224966282Y-168794735D01*
X224936445Y-168790038D01*
X224924492Y-168786917D01*
X224887295Y-168779421D01*
X224861141Y-168782792D01*
X224839054Y-168794681D01*
X224818822Y-168810635D01*
X224803921Y-168830700D01*
X224793566Y-168858702D01*
X224786971Y-168898467D01*
X224783351Y-168953823D01*
X224781922Y-169028594D01*
X224781782Y-169073740D01*
X224781782Y-169267822D01*
X224656040Y-169267822D01*
X224656040Y-168651683D01*
X224718911Y-168651683D01*
X224756644Y-168653020D01*
G37*
X224756644Y-168653020D02*
X224775461Y-168658660D01*
X224781527Y-168671053D01*
X224781782Y-168676647D01*
X224782871Y-168692230D01*
X224790368Y-168694676D01*
X224810619Y-168683993D01*
X224822649Y-168676694D01*
X224860600Y-168661063D01*
X224905928Y-168653334D01*
X224953456Y-168652740D01*
X224998005Y-168658513D01*
X225034398Y-168669884D01*
X225057457Y-168686088D01*
X225062004Y-168706355D01*
X225059709Y-168711843D01*
X225042980Y-168734626D01*
X225017037Y-168762647D01*
X225012345Y-168767177D01*
X224987617Y-168788005D01*
X224966282Y-168794735D01*
X224936445Y-168790038D01*
X224924492Y-168786917D01*
X224887295Y-168779421D01*
X224861141Y-168782792D01*
X224839054Y-168794681D01*
X224818822Y-168810635D01*
X224803921Y-168830700D01*
X224793566Y-168858702D01*
X224786971Y-168898467D01*
X224783351Y-168953823D01*
X224781922Y-169028594D01*
X224781782Y-169073740D01*
X224781782Y-169267822D01*
X224656040Y-169267822D01*
X224656040Y-168651683D01*
X224718911Y-168651683D01*
X224756644Y-168653020D01*
G36*
X226031524Y-168654237D02*
G01*
X226081255Y-168657971D01*
X226211291Y-169047773D01*
X226231678Y-168978614D01*
X226243946Y-168935874D01*
X226260085Y-168878115D01*
X226277512Y-168814625D01*
X226286726Y-168780570D01*
X226321388Y-168651683D01*
X226464391Y-168651683D01*
X226421646Y-168786857D01*
X226400596Y-168853342D01*
X226375167Y-168933539D01*
X226348610Y-169017193D01*
X226324902Y-169091782D01*
X226270902Y-169261535D01*
X226212598Y-169265328D01*
X226154295Y-169269122D01*
X226122679Y-169164734D01*
X226103182Y-169099889D01*
X226081904Y-169028400D01*
X226063308Y-168965263D01*
X226062574Y-168962750D01*
X226048684Y-168919969D01*
X226036429Y-168890779D01*
X226027846Y-168879741D01*
X226026082Y-168881018D01*
X226019891Y-168898130D01*
X226008128Y-168934787D01*
X225992225Y-168986378D01*
X225973614Y-169048294D01*
X225963543Y-169082352D01*
X225909007Y-169267822D01*
X225793264Y-169267822D01*
X225700737Y-168975471D01*
X225674744Y-168893462D01*
X225651066Y-168818987D01*
X225630820Y-168755544D01*
X225615126Y-168706632D01*
X225605102Y-168675749D01*
X225602055Y-168666726D01*
X225604467Y-168657487D01*
X225623408Y-168653441D01*
X225662823Y-168653846D01*
X225668993Y-168654152D01*
X225742086Y-168657971D01*
X225789957Y-168834010D01*
X225807553Y-168898211D01*
X225823277Y-168954649D01*
X225835746Y-168998422D01*
X225843574Y-169024630D01*
X225845020Y-169028903D01*
X225851014Y-169023990D01*
X225863101Y-168998532D01*
X225879893Y-168955997D01*
X225900003Y-168899850D01*
X225917003Y-168849130D01*
X225981794Y-168650504D01*
X226031524Y-168654237D01*
G37*
X226031524Y-168654237D02*
X226081255Y-168657971D01*
X226211291Y-169047773D01*
X226231678Y-168978614D01*
X226243946Y-168935874D01*
X226260085Y-168878115D01*
X226277512Y-168814625D01*
X226286726Y-168780570D01*
X226321388Y-168651683D01*
X226464391Y-168651683D01*
X226421646Y-168786857D01*
X226400596Y-168853342D01*
X226375167Y-168933539D01*
X226348610Y-169017193D01*
X226324902Y-169091782D01*
X226270902Y-169261535D01*
X226212598Y-169265328D01*
X226154295Y-169269122D01*
X226122679Y-169164734D01*
X226103182Y-169099889D01*
X226081904Y-169028400D01*
X226063308Y-168965263D01*
X226062574Y-168962750D01*
X226048684Y-168919969D01*
X226036429Y-168890779D01*
X226027846Y-168879741D01*
X226026082Y-168881018D01*
X226019891Y-168898130D01*
X226008128Y-168934787D01*
X225992225Y-168986378D01*
X225973614Y-169048294D01*
X225963543Y-169082352D01*
X225909007Y-169267822D01*
X225793264Y-169267822D01*
X225700737Y-168975471D01*
X225674744Y-168893462D01*
X225651066Y-168818987D01*
X225630820Y-168755544D01*
X225615126Y-168706632D01*
X225605102Y-168675749D01*
X225602055Y-168666726D01*
X225604467Y-168657487D01*
X225623408Y-168653441D01*
X225662823Y-168653846D01*
X225668993Y-168654152D01*
X225742086Y-168657971D01*
X225789957Y-168834010D01*
X225807553Y-168898211D01*
X225823277Y-168954649D01*
X225835746Y-168998422D01*
X225843574Y-169024630D01*
X225845020Y-169028903D01*
X225851014Y-169023990D01*
X225863101Y-168998532D01*
X225879893Y-168955997D01*
X225900003Y-168899850D01*
X225917003Y-168849130D01*
X225981794Y-168650504D01*
X226031524Y-168654237D01*
G36*
X226486663Y-168985244D02*
G01*
X226517624Y-168946580D01*
X226536376Y-168929864D01*
X226554733Y-168918878D01*
X226578619Y-168912180D01*
X226613957Y-168908326D01*
X226666669Y-168905873D01*
X226687577Y-168905168D01*
X226818812Y-168900879D01*
X226818620Y-168861158D01*
X226813537Y-168819405D01*
X226795162Y-168794158D01*
X226758039Y-168778030D01*
X226757043Y-168777742D01*
X226704410Y-168771400D01*
X226652906Y-168779684D01*
X226614630Y-168799827D01*
X226599272Y-168809773D01*
X226582730Y-168808397D01*
X226557275Y-168793987D01*
X226542328Y-168783817D01*
X226513091Y-168762088D01*
X226494980Y-168745800D01*
X226492074Y-168741137D01*
X226504040Y-168717005D01*
X226539396Y-168688185D01*
X226554753Y-168678461D01*
X226598901Y-168661714D01*
X226658398Y-168652227D01*
X226724487Y-168650095D01*
X226788411Y-168655417D01*
X226841411Y-168668290D01*
X226856731Y-168675110D01*
X226886428Y-168692974D01*
X226909220Y-168713093D01*
X226926083Y-168738962D01*
X226937998Y-168774073D01*
X226945942Y-168821920D01*
X226950894Y-168885996D01*
X226953831Y-168969794D01*
X226954947Y-169025768D01*
X226959052Y-169267822D01*
X226888932Y-169267822D01*
X226846393Y-169266038D01*
X226824476Y-169259942D01*
X226818812Y-169249706D01*
X226815821Y-169238637D01*
X226802451Y-169240754D01*
X226784233Y-169249629D01*
X226738624Y-169263233D01*
X226680007Y-169266899D01*
X226618354Y-169260903D01*
X226563638Y-169245521D01*
X226558730Y-169243386D01*
X226508723Y-169208255D01*
X226475756Y-169159419D01*
X226460587Y-169102333D01*
X226461746Y-169081824D01*
X226585508Y-169081824D01*
X226596413Y-169109425D01*
X226628745Y-169129204D01*
X226680910Y-169139819D01*
X226708787Y-169141228D01*
X226755247Y-169137620D01*
X226786129Y-169123597D01*
X226793664Y-169116931D01*
X226814076Y-169080666D01*
X226818812Y-169047773D01*
X226818812Y-169003763D01*
X226757513Y-169003763D01*
X226686256Y-169007395D01*
X226636276Y-169018818D01*
X226604696Y-169038824D01*
X226597626Y-169047743D01*
X226585508Y-169081824D01*
X226461746Y-169081824D01*
X226463971Y-169042456D01*
X226486663Y-168985244D01*
G37*
X226486663Y-168985244D02*
X226517624Y-168946580D01*
X226536376Y-168929864D01*
X226554733Y-168918878D01*
X226578619Y-168912180D01*
X226613957Y-168908326D01*
X226666669Y-168905873D01*
X226687577Y-168905168D01*
X226818812Y-168900879D01*
X226818620Y-168861158D01*
X226813537Y-168819405D01*
X226795162Y-168794158D01*
X226758039Y-168778030D01*
X226757043Y-168777742D01*
X226704410Y-168771400D01*
X226652906Y-168779684D01*
X226614630Y-168799827D01*
X226599272Y-168809773D01*
X226582730Y-168808397D01*
X226557275Y-168793987D01*
X226542328Y-168783817D01*
X226513091Y-168762088D01*
X226494980Y-168745800D01*
X226492074Y-168741137D01*
X226504040Y-168717005D01*
X226539396Y-168688185D01*
X226554753Y-168678461D01*
X226598901Y-168661714D01*
X226658398Y-168652227D01*
X226724487Y-168650095D01*
X226788411Y-168655417D01*
X226841411Y-168668290D01*
X226856731Y-168675110D01*
X226886428Y-168692974D01*
X226909220Y-168713093D01*
X226926083Y-168738962D01*
X226937998Y-168774073D01*
X226945942Y-168821920D01*
X226950894Y-168885996D01*
X226953831Y-168969794D01*
X226954947Y-169025768D01*
X226959052Y-169267822D01*
X226888932Y-169267822D01*
X226846393Y-169266038D01*
X226824476Y-169259942D01*
X226818812Y-169249706D01*
X226815821Y-169238637D01*
X226802451Y-169240754D01*
X226784233Y-169249629D01*
X226738624Y-169263233D01*
X226680007Y-169266899D01*
X226618354Y-169260903D01*
X226563638Y-169245521D01*
X226558730Y-169243386D01*
X226508723Y-169208255D01*
X226475756Y-169159419D01*
X226460587Y-169102333D01*
X226461746Y-169081824D01*
X226585508Y-169081824D01*
X226596413Y-169109425D01*
X226628745Y-169129204D01*
X226680910Y-169139819D01*
X226708787Y-169141228D01*
X226755247Y-169137620D01*
X226786129Y-169123597D01*
X226793664Y-169116931D01*
X226814076Y-169080666D01*
X226818812Y-169047773D01*
X226818812Y-169003763D01*
X226757513Y-169003763D01*
X226686256Y-169007395D01*
X226636276Y-169018818D01*
X226604696Y-169038824D01*
X226597626Y-169047743D01*
X226585508Y-169081824D01*
X226461746Y-169081824D01*
X226463971Y-169042456D01*
X226486663Y-168985244D01*
G36*
X227967226Y-167713880D02*
G01*
X228040080Y-167744830D01*
X228063027Y-167759895D01*
X228092354Y-167783048D01*
X228110764Y-167801253D01*
X228113961Y-167807183D01*
X228104935Y-167820340D01*
X228081837Y-167842667D01*
X228063344Y-167858250D01*
X228012728Y-167898926D01*
X227972760Y-167865295D01*
X227941874Y-167843584D01*
X227911759Y-167836090D01*
X227877292Y-167837920D01*
X227822561Y-167851528D01*
X227784886Y-167879772D01*
X227761991Y-167925433D01*
X227751597Y-167991289D01*
X227751595Y-167991331D01*
X227752494Y-168064939D01*
X227766463Y-168118946D01*
X227794328Y-168155716D01*
X227813325Y-168168168D01*
X227863776Y-168183673D01*
X227917663Y-168183683D01*
X227964546Y-168168638D01*
X227975644Y-168161287D01*
X228003476Y-168142511D01*
X228025236Y-168139434D01*
X228048704Y-168153409D01*
X228074649Y-168178510D01*
X228115716Y-168220880D01*
X228070121Y-168258464D01*
X227999674Y-168300882D01*
X227920233Y-168321785D01*
X227837215Y-168320272D01*
X227782694Y-168306411D01*
X227718970Y-168272135D01*
X227668005Y-168218212D01*
X227644851Y-168180149D01*
X227626099Y-168125536D01*
X227616715Y-168056369D01*
X227616643Y-167981407D01*
X227625824Y-167909409D01*
X227644199Y-167849137D01*
X227647093Y-167842958D01*
X227689952Y-167782351D01*
X227747979Y-167738224D01*
X227816591Y-167711493D01*
X227891201Y-167703073D01*
X227967226Y-167713880D01*
G37*
X227967226Y-167713880D02*
X228040080Y-167744830D01*
X228063027Y-167759895D01*
X228092354Y-167783048D01*
X228110764Y-167801253D01*
X228113961Y-167807183D01*
X228104935Y-167820340D01*
X228081837Y-167842667D01*
X228063344Y-167858250D01*
X228012728Y-167898926D01*
X227972760Y-167865295D01*
X227941874Y-167843584D01*
X227911759Y-167836090D01*
X227877292Y-167837920D01*
X227822561Y-167851528D01*
X227784886Y-167879772D01*
X227761991Y-167925433D01*
X227751597Y-167991289D01*
X227751595Y-167991331D01*
X227752494Y-168064939D01*
X227766463Y-168118946D01*
X227794328Y-168155716D01*
X227813325Y-168168168D01*
X227863776Y-168183673D01*
X227917663Y-168183683D01*
X227964546Y-168168638D01*
X227975644Y-168161287D01*
X228003476Y-168142511D01*
X228025236Y-168139434D01*
X228048704Y-168153409D01*
X228074649Y-168178510D01*
X228115716Y-168220880D01*
X228070121Y-168258464D01*
X227999674Y-168300882D01*
X227920233Y-168321785D01*
X227837215Y-168320272D01*
X227782694Y-168306411D01*
X227718970Y-168272135D01*
X227668005Y-168218212D01*
X227644851Y-168180149D01*
X227626099Y-168125536D01*
X227616715Y-168056369D01*
X227616643Y-167981407D01*
X227625824Y-167909409D01*
X227644199Y-167849137D01*
X227647093Y-167842958D01*
X227689952Y-167782351D01*
X227747979Y-167738224D01*
X227816591Y-167711493D01*
X227891201Y-167703073D01*
X227967226Y-167713880D01*
G36*
X227549460Y-167708030D02*
G01*
X227592711Y-167721245D01*
X227620558Y-167737941D01*
X227629629Y-167751145D01*
X227627132Y-167766797D01*
X227610931Y-167791385D01*
X227597232Y-167808800D01*
X227568992Y-167840283D01*
X227547775Y-167853529D01*
X227529688Y-167852664D01*
X227476035Y-167839010D01*
X227436630Y-167839630D01*
X227404632Y-167855104D01*
X227393890Y-167864161D01*
X227359505Y-167896027D01*
X227359505Y-168312179D01*
X227221188Y-168312179D01*
X227221188Y-167708614D01*
X227290347Y-167708614D01*
X227331869Y-167710256D01*
X227353291Y-167716087D01*
X227359502Y-167727461D01*
X227359505Y-167727798D01*
X227362439Y-167739713D01*
X227375704Y-167738159D01*
X227394084Y-167729563D01*
X227432046Y-167713568D01*
X227462872Y-167703945D01*
X227502536Y-167701478D01*
X227549460Y-167708030D01*
G37*
X227549460Y-167708030D02*
X227592711Y-167721245D01*
X227620558Y-167737941D01*
X227629629Y-167751145D01*
X227627132Y-167766797D01*
X227610931Y-167791385D01*
X227597232Y-167808800D01*
X227568992Y-167840283D01*
X227547775Y-167853529D01*
X227529688Y-167852664D01*
X227476035Y-167839010D01*
X227436630Y-167839630D01*
X227404632Y-167855104D01*
X227393890Y-167864161D01*
X227359505Y-167896027D01*
X227359505Y-168312179D01*
X227221188Y-168312179D01*
X227221188Y-167708614D01*
X227290347Y-167708614D01*
X227331869Y-167710256D01*
X227353291Y-167716087D01*
X227359502Y-167727461D01*
X227359505Y-167727798D01*
X227362439Y-167739713D01*
X227375704Y-167738159D01*
X227394084Y-167729563D01*
X227432046Y-167713568D01*
X227462872Y-167703945D01*
X227502536Y-167701478D01*
X227549460Y-167708030D01*
G36*
X225764017Y-167706452D02*
G01*
X225811634Y-167715482D01*
X225861034Y-167734370D01*
X225866312Y-167736777D01*
X225903774Y-167756476D01*
X225929717Y-167774781D01*
X225938103Y-167786508D01*
X225930117Y-167805632D01*
X225910720Y-167833850D01*
X225902110Y-167844384D01*
X225866628Y-167885847D01*
X225820885Y-167858858D01*
X225777350Y-167840878D01*
X225727050Y-167831267D01*
X225678812Y-167830660D01*
X225641467Y-167839691D01*
X225632505Y-167845327D01*
X225615437Y-167871171D01*
X225613363Y-167900941D01*
X225626134Y-167924197D01*
X225633688Y-167928708D01*
X225656325Y-167934309D01*
X225696115Y-167940892D01*
X225745166Y-167947183D01*
X225754215Y-167948170D01*
X225832996Y-167961798D01*
X225890136Y-167984946D01*
X225928030Y-168019752D01*
X225949079Y-168068354D01*
X225955635Y-168127718D01*
X225946577Y-168195198D01*
X225917164Y-168248188D01*
X225867278Y-168286783D01*
X225796800Y-168311081D01*
X225718565Y-168320667D01*
X225654766Y-168320552D01*
X225603016Y-168311845D01*
X225567673Y-168299825D01*
X225523017Y-168278880D01*
X225481747Y-168254574D01*
X225467079Y-168243876D01*
X225429357Y-168213084D01*
X225474852Y-168167049D01*
X225520347Y-168121013D01*
X225572072Y-168155243D01*
X225623952Y-168180952D01*
X225679351Y-168194399D01*
X225732605Y-168195818D01*
X225778049Y-168185443D01*
X225810016Y-168163507D01*
X225820338Y-168144998D01*
X225818789Y-168115314D01*
X225793140Y-168092615D01*
X225743460Y-168076940D01*
X225689031Y-168069695D01*
X225605264Y-168055873D01*
X225543033Y-168029796D01*
X225501507Y-167990699D01*
X225479853Y-167937820D01*
X225476853Y-167875126D01*
X225491671Y-167809642D01*
X225525454Y-167760144D01*
X225578505Y-167726408D01*
X225651126Y-167708207D01*
X225704928Y-167704639D01*
X225764017Y-167706452D01*
G37*
X225764017Y-167706452D02*
X225811634Y-167715482D01*
X225861034Y-167734370D01*
X225866312Y-167736777D01*
X225903774Y-167756476D01*
X225929717Y-167774781D01*
X225938103Y-167786508D01*
X225930117Y-167805632D01*
X225910720Y-167833850D01*
X225902110Y-167844384D01*
X225866628Y-167885847D01*
X225820885Y-167858858D01*
X225777350Y-167840878D01*
X225727050Y-167831267D01*
X225678812Y-167830660D01*
X225641467Y-167839691D01*
X225632505Y-167845327D01*
X225615437Y-167871171D01*
X225613363Y-167900941D01*
X225626134Y-167924197D01*
X225633688Y-167928708D01*
X225656325Y-167934309D01*
X225696115Y-167940892D01*
X225745166Y-167947183D01*
X225754215Y-167948170D01*
X225832996Y-167961798D01*
X225890136Y-167984946D01*
X225928030Y-168019752D01*
X225949079Y-168068354D01*
X225955635Y-168127718D01*
X225946577Y-168195198D01*
X225917164Y-168248188D01*
X225867278Y-168286783D01*
X225796800Y-168311081D01*
X225718565Y-168320667D01*
X225654766Y-168320552D01*
X225603016Y-168311845D01*
X225567673Y-168299825D01*
X225523017Y-168278880D01*
X225481747Y-168254574D01*
X225467079Y-168243876D01*
X225429357Y-168213084D01*
X225474852Y-168167049D01*
X225520347Y-168121013D01*
X225572072Y-168155243D01*
X225623952Y-168180952D01*
X225679351Y-168194399D01*
X225732605Y-168195818D01*
X225778049Y-168185443D01*
X225810016Y-168163507D01*
X225820338Y-168144998D01*
X225818789Y-168115314D01*
X225793140Y-168092615D01*
X225743460Y-168076940D01*
X225689031Y-168069695D01*
X225605264Y-168055873D01*
X225543033Y-168029796D01*
X225501507Y-167990699D01*
X225479853Y-167937820D01*
X225476853Y-167875126D01*
X225491671Y-167809642D01*
X225525454Y-167760144D01*
X225578505Y-167726408D01*
X225651126Y-167708207D01*
X225704928Y-167704639D01*
X225764017Y-167706452D01*
G36*
X227514055Y-168780949D02*
G01*
X227550470Y-168721263D01*
X227602297Y-168680549D01*
X227669990Y-168658179D01*
X227706662Y-168653871D01*
X227782581Y-168654970D01*
X227842685Y-168670597D01*
X227893021Y-168702848D01*
X227917393Y-168726940D01*
X227957345Y-168783895D01*
X227980242Y-168849965D01*
X227988108Y-168931182D01*
X227988148Y-168937748D01*
X227988218Y-169003763D01*
X227608264Y-169003763D01*
X227616363Y-169038342D01*
X227630987Y-169069659D01*
X227656581Y-169102291D01*
X227661935Y-169107500D01*
X227707943Y-169135694D01*
X227760410Y-169140475D01*
X227820803Y-169121926D01*
X227831040Y-169116931D01*
X227862439Y-169101745D01*
X227883470Y-169093094D01*
X227887139Y-169092293D01*
X227899948Y-169100063D01*
X227924378Y-169119072D01*
X227936779Y-169129460D01*
X227962476Y-169153321D01*
X227970915Y-169169077D01*
X227965058Y-169183571D01*
X227961928Y-169187534D01*
X227940725Y-169204879D01*
X227905738Y-169225959D01*
X227881337Y-169238265D01*
X227812072Y-169259946D01*
X227735388Y-169266971D01*
X227662765Y-169258647D01*
X227642426Y-169252686D01*
X227579476Y-169218952D01*
X227532815Y-169167045D01*
X227502173Y-169096459D01*
X227487282Y-169006692D01*
X227485647Y-168959753D01*
X227490421Y-168891413D01*
X227610990Y-168891413D01*
X227622652Y-168896465D01*
X227653998Y-168900429D01*
X227699571Y-168902768D01*
X227730446Y-168903169D01*
X227785981Y-168902783D01*
X227821033Y-168900975D01*
X227840262Y-168896773D01*
X227848330Y-168889203D01*
X227849901Y-168878218D01*
X227839121Y-168844381D01*
X227811980Y-168810940D01*
X227776277Y-168785272D01*
X227740560Y-168774772D01*
X227692048Y-168784086D01*
X227650053Y-168811013D01*
X227620936Y-168849827D01*
X227610990Y-168891413D01*
X227490421Y-168891413D01*
X227492599Y-168860236D01*
X227514055Y-168780949D01*
G37*
X227514055Y-168780949D02*
X227550470Y-168721263D01*
X227602297Y-168680549D01*
X227669990Y-168658179D01*
X227706662Y-168653871D01*
X227782581Y-168654970D01*
X227842685Y-168670597D01*
X227893021Y-168702848D01*
X227917393Y-168726940D01*
X227957345Y-168783895D01*
X227980242Y-168849965D01*
X227988108Y-168931182D01*
X227988148Y-168937748D01*
X227988218Y-169003763D01*
X227608264Y-169003763D01*
X227616363Y-169038342D01*
X227630987Y-169069659D01*
X227656581Y-169102291D01*
X227661935Y-169107500D01*
X227707943Y-169135694D01*
X227760410Y-169140475D01*
X227820803Y-169121926D01*
X227831040Y-169116931D01*
X227862439Y-169101745D01*
X227883470Y-169093094D01*
X227887139Y-169092293D01*
X227899948Y-169100063D01*
X227924378Y-169119072D01*
X227936779Y-169129460D01*
X227962476Y-169153321D01*
X227970915Y-169169077D01*
X227965058Y-169183571D01*
X227961928Y-169187534D01*
X227940725Y-169204879D01*
X227905738Y-169225959D01*
X227881337Y-169238265D01*
X227812072Y-169259946D01*
X227735388Y-169266971D01*
X227662765Y-169258647D01*
X227642426Y-169252686D01*
X227579476Y-169218952D01*
X227532815Y-169167045D01*
X227502173Y-169096459D01*
X227487282Y-169006692D01*
X227485647Y-168959753D01*
X227490421Y-168891413D01*
X227610990Y-168891413D01*
X227622652Y-168896465D01*
X227653998Y-168900429D01*
X227699571Y-168902768D01*
X227730446Y-168903169D01*
X227785981Y-168902783D01*
X227821033Y-168900975D01*
X227840262Y-168896773D01*
X227848330Y-168889203D01*
X227849901Y-168878218D01*
X227839121Y-168844381D01*
X227811980Y-168810940D01*
X227776277Y-168785272D01*
X227740560Y-168774772D01*
X227692048Y-168784086D01*
X227650053Y-168811013D01*
X227620936Y-168849827D01*
X227610990Y-168891413D01*
X227490421Y-168891413D01*
X227492599Y-168860236D01*
X227514055Y-168780949D01*
G36*
X226035388Y-167860501D02*
G01*
X226069029Y-167792530D01*
X226119018Y-167743664D01*
X226185356Y-167713899D01*
X226199601Y-167710448D01*
X226285210Y-167702345D01*
X226360762Y-167716055D01*
X226424363Y-167750692D01*
X226474123Y-167805372D01*
X226497568Y-167849842D01*
X226507634Y-167889121D01*
X226514156Y-167945116D01*
X226516951Y-168009621D01*
X226515836Y-168074429D01*
X226510626Y-168131334D01*
X226504541Y-168161727D01*
X226484014Y-168203306D01*
X226448463Y-168247468D01*
X226405619Y-168286087D01*
X226363211Y-168311034D01*
X226362177Y-168311430D01*
X226309553Y-168322331D01*
X226247188Y-168322601D01*
X226187924Y-168312676D01*
X226165040Y-168304722D01*
X226106102Y-168271300D01*
X226063890Y-168227511D01*
X226036156Y-168169538D01*
X226020651Y-168093565D01*
X226017143Y-168053771D01*
X226017590Y-168003766D01*
X226152376Y-168003766D01*
X226156917Y-168076732D01*
X226169986Y-168132334D01*
X226190756Y-168167861D01*
X226205552Y-168178020D01*
X226243464Y-168185104D01*
X226288527Y-168183007D01*
X226327487Y-168172812D01*
X226337704Y-168167204D01*
X226364659Y-168134538D01*
X226382451Y-168084545D01*
X226390024Y-168023705D01*
X226386325Y-167958497D01*
X226378057Y-167919253D01*
X226354320Y-167873805D01*
X226316849Y-167845396D01*
X226271720Y-167835573D01*
X226225011Y-167845887D01*
X226189132Y-167871112D01*
X226170277Y-167891925D01*
X226159272Y-167912439D01*
X226154026Y-167940203D01*
X226152449Y-167982762D01*
X226152376Y-168003766D01*
X226017590Y-168003766D01*
X226018094Y-167947580D01*
X226035388Y-167860501D01*
G37*
X226035388Y-167860501D02*
X226069029Y-167792530D01*
X226119018Y-167743664D01*
X226185356Y-167713899D01*
X226199601Y-167710448D01*
X226285210Y-167702345D01*
X226360762Y-167716055D01*
X226424363Y-167750692D01*
X226474123Y-167805372D01*
X226497568Y-167849842D01*
X226507634Y-167889121D01*
X226514156Y-167945116D01*
X226516951Y-168009621D01*
X226515836Y-168074429D01*
X226510626Y-168131334D01*
X226504541Y-168161727D01*
X226484014Y-168203306D01*
X226448463Y-168247468D01*
X226405619Y-168286087D01*
X226363211Y-168311034D01*
X226362177Y-168311430D01*
X226309553Y-168322331D01*
X226247188Y-168322601D01*
X226187924Y-168312676D01*
X226165040Y-168304722D01*
X226106102Y-168271300D01*
X226063890Y-168227511D01*
X226036156Y-168169538D01*
X226020651Y-168093565D01*
X226017143Y-168053771D01*
X226017590Y-168003766D01*
X226152376Y-168003766D01*
X226156917Y-168076732D01*
X226169986Y-168132334D01*
X226190756Y-168167861D01*
X226205552Y-168178020D01*
X226243464Y-168185104D01*
X226288527Y-168183007D01*
X226327487Y-168172812D01*
X226337704Y-168167204D01*
X226364659Y-168134538D01*
X226382451Y-168084545D01*
X226390024Y-168023705D01*
X226386325Y-167958497D01*
X226378057Y-167919253D01*
X226354320Y-167873805D01*
X226316849Y-167845396D01*
X226271720Y-167835573D01*
X226225011Y-167845887D01*
X226189132Y-167871112D01*
X226170277Y-167891925D01*
X226159272Y-167912439D01*
X226154026Y-167940203D01*
X226152449Y-167982762D01*
X226152376Y-168003766D01*
X226017590Y-168003766D01*
X226018094Y-167947580D01*
X226035388Y-167860501D01*
G36*
X228178698Y-167814191D02*
G01*
X228224701Y-167758779D01*
X228282821Y-167721009D01*
X228351180Y-167702896D01*
X228427898Y-167706457D01*
X228460096Y-167714279D01*
X228521825Y-167742921D01*
X228574610Y-167786667D01*
X228611141Y-167839117D01*
X228616160Y-167850893D01*
X228623045Y-167881740D01*
X228627864Y-167927371D01*
X228629505Y-167973492D01*
X228629505Y-168060693D01*
X228447178Y-168060693D01*
X228371979Y-168060978D01*
X228319003Y-168062704D01*
X228285325Y-168067181D01*
X228268020Y-168075720D01*
X228264163Y-168089630D01*
X228270829Y-168110222D01*
X228282770Y-168134315D01*
X228316080Y-168174525D01*
X228362368Y-168194558D01*
X228418944Y-168193905D01*
X228483031Y-168172101D01*
X228538417Y-168145193D01*
X228584375Y-168181532D01*
X228630333Y-168217872D01*
X228587096Y-168257819D01*
X228529374Y-168295563D01*
X228458386Y-168318320D01*
X228382029Y-168324688D01*
X228308199Y-168313268D01*
X228296287Y-168309393D01*
X228231399Y-168275506D01*
X228183130Y-168224986D01*
X228150465Y-168156325D01*
X228132385Y-168068014D01*
X228132175Y-168066121D01*
X228130556Y-167969878D01*
X228137100Y-167935542D01*
X228264852Y-167935542D01*
X228276584Y-167940822D01*
X228308438Y-167944867D01*
X228355397Y-167947176D01*
X228385154Y-167947525D01*
X228440648Y-167947306D01*
X228475346Y-167945916D01*
X228493601Y-167942251D01*
X228499766Y-167935210D01*
X228498195Y-167923690D01*
X228496878Y-167919233D01*
X228474382Y-167877355D01*
X228439003Y-167843604D01*
X228407780Y-167828773D01*
X228366301Y-167829668D01*
X228324269Y-167848164D01*
X228289012Y-167878786D01*
X228267854Y-167916062D01*
X228264852Y-167935542D01*
X228137100Y-167935542D01*
X228146690Y-167885229D01*
X228178698Y-167814191D01*
G37*
X228178698Y-167814191D02*
X228224701Y-167758779D01*
X228282821Y-167721009D01*
X228351180Y-167702896D01*
X228427898Y-167706457D01*
X228460096Y-167714279D01*
X228521825Y-167742921D01*
X228574610Y-167786667D01*
X228611141Y-167839117D01*
X228616160Y-167850893D01*
X228623045Y-167881740D01*
X228627864Y-167927371D01*
X228629505Y-167973492D01*
X228629505Y-168060693D01*
X228447178Y-168060693D01*
X228371979Y-168060978D01*
X228319003Y-168062704D01*
X228285325Y-168067181D01*
X228268020Y-168075720D01*
X228264163Y-168089630D01*
X228270829Y-168110222D01*
X228282770Y-168134315D01*
X228316080Y-168174525D01*
X228362368Y-168194558D01*
X228418944Y-168193905D01*
X228483031Y-168172101D01*
X228538417Y-168145193D01*
X228584375Y-168181532D01*
X228630333Y-168217872D01*
X228587096Y-168257819D01*
X228529374Y-168295563D01*
X228458386Y-168318320D01*
X228382029Y-168324688D01*
X228308199Y-168313268D01*
X228296287Y-168309393D01*
X228231399Y-168275506D01*
X228183130Y-168224986D01*
X228150465Y-168156325D01*
X228132385Y-168068014D01*
X228132175Y-168066121D01*
X228130556Y-167969878D01*
X228137100Y-167935542D01*
X228264852Y-167935542D01*
X228276584Y-167940822D01*
X228308438Y-167944867D01*
X228355397Y-167947176D01*
X228385154Y-167947525D01*
X228440648Y-167947306D01*
X228475346Y-167945916D01*
X228493601Y-167942251D01*
X228499766Y-167935210D01*
X228498195Y-167923690D01*
X228496878Y-167919233D01*
X228474382Y-167877355D01*
X228439003Y-167843604D01*
X228407780Y-167828773D01*
X228366301Y-167829668D01*
X228324269Y-167848164D01*
X228289012Y-167878786D01*
X228267854Y-167916062D01*
X228264852Y-167935542D01*
X228137100Y-167935542D01*
X228146690Y-167885229D01*
X228178698Y-167814191D01*
G36*
X224083962Y-167810025D02*
G01*
X224116193Y-167770639D01*
X224175783Y-167727931D01*
X224245832Y-167705109D01*
X224320339Y-167703046D01*
X224393301Y-167722614D01*
X224405832Y-167728514D01*
X224449201Y-167760283D01*
X224490210Y-167806646D01*
X224520832Y-167857696D01*
X224529541Y-167881166D01*
X224537488Y-167923091D01*
X224542226Y-167973757D01*
X224542801Y-167994679D01*
X224542871Y-168060693D01*
X224162917Y-168060693D01*
X224171017Y-168095273D01*
X224190896Y-168136170D01*
X224225653Y-168171514D01*
X224267002Y-168194282D01*
X224293351Y-168199010D01*
X224329084Y-168193273D01*
X224371718Y-168178882D01*
X224386201Y-168172262D01*
X224439760Y-168145513D01*
X224485467Y-168180376D01*
X224511842Y-168203955D01*
X224525876Y-168223417D01*
X224526586Y-168229129D01*
X224514049Y-168242973D01*
X224486572Y-168264012D01*
X224461634Y-168280425D01*
X224394336Y-168309930D01*
X224318890Y-168323284D01*
X224244112Y-168319812D01*
X224184505Y-168301663D01*
X224123059Y-168262784D01*
X224079392Y-168211595D01*
X224052074Y-168145367D01*
X224039678Y-168061371D01*
X224038579Y-168022936D01*
X224042978Y-167934861D01*
X224043518Y-167932299D01*
X224169418Y-167932299D01*
X224172885Y-167940558D01*
X224187137Y-167945113D01*
X224216530Y-167947065D01*
X224265425Y-167947517D01*
X224284252Y-167947525D01*
X224341533Y-167946843D01*
X224377859Y-167944364D01*
X224397396Y-167939443D01*
X224404310Y-167931434D01*
X224404555Y-167928862D01*
X224396664Y-167908423D01*
X224376915Y-167879789D01*
X224368425Y-167869763D01*
X224336906Y-167841408D01*
X224304051Y-167830259D01*
X224286349Y-167829327D01*
X224238461Y-167840981D01*
X224198301Y-167872285D01*
X224172827Y-167917752D01*
X224172375Y-167919233D01*
X224169418Y-167932299D01*
X224043518Y-167932299D01*
X224057608Y-167865510D01*
X224083962Y-167810025D01*
G37*
X224083962Y-167810025D02*
X224116193Y-167770639D01*
X224175783Y-167727931D01*
X224245832Y-167705109D01*
X224320339Y-167703046D01*
X224393301Y-167722614D01*
X224405832Y-167728514D01*
X224449201Y-167760283D01*
X224490210Y-167806646D01*
X224520832Y-167857696D01*
X224529541Y-167881166D01*
X224537488Y-167923091D01*
X224542226Y-167973757D01*
X224542801Y-167994679D01*
X224542871Y-168060693D01*
X224162917Y-168060693D01*
X224171017Y-168095273D01*
X224190896Y-168136170D01*
X224225653Y-168171514D01*
X224267002Y-168194282D01*
X224293351Y-168199010D01*
X224329084Y-168193273D01*
X224371718Y-168178882D01*
X224386201Y-168172262D01*
X224439760Y-168145513D01*
X224485467Y-168180376D01*
X224511842Y-168203955D01*
X224525876Y-168223417D01*
X224526586Y-168229129D01*
X224514049Y-168242973D01*
X224486572Y-168264012D01*
X224461634Y-168280425D01*
X224394336Y-168309930D01*
X224318890Y-168323284D01*
X224244112Y-168319812D01*
X224184505Y-168301663D01*
X224123059Y-168262784D01*
X224079392Y-168211595D01*
X224052074Y-168145367D01*
X224039678Y-168061371D01*
X224038579Y-168022936D01*
X224042978Y-167934861D01*
X224043518Y-167932299D01*
X224169418Y-167932299D01*
X224172885Y-167940558D01*
X224187137Y-167945113D01*
X224216530Y-167947065D01*
X224265425Y-167947517D01*
X224284252Y-167947525D01*
X224341533Y-167946843D01*
X224377859Y-167944364D01*
X224397396Y-167939443D01*
X224404310Y-167931434D01*
X224404555Y-167928862D01*
X224396664Y-167908423D01*
X224376915Y-167879789D01*
X224368425Y-167869763D01*
X224336906Y-167841408D01*
X224304051Y-167830259D01*
X224286349Y-167829327D01*
X224238461Y-167840981D01*
X224198301Y-167872285D01*
X224172827Y-167917752D01*
X224172375Y-167919233D01*
X224169418Y-167932299D01*
X224043518Y-167932299D01*
X224057608Y-167865510D01*
X224083962Y-167810025D01*
G36*
X225060336Y-168912563D02*
G01*
X225066486Y-168830981D01*
X225079267Y-168769730D01*
X225100529Y-168724449D01*
X225132122Y-168690779D01*
X225162793Y-168671014D01*
X225205646Y-168657120D01*
X225258944Y-168652354D01*
X225313520Y-168656236D01*
X225360208Y-168668282D01*
X225384876Y-168682693D01*
X225410495Y-168705878D01*
X225410495Y-168412773D01*
X225548812Y-168412773D01*
X225548812Y-169267822D01*
X225479654Y-169267822D01*
X225439512Y-169266645D01*
X225418606Y-169261772D01*
X225411078Y-169251186D01*
X225410495Y-169244029D01*
X225409226Y-169229676D01*
X225401221Y-169226923D01*
X225380185Y-169235771D01*
X225363827Y-169244029D01*
X225301023Y-169263597D01*
X225232752Y-169264729D01*
X225177248Y-169250135D01*
X225125562Y-169214877D01*
X225086162Y-169162835D01*
X225064587Y-169101450D01*
X225064038Y-169098018D01*
X225060833Y-169060571D01*
X225059239Y-169006813D01*
X225059367Y-168966155D01*
X225196721Y-168966155D01*
X225199903Y-169020194D01*
X225207141Y-169064735D01*
X225216940Y-169089888D01*
X225254011Y-169124260D01*
X225298026Y-169136582D01*
X225343416Y-169126618D01*
X225382203Y-169096895D01*
X225396892Y-169076905D01*
X225405481Y-169053050D01*
X225409504Y-169018230D01*
X225410495Y-168965930D01*
X225408722Y-168914139D01*
X225404037Y-168868634D01*
X225397397Y-168838181D01*
X225396290Y-168835452D01*
X225369509Y-168803000D01*
X225330421Y-168785183D01*
X225286685Y-168782306D01*
X225245962Y-168794674D01*
X225215913Y-168822593D01*
X225212796Y-168828148D01*
X225203039Y-168862022D01*
X225197723Y-168910728D01*
X225196721Y-168966155D01*
X225059367Y-168966155D01*
X225059432Y-168945540D01*
X225060336Y-168912563D01*
G37*
X225060336Y-168912563D02*
X225066486Y-168830981D01*
X225079267Y-168769730D01*
X225100529Y-168724449D01*
X225132122Y-168690779D01*
X225162793Y-168671014D01*
X225205646Y-168657120D01*
X225258944Y-168652354D01*
X225313520Y-168656236D01*
X225360208Y-168668282D01*
X225384876Y-168682693D01*
X225410495Y-168705878D01*
X225410495Y-168412773D01*
X225548812Y-168412773D01*
X225548812Y-169267822D01*
X225479654Y-169267822D01*
X225439512Y-169266645D01*
X225418606Y-169261772D01*
X225411078Y-169251186D01*
X225410495Y-169244029D01*
X225409226Y-169229676D01*
X225401221Y-169226923D01*
X225380185Y-169235771D01*
X225363827Y-169244029D01*
X225301023Y-169263597D01*
X225232752Y-169264729D01*
X225177248Y-169250135D01*
X225125562Y-169214877D01*
X225086162Y-169162835D01*
X225064587Y-169101450D01*
X225064038Y-169098018D01*
X225060833Y-169060571D01*
X225059239Y-169006813D01*
X225059367Y-168966155D01*
X225196721Y-168966155D01*
X225199903Y-169020194D01*
X225207141Y-169064735D01*
X225216940Y-169089888D01*
X225254011Y-169124260D01*
X225298026Y-169136582D01*
X225343416Y-169126618D01*
X225382203Y-169096895D01*
X225396892Y-169076905D01*
X225405481Y-169053050D01*
X225409504Y-169018230D01*
X225410495Y-168965930D01*
X225408722Y-168914139D01*
X225404037Y-168868634D01*
X225397397Y-168838181D01*
X225396290Y-168835452D01*
X225369509Y-168803000D01*
X225330421Y-168785183D01*
X225286685Y-168782306D01*
X225245962Y-168794674D01*
X225215913Y-168822593D01*
X225212796Y-168828148D01*
X225203039Y-168862022D01*
X225197723Y-168910728D01*
X225196721Y-168966155D01*
X225059367Y-168966155D01*
X225059432Y-168945540D01*
X225060336Y-168912563D01*
G36*
X223543218Y-167708614D02*
G01*
X223584740Y-167710256D01*
X223606162Y-167716087D01*
X223612374Y-167727461D01*
X223612376Y-167727798D01*
X223615258Y-167738938D01*
X223627970Y-167737673D01*
X223653243Y-167725433D01*
X223712131Y-167706707D01*
X223778385Y-167704739D01*
X223841241Y-167719184D01*
X223867753Y-167732282D01*
X223900447Y-167755106D01*
X223924275Y-167779996D01*
X223940594Y-167811249D01*
X223950760Y-167853166D01*
X223956128Y-167910044D01*
X223958056Y-167986184D01*
X223958169Y-168018917D01*
X223957839Y-168090656D01*
X223956473Y-168141927D01*
X223953500Y-168177404D01*
X223948351Y-168201763D01*
X223940457Y-168219680D01*
X223932243Y-168231902D01*
X223879813Y-168283905D01*
X223818070Y-168315184D01*
X223751464Y-168324592D01*
X223684442Y-168310980D01*
X223663208Y-168301354D01*
X223612376Y-168274859D01*
X223612376Y-168690052D01*
X223649475Y-168670868D01*
X223698357Y-168656025D01*
X223758439Y-168652222D01*
X223818436Y-168659243D01*
X223863744Y-168675013D01*
X223901325Y-168705047D01*
X223933436Y-168748024D01*
X223935850Y-168752436D01*
X223946033Y-168773221D01*
X223953470Y-168794170D01*
X223958589Y-168819548D01*
X223961819Y-168853618D01*
X223963587Y-168900641D01*
X223964323Y-168964882D01*
X223964456Y-169037176D01*
X223964456Y-169267822D01*
X223826139Y-169267822D01*
X223826139Y-168842533D01*
X223787451Y-168809979D01*
X223747262Y-168783940D01*
X223709203Y-168779205D01*
X223670934Y-168791389D01*
X223650538Y-168803320D01*
X223635358Y-168820313D01*
X223624562Y-168845995D01*
X223617317Y-168883991D01*
X223612792Y-168937926D01*
X223610156Y-169011425D01*
X223609228Y-169060347D01*
X223606089Y-169261535D01*
X223540074Y-169265336D01*
X223474060Y-169269136D01*
X223474060Y-168020650D01*
X223612376Y-168020650D01*
X223615903Y-168090254D01*
X223627785Y-168138569D01*
X223649980Y-168168631D01*
X223684441Y-168183471D01*
X223719258Y-168186436D01*
X223758671Y-168183028D01*
X223784829Y-168169617D01*
X223801186Y-168151896D01*
X223814063Y-168132835D01*
X223821728Y-168111601D01*
X223825139Y-168081849D01*
X223825251Y-168037236D01*
X223824103Y-167999880D01*
X223821468Y-167943604D01*
X223817544Y-167906658D01*
X223810937Y-167883223D01*
X223800251Y-167867480D01*
X223790167Y-167858380D01*
X223748030Y-167838537D01*
X223698160Y-167835332D01*
X223669524Y-167842168D01*
X223641172Y-167866464D01*
X223622391Y-167913728D01*
X223613288Y-167983624D01*
X223612376Y-168020650D01*
X223474060Y-168020650D01*
X223474060Y-167708614D01*
X223543218Y-167708614D01*
G37*
X223543218Y-167708614D02*
X223584740Y-167710256D01*
X223606162Y-167716087D01*
X223612374Y-167727461D01*
X223612376Y-167727798D01*
X223615258Y-167738938D01*
X223627970Y-167737673D01*
X223653243Y-167725433D01*
X223712131Y-167706707D01*
X223778385Y-167704739D01*
X223841241Y-167719184D01*
X223867753Y-167732282D01*
X223900447Y-167755106D01*
X223924275Y-167779996D01*
X223940594Y-167811249D01*
X223950760Y-167853166D01*
X223956128Y-167910044D01*
X223958056Y-167986184D01*
X223958169Y-168018917D01*
X223957839Y-168090656D01*
X223956473Y-168141927D01*
X223953500Y-168177404D01*
X223948351Y-168201763D01*
X223940457Y-168219680D01*
X223932243Y-168231902D01*
X223879813Y-168283905D01*
X223818070Y-168315184D01*
X223751464Y-168324592D01*
X223684442Y-168310980D01*
X223663208Y-168301354D01*
X223612376Y-168274859D01*
X223612376Y-168690052D01*
X223649475Y-168670868D01*
X223698357Y-168656025D01*
X223758439Y-168652222D01*
X223818436Y-168659243D01*
X223863744Y-168675013D01*
X223901325Y-168705047D01*
X223933436Y-168748024D01*
X223935850Y-168752436D01*
X223946033Y-168773221D01*
X223953470Y-168794170D01*
X223958589Y-168819548D01*
X223961819Y-168853618D01*
X223963587Y-168900641D01*
X223964323Y-168964882D01*
X223964456Y-169037176D01*
X223964456Y-169267822D01*
X223826139Y-169267822D01*
X223826139Y-168842533D01*
X223787451Y-168809979D01*
X223747262Y-168783940D01*
X223709203Y-168779205D01*
X223670934Y-168791389D01*
X223650538Y-168803320D01*
X223635358Y-168820313D01*
X223624562Y-168845995D01*
X223617317Y-168883991D01*
X223612792Y-168937926D01*
X223610156Y-169011425D01*
X223609228Y-169060347D01*
X223606089Y-169261535D01*
X223540074Y-169265336D01*
X223474060Y-169269136D01*
X223474060Y-168020650D01*
X223612376Y-168020650D01*
X223615903Y-168090254D01*
X223627785Y-168138569D01*
X223649980Y-168168631D01*
X223684441Y-168183471D01*
X223719258Y-168186436D01*
X223758671Y-168183028D01*
X223784829Y-168169617D01*
X223801186Y-168151896D01*
X223814063Y-168132835D01*
X223821728Y-168111601D01*
X223825139Y-168081849D01*
X223825251Y-168037236D01*
X223824103Y-167999880D01*
X223821468Y-167943604D01*
X223817544Y-167906658D01*
X223810937Y-167883223D01*
X223800251Y-167867480D01*
X223790167Y-167858380D01*
X223748030Y-167838537D01*
X223698160Y-167835332D01*
X223669524Y-167842168D01*
X223641172Y-167866464D01*
X223622391Y-167913728D01*
X223613288Y-167983624D01*
X223612376Y-168020650D01*
X223474060Y-168020650D01*
X223474060Y-167708614D01*
X223543218Y-167708614D01*
D10*
X189500000Y-169250000D02*
G75*
G03*
X189500000Y-169250000I-2500000J0D01*
G01*
X215500000Y-169250000D02*
G75*
G03*
X215500000Y-169250000I-2500000J0D01*
G01*
X215500000Y-153250000D02*
G75*
G03*
X215500000Y-153250000I-2500000J0D01*
G01*
X189500000Y-153250000D02*
G75*
G03*
X189500000Y-153250000I-2500000J0D01*
G01*
%LPC*%
D13*
X185250000Y-142250000D03*
X185250000Y-144250000D03*
X185250000Y-141250000D03*
X185250000Y-143250000D03*
X185250000Y-145250000D03*
X208500000Y-148500000D03*
X209500000Y-148500000D03*
X207500000Y-148500000D03*
D14*
X219450000Y-155200000D03*
D13*
X231750000Y-141250000D03*
X231750000Y-142250000D03*
X231750000Y-143250000D03*
X231750000Y-144250000D03*
X231750000Y-145250000D03*
X231750000Y-164750000D03*
X231750000Y-163750000D03*
X231750000Y-162750000D03*
D14*
X219400000Y-152600000D03*
D13*
X185250000Y-163750000D03*
X185250000Y-164750000D03*
X185250000Y-162750000D03*
D15*
X187000000Y-169250000D03*
X213000000Y-169250000D03*
X213000000Y-153250000D03*
D16*
X197110000Y-152849999D03*
X202890000Y-152849999D03*
D17*
X195680000Y-153379999D03*
X204320000Y-153379999D03*
D18*
X195680000Y-149199999D03*
X204320000Y-149199999D03*
D19*
X187000000Y-153250000D03*
D20*
X220740000Y-151216000D03*
X220740000Y-149184000D03*
X215660000Y-150200000D03*
D13*
X216930000Y-149565000D03*
X216930000Y-150835000D03*
X218200000Y-149565000D03*
X218200000Y-150835000D03*
X219470000Y-149565000D03*
X219470000Y-150835000D03*
M02*
